<?xml version="1.0" encoding="UTF-8" standalone="no"?>
<svg
   xmlns:dc="http://purl.org/dc/elements/1.1/"
   xmlns:cc="http://creativecommons.org/ns#"
   xmlns:rdf="http://www.w3.org/1999/02/22-rdf-syntax-ns#"
   xmlns:svg="http://www.w3.org/2000/svg"
   xmlns="http://www.w3.org/2000/svg"
   xmlns:sodipodi="http://sodipodi.sourceforge.net/DTD/sodipodi-0.dtd"
   xmlns:inkscape="http://www.inkscape.org/namespaces/inkscape"
   width="164"
   height="36"
   version="1.1"
   id="svg8"
   sodipodi:docname="logo.svg"
   inkscape:version="0.92.3 (2405546, 2018-03-11)">
  <metadata
     id="metadata14">
    <rdf:RDF>
      <cc:Work
         rdf:about="">
        <dc:format>image/svg+xml</dc:format>
        <dc:type
           rdf:resource="http://purl.org/dc/dcmitype/StillImage" />
      </cc:Work>
    </rdf:RDF>
  </metadata>
  <defs
     id="defs12" />
  <sodipodi:namedview
     pagecolor="#ffffff"
     bordercolor="#666666"
     borderopacity="1"
     objecttolerance="10"
     gridtolerance="10"
     guidetolerance="10"
     inkscape:pageopacity="0"
     inkscape:pageshadow="2"
     inkscape:window-width="1299"
     inkscape:window-height="713"
     id="namedview10"
     showgrid="false"
     inkscape:zoom="2.9491527"
     inkscape:cx="67.460687"
     inkscape:cy="-10.702802"
     inkscape:window-x="67"
     inkscape:window-y="27"
     inkscape:window-maximized="1"
     inkscape:current-layer="svg8"
     inkscape:snap-global="true"
     showguides="false" />
  <g
     id="g884"
     transform="translate(-0.67816088,-0.33908044)">
    <g
       transform="matrix(0.98060757,0,0,0.77390774,2.2647326,2.4654816)"
       id="g838">
      <path
         inkscape:connector-curvature="0"
         id="rect821"
         d="m 141.03437,1.3099021 h 20.8093 c 0.33907,0 0.61204,1.532275 0.61204,3.4355943 V 30.856009 c 0,1.903319 -0.27297,3.435594 -0.61204,3.435594 h -20.8093 c -0.33907,0 -0.61204,-1.532275 -0.61204,-3.435594 V 4.7454964 c 0,-1.9033193 0.27297,-3.4355943 0.61204,-3.4355943 z"
         style="opacity:1;fill:#ff0000;fill-opacity:1;stroke:#ff0000;stroke-width:3.80014586;stroke-miterlimit:4;stroke-dasharray:none;stroke-opacity:1" />
      <path
         inkscape:connector-curvature="0"
         id="rect821-3"
         d="m 117.27692,4.5103827 h 22.48412 c 0.36636,0 0.6613,1.3845755 0.6613,3.1044294 V 31.208474 c 0,1.719854 -0.29494,3.104429 -0.6613,3.104429 h -22.48412 c -0.36636,0 -0.6613,-1.384575 -0.6613,-3.104429 V 7.6148121 c 0,-1.7198539 0.29494,-3.1044294 0.6613,-3.1044294 z"
         style="opacity:1;fill:#ff6600;fill-opacity:1;stroke:#ff6600;stroke-width:3.75490928;stroke-miterlimit:4;stroke-dasharray:none;stroke-opacity:1" />
      <path
         inkscape:connector-curvature="0"
         id="rect821-3-6"
         d="m 95.341623,2.1794419 h 20.666147 c 0.33674,0 0.60783,1.4932262 0.60783,3.3480408 V 30.972598 c 0,1.854815 -0.27109,3.348041 -0.60783,3.348041 H 95.341623 c -0.336737,0 -0.607828,-1.493226 -0.607828,-3.348041 V 5.5274827 c 0,-1.8548146 0.271091,-3.3480408 0.607828,-3.3480408 z"
         style="opacity:1;fill:#ffff00;fill-opacity:1;stroke:#ffff00;stroke-width:3.73848677;stroke-miterlimit:4;stroke-dasharray:none;stroke-opacity:1" />
      <path
         inkscape:connector-curvature="0"
         id="rect821-3-6-7"
         d="m 72.723278,4.3854208 h 21.381647 c 0.348395,0 0.628872,1.3922 0.628872,3.1215246 V 31.230533 c 0,1.729324 -0.280477,3.121524 -0.628872,3.121524 H 72.723278 c -0.348395,0 -0.628872,-1.3922 -0.628872,-3.121524 V 7.5069454 c 0,-1.7293246 0.280477,-3.1215246 0.628872,-3.1215246 z"
         style="opacity:1;fill:#008000;fill-opacity:1;stroke:#008000;stroke-width:3.6717627;stroke-miterlimit:4;stroke-dasharray:none;stroke-opacity:1" />
      <path
         inkscape:connector-curvature="0"
         id="rect821-3-6-7-5"
         d="m 48.700958,7.4049783 h 22.725068 c 0.370285,0 0.668384,1.2536599 0.668384,2.8108967 v 21.362809 c 0,1.557236 -0.298099,2.810896 -0.668384,2.810896 H 48.700958 c -0.370285,0 -0.668384,-1.25366 -0.668384,-2.810896 V 10.215875 c 0,-1.5572368 0.298099,-2.8108967 0.668384,-2.8108967 z"
         style="opacity:1;fill:#00ffff;fill-opacity:1;stroke:#00ffff;stroke-width:3.59207749;stroke-miterlimit:4;stroke-dasharray:none;stroke-opacity:1" />
      <path
         inkscape:connector-curvature="0"
         id="rect821-3-6-7-5-3"
         d="m 24.167525,13.763421 h 23.183187 c 0.377749,0 0.681858,0.967127 0.681858,2.168445 v 16.480191 c 0,1.201319 -0.304109,2.168446 -0.681858,2.168446 H 24.167525 c -0.37775,0 -0.681859,-0.967127 -0.681859,-2.168446 V 15.931866 c 0,-1.201318 0.304109,-2.168445 0.681859,-2.168445 z"
         style="opacity:1;fill:#0000ff;fill-opacity:1;stroke:#0000ff;stroke-width:3.18662953;stroke-miterlimit:4;stroke-dasharray:none;stroke-opacity:1" />
      <path
         inkscape:connector-curvature="0"
         id="rect821-3-6-7-5-3-5"
         d="M 2.8263343,1.6789052 H 22.895401 c 0.327007,0 0.590266,1.517031 0.590266,3.4014147 V 30.931067 c 0,1.884383 -0.263259,3.401414 -0.590266,3.401414 H 2.8263343 c -0.3270077,0 -0.5902665,-1.517031 -0.5902665,-3.401414 V 5.0803199 c 0,-1.8843837 0.2632588,-3.4014147 0.5902665,-3.4014147 z"
         style="opacity:1;fill:#800080;fill-opacity:1;stroke:#800080;stroke-width:3.71333432;stroke-miterlimit:4;stroke-dasharray:none;stroke-opacity:1" />
    </g>
    <g
       transform="matrix(0.98058343,0,0,0.92138618,-3.3857223,-44.907339)"
       id="g904">
      <rect
         style="opacity:1;fill:#000000;fill-opacity:1;stroke:#000000;stroke-width:1.86372304;stroke-miterlimit:4;stroke-dasharray:none;stroke-opacity:1"
         id="rect887"
         width="163.50928"
         height="8.4422693"
         x="6.3773208"
         y="78.283585"
         ry="0" />
      <g
         id="g885"
         transform="translate(6.6710807,49.844826)">
        <rect
           ry="5.5669723"
           y="18.27659"
           x="0.57591456"
           height="16.162169"
           width="161.76993"
           id="rect870"
           style="opacity:1;fill:#000000;fill-opacity:1;stroke:#000000;stroke-width:3.60346842;stroke-miterlimit:4;stroke-dasharray:none;stroke-opacity:1" />
        <g
           id="text820"
           style="font-style:normal;font-weight:normal;font-size:21.33049774px;line-height:1.25;font-family:sans-serif;letter-spacing:0px;word-spacing:0px;fill:#ffffff;fill-opacity:1;stroke:none;stroke-width:0.53326249"
           transform="matrix(1.0133224,0,0,0.9418015,2.3138516,-2.44601)"
           aria-label="MEDIA JOCKEY">
          <path
             inkscape:connector-curvature="0"
             id="path840"
             style="font-style:normal;font-variant:normal;font-weight:normal;font-stretch:normal;font-family:'Fascinate Inline';-inkscape-font-specification:'Fascinate Inline';fill:#ffffff;stroke-width:0.53326249"
             d="m 9.8394654,31.510562 -2.4475913,4.509817 q -0.1562292,0.291628 -0.3749501,0.489518 -0.2187209,0.187475 -0.6040864,0.187475 -0.3541196,0 -0.5936711,-0.19789 -0.2291362,-0.19789 -0.3853654,-0.468688 l -2.58299,-4.43691 q 0.062492,1.406063 0.1145681,2.593405 0.020831,0.510349 0.041661,1.020698 0.02083,0.510349 0.041661,0.947791 0.020831,0.437442 0.031246,0.781146 0.020831,0.333289 0.031246,0.489518 0.010415,0.156229 -0.010415,0.281213 -0.010415,0.124983 -0.072907,0.218721 -0.062492,0.08332 -0.1770598,0.135398 -0.1145681,0.04166 -0.3124584,0.04166 H 1.3926716 q -0.187475,0 -0.3541195,-0.114569 Q 0.88232283,37.863884 0.88232283,37.509764 V 24.261526 q 0,-0.197891 0.0520764,-0.395781 0.0624917,-0.19789 0.19789037,-0.35412 Q 1.2781035,23.344981 1.5072398,23.251243 1.736376,23.14709 2.069665,23.14709 h 3.3537208 q 0.406196,0 0.6978239,0.145814 0.2916279,0.135399 0.4999336,0.458273 l 2.8017108,4.447325 1.8747509,-3.593272 q 0.166644,-0.322874 0.322874,-0.583256 0.156229,-0.270797 0.364535,-0.458272 0.21872,-0.197891 0.531179,-0.302043 Q 12.839067,23.14709 13.339,23.14709 h 2.770465 q 0.395781,0 0.676994,0.104153 0.291627,0.104153 0.468687,0.281213 0.187475,0.17706 0.270798,0.416611 0.08332,0.239552 0.08332,0.520764 v 12.18588 q 0,0.322874 -0.05208,0.593671 -0.05208,0.260382 -0.21872,0.458273 -0.15623,0.187475 -0.458273,0.291628 -0.291628,0.104153 -0.770731,0.104153 H 11.2976 q -0.427027,0 -0.708239,-0.09374 -0.281213,-0.09374 -0.447857,-0.270797 -0.1666449,-0.17706 -0.2395519,-0.447857 -0.062492,-0.270798 -0.062492,-0.635333 z m -3.989053,-7.19696 Q 5.725429,24.105296 5.5691998,24.063635 5.4233858,24.021974 5.2567413,24.021974 H 4.7359772 l 3.7495016,5.957541 0.4270265,-0.801976 z m 10.8735546,0.37495 q 0,-0.229136 -0.03125,-0.364535 -0.03125,-0.135398 -0.124983,-0.19789 -0.09374,-0.07291 -0.249967,-0.08332 -0.156229,-0.02083 -0.406196,-0.02083 v 13.206578 q 0.249967,0 0.406196,-0.01042 0.156229,-0.02083 0.249967,-0.08332 0.09374,-0.07291 0.124983,-0.19789 0.03125,-0.135399 0.03125,-0.37495 z" />
          <path
             inkscape:connector-curvature="0"
             id="path842"
             style="font-style:normal;font-variant:normal;font-weight:normal;font-stretch:normal;font-family:'Fascinate Inline';-inkscape-font-specification:'Fascinate Inline';fill:#ffffff;stroke-width:0.53326249"
             d="m 27.316308,28.375562 v 8.446794 q 1.010282,-0.145814 1.85392,-0.260382 0.35412,-0.05208 0.708239,-0.09374 0.364535,-0.05208 0.666578,-0.09374 0.302043,-0.04166 0.520764,-0.06249 0.218721,-0.02083 0.302044,-0.02083 0.177059,0 0.302043,0.07291 0.124983,0.06249 0.124983,0.270798 v 0.958206 q 0,0.187475 -0.09374,0.354119 -0.09374,0.15623 -0.447858,0.15623 H 21.12963 q -0.489518,0 -0.801976,-0.09374 -0.302044,-0.09374 -0.479103,-0.270797 -0.17706,-0.17706 -0.239552,-0.447857 -0.06249,-0.270798 -0.06249,-0.635333 V 24.95935 q 0,-0.593672 0.135399,-0.947791 0.135399,-0.364535 0.385366,-0.55201 0.249966,-0.19789 0.593671,-0.249967 0.354119,-0.06249 0.781146,-0.06249 h 9.415415 q 0.354119,0 0.447857,0.166645 0.104153,0.156229 0.104153,0.35412 v 0.739485 q 0,0.208305 -0.114568,0.281212 -0.104153,0.06249 -0.281213,0.06249 -0.104153,0 -0.322874,-0.02083 -0.208305,-0.02083 -0.489518,-0.05208 -0.281213,-0.04166 -0.604086,-0.08332 -0.322874,-0.04166 -0.645748,-0.09374 -0.7499,-0.114568 -1.635199,-0.260382 v 2.645482 h 3.874485 q 0.218721,0 0.218721,0.218721 v 1.041528 q 0,0.229136 -0.218721,0.229136 z m -0.885299,-4.280681 -0.812392,-0.114568 v 13.071179 l 0.812392,-0.104153 z" />
          <path
             inkscape:connector-curvature="0"
             id="path844"
             style="font-style:normal;font-variant:normal;font-weight:normal;font-stretch:normal;font-family:'Fascinate Inline';-inkscape-font-specification:'Fascinate Inline';fill:#ffffff;stroke-width:0.53326249"
             d="m 33.169695,24.60523 q 0,-0.364535 0.06249,-0.635332 0.06249,-0.270798 0.239552,-0.447857 0.177059,-0.187476 0.489518,-0.281213 0.312458,-0.09374 0.812392,-0.09374 H 39.7834 q 0.781146,0 1.551877,0.114569 0.77073,0.104152 1.468554,0.385365 0.697824,0.281213 1.291495,0.781146 0.604087,0.489518 1.041529,1.270665 0.437441,0.781146 0.687408,1.87475 0.249967,1.093605 0.249967,2.572575 0,1.739352 -0.270797,3.010017 -0.260382,1.260249 -0.718655,2.145548 -0.447857,0.885299 -1.072774,1.437309 -0.614502,0.541594 -1.333156,0.854053 -0.708239,0.302043 -1.47897,0.406196 -0.760316,0.104153 -1.520631,0.104153 h -4.905598 q -0.499934,0 -0.812392,-0.09374 -0.312459,-0.09374 -0.489518,-0.270797 -0.17706,-0.17706 -0.239552,-0.447857 -0.06249,-0.270798 -0.06249,-0.635333 z m 11.43598,5.759651 q 0,-1.291495 -0.208305,-2.353854 -0.208306,-1.062359 -0.656163,-1.812259 -0.447857,-0.7499 -1.145681,-1.166512 -0.687409,-0.416611 -1.65603,-0.427026 v 12.050481 q 0.968621,-0.01041 1.666445,-0.499933 0.697824,-0.499934 1.135266,-1.353987 0.447857,-0.854053 0.656163,-1.989319 0.208305,-1.145681 0.208305,-2.447591 z m -4.551478,-5.780482 h -0.812392 v 12.081728 h 0.812392 z" />
          <path
             inkscape:connector-curvature="0"
             id="path846"
             style="font-style:normal;font-variant:normal;font-weight:normal;font-stretch:normal;font-family:'Fascinate Inline';-inkscape-font-specification:'Fascinate Inline';fill:#ffffff;stroke-width:0.53326249"
             d="m 47.667769,24.60523 q 0,-0.364535 0.06249,-0.635332 0.06249,-0.270798 0.239551,-0.447857 0.17706,-0.187476 0.489518,-0.281213 0.312459,-0.09374 0.812392,-0.09374 h 4.645216 q 0.604087,0 0.916545,0.17706 0.322874,0.17706 0.447857,0.447857 0.135399,0.260382 0.145814,0.562426 0.01042,0.291627 0.01042,0.541594 V 36.41616 q 0,0.239551 -0.04166,0.531179 -0.04166,0.291628 -0.208305,0.55201 -0.166645,0.249967 -0.510349,0.427027 -0.343704,0.17706 -0.947791,0.17706 h -4.457741 q -0.499933,0 -0.812392,-0.09374 -0.312458,-0.09374 -0.489518,-0.270797 -0.17706,-0.17706 -0.239551,-0.447857 -0.06249,-0.270798 -0.06249,-0.635333 z m 6.884501,0.08332 q 0,-0.229136 -0.03124,-0.364535 -0.03125,-0.135398 -0.124984,-0.19789 -0.09374,-0.07291 -0.249967,-0.08332 -0.156229,-0.02083 -0.406196,-0.02083 v 13.206578 q 0.249967,0 0.406196,-0.01042 0.15623,-0.02083 0.249967,-0.08332 0.09374,-0.07291 0.124984,-0.19789 0.03124,-0.135399 0.03124,-0.37495 z" />
          <path
             inkscape:connector-curvature="0"
             id="path848"
             style="font-style:normal;font-variant:normal;font-weight:normal;font-stretch:normal;font-family:'Fascinate Inline';-inkscape-font-specification:'Fascinate Inline';fill:#ffffff;stroke-width:0.53326249"
             d="m 63.478167,23.14709 q 0.187475,0 0.322874,0.05208 0.135398,0.04166 0.239551,0.156229 0.114568,0.114568 0.208306,0.302043 0.09374,0.187475 0.19789,0.458273 l 4.780615,12.769136 q 0.05208,0.145813 0.07291,0.260382 0.02083,0.114568 0.02083,0.229136 0,0.37495 -0.229136,0.55201 -0.218721,0.17706 -0.468688,0.17706 h -5.905465 q -0.270797,0 -0.458272,-0.06249 -0.17706,-0.07291 -0.302043,-0.166645 -0.124984,-0.09374 -0.197891,-0.19789 -0.06249,-0.104153 -0.08332,-0.187475 L 61.56176,37.124404 h -2.926694 l -0.07291,0.312458 q -0.03125,0.15623 -0.07291,0.281213 -0.04166,0.114568 -0.104153,0.208306 -0.06249,0.08332 -0.17706,0.135398 -0.104153,0.04166 -0.281212,0.04166 h -1.072774 q -0.333289,0 -0.333289,-0.260383 0,-0.09374 0.03124,-0.21872 0.04166,-0.135399 0.104153,-0.312459 l 4.353588,-13.175332 q 0.156229,-0.489518 0.35412,-0.72907 0.19789,-0.239551 0.562425,-0.260382 z m -4.520232,12.696229 h 2.2497 l -1.156096,-4.072375 z m 4.6348,-11.488056 q -0.08332,-0.218721 -0.208306,-0.270797 -0.114568,-0.06249 -0.406196,-0.06249 h -0.364534 l 4.926428,13.206578 h 0.499934 q 0.187475,0 0.249966,-0.07291 0.07291,-0.08332 -0.01041,-0.291628 z" />
          <path
             inkscape:connector-curvature="0"
             id="path850"
             style="font-style:normal;font-variant:normal;font-weight:normal;font-stretch:normal;font-family:'Fascinate Inline';-inkscape-font-specification:'Fascinate Inline';fill:#ffffff;stroke-width:0.53326249"
             d="m 76.039001,36.676542 q 0,-0.135399 0.04166,-0.166645 0.04166,-0.04166 0.104153,-0.04166 0.124983,0 0.39578,0.09374 0.281213,0.09374 0.739485,0.09374 1.301911,0 1.301911,-1.614368 V 24.594815 q 0,-0.239552 0.03125,-0.489519 0.04166,-0.260382 0.187475,-0.468687 0.15623,-0.218721 0.458273,-0.35412 0.302043,-0.135399 0.843638,-0.135399 h 4.645216 q 0.499933,0 0.812392,0.09374 0.312458,0.09374 0.489518,0.281213 0.17706,0.177059 0.239551,0.447857 0.06249,0.270797 0.06249,0.635332 v 8.259319 q 0,1.249833 -0.281213,2.166378 -0.281212,0.90613 -0.760315,1.531047 -0.468688,0.624917 -1.093605,1.010282 -0.624917,0.385366 -1.30191,0.593671 -0.676993,0.208306 -1.374817,0.270798 -0.687409,0.07291 -1.301911,0.07291 -1.385232,0 -2.395514,-0.187476 -0.999868,-0.177059 -1.65603,-0.510348 -0.05208,-0.02083 -0.124984,-0.08332 -0.06249,-0.07291 -0.06249,-0.249966 z m 9.467491,-11.98799 q 0,-0.229136 -0.03125,-0.364535 -0.03125,-0.135398 -0.124983,-0.19789 -0.09374,-0.07291 -0.249967,-0.08332 -0.156229,-0.02083 -0.406196,-0.02083 v 8.977973 q 0,0.489519 -0.02083,0.937376 -0.01042,0.447857 -0.07291,0.895714 -0.05208,0.437442 -0.177059,0.885299 -0.124984,0.437442 -0.343705,0.906129 0.395781,-0.333289 0.666578,-0.718654 0.270798,-0.395781 0.437442,-0.864468 0.17706,-0.479103 0.249967,-1.062359 0.07291,-0.593671 0.07291,-1.322741 z" />
          <path
             inkscape:connector-curvature="0"
             id="path852"
             style="font-style:normal;font-variant:normal;font-weight:normal;font-stretch:normal;font-family:'Fascinate Inline';-inkscape-font-specification:'Fascinate Inline';fill:#ffffff;stroke-width:0.53326249"
             d="m 94.942736,38.509632 q -0.833223,0 -1.676861,-0.145814 -0.833222,-0.145814 -1.603953,-0.499934 -0.770731,-0.35412 -1.437309,-0.937375 -0.666578,-0.593671 -1.166512,-1.468555 -0.489518,-0.885299 -0.770731,-2.083057 -0.281212,-1.208172 -0.281212,-2.80171 0,-1.583123 0.281212,-2.791296 0.281213,-1.208173 0.770731,-2.083056 0.499934,-0.885299 1.166512,-1.468555 0.666578,-0.583256 1.437309,-0.92696 0.770731,-0.35412 1.603953,-0.499934 0.843638,-0.145814 1.676861,-0.145814 0.833222,0 1.67686,0.145814 0.843638,0.145814 1.614369,0.499934 0.770731,0.343704 1.437309,0.92696 0.666576,0.583256 1.156096,1.468555 0.48952,0.874883 0.77073,2.083056 0.28121,1.208173 0.28121,2.791296 0,1.583122 -0.28121,2.791295 -0.28121,1.208173 -0.77073,2.093472 -0.48952,0.874884 -1.156096,1.468555 -0.666578,0.583255 -1.437309,0.937375 -0.770731,0.35412 -1.614369,0.499934 -0.843638,0.145814 -1.67686,0.145814 z m 0.937375,-7.936445 q 0,1.30191 0.187475,2.176794 0.19789,0.874883 0.520764,1.406063 0.322874,0.531179 0.718655,0.760315 0.406196,0.218721 0.833222,0.218721 0.427027,0 0.833223,-0.218721 0.406196,-0.229136 0.718654,-0.760315 0.322876,-0.53118 0.510346,-1.406063 0.19789,-0.874884 0.19789,-2.176794 0,-1.301911 -0.19789,-2.176794 -0.18747,-0.874884 -0.510346,-1.406063 -0.312458,-0.53118 -0.718654,-0.749901 -0.406196,-0.229136 -0.833223,-0.229136 -0.427026,0 -0.833222,0.229136 -0.395781,0.218721 -0.718655,0.749901 -0.322874,0.531179 -0.520764,1.406063 -0.187475,0.874883 -0.187475,2.176794 z m -0.885299,0 q 0,-1.301911 0.208306,-2.249701 0.218721,-0.947791 0.55201,-1.572708 0.333289,-0.624917 0.7499,-0.947791 0.427027,-0.333289 0.854053,-0.416611 -0.614502,0.03125 -1.197757,0.322874 -0.583256,0.291628 -1.041529,0.906129 -0.447857,0.614502 -0.718654,1.593539 -0.270797,0.968621 -0.270797,2.364269 0,1.395647 0.270797,2.374684 0.270797,0.968621 0.718654,1.583123 0.458273,0.614501 1.041529,0.906129 0.583255,0.291628 1.197757,0.322874 -0.427026,-0.07291 -0.854053,-0.406196 -0.416611,-0.333289 -0.7499,-0.958206 -0.333289,-0.624917 -0.55201,-1.572708 -0.208306,-0.94779 -0.208306,-2.2497 z" />
          <path
             inkscape:connector-curvature="0"
             id="path854"
             style="font-style:normal;font-variant:normal;font-weight:normal;font-stretch:normal;font-family:'Fascinate Inline';-inkscape-font-specification:'Fascinate Inline';fill:#ffffff;stroke-width:0.53326249"
             d="m 111.04476,30.583602 q 0,1.28108 0.10415,2.218455 0.10416,0.92696 0.2708,1.583123 0.17706,0.645747 0.4062,1.051943 0.23955,0.395781 0.48952,0.624917 0.24996,0.218721 0.49993,0.302043 0.26038,0.07291 0.48952,0.07291 0.26038,0 0.46868,-0.06249 0.20831,-0.07291 0.37496,-0.15623 0.16664,-0.09374 0.27079,-0.156229 0.11457,-0.07291 0.17706,-0.07291 0.0833,0 0.14582,0.09374 l 0.44785,0.708239 q 0.0312,0.06249 0.0312,0.104153 0,0.05208 -0.0417,0.09374 -0.0417,0.03125 -0.0729,0.06249 -0.32287,0.249967 -0.82281,0.510349 -0.49993,0.260382 -1.14568,0.468688 -0.63533,0.208305 -1.40606,0.343704 -0.77073,0.135399 -1.62478,0.135399 -0.78115,0 -1.60396,-0.15623 -0.81239,-0.145814 -1.58312,-0.499933 -0.77073,-0.364535 -1.45814,-0.958206 -0.67699,-0.593671 -1.18734,-1.468555 -0.51035,-0.885299 -0.81239,-2.072641 -0.29163,-1.197758 -0.29163,-2.770465 0,-1.572708 0.29163,-2.76005 0.30204,-1.197757 0.81239,-2.072641 0.51035,-0.885299 1.18734,-1.47897 0.68741,-0.593671 1.45814,-0.947791 0.77073,-0.364535 1.58312,-0.510349 0.82281,-0.156229 1.60396,-0.156229 0.85405,0 1.62478,0.135399 0.77073,0.135398 1.40606,0.343704 0.64575,0.208306 1.14568,0.468688 0.49994,0.260382 0.82281,0.510349 0.0312,0.03125 0.0729,0.07291 0.0417,0.03125 0.0417,0.08332 0,0.04166 -0.0312,0.104153 l -0.44785,0.708239 q -0.0625,0.09374 -0.14582,0.09374 -0.0625,0 -0.17706,-0.06249 -0.10415,-0.07291 -0.27079,-0.156229 -0.16665,-0.09374 -0.37496,-0.15623 -0.2083,-0.07291 -0.46868,-0.07291 -0.22914,0 -0.48952,0.08332 -0.24997,0.07291 -0.49993,0.302043 -0.24997,0.218721 -0.48952,0.624917 -0.22914,0.39578 -0.4062,1.051943 -0.16664,0.645748 -0.2708,1.583123 -0.10415,0.92696 -0.10415,2.20804 z m -1.76018,0 q 0,1.291495 0.11457,2.239285 0.12498,0.947791 0.33329,1.6352 0.21872,0.676993 0.49993,1.12485 0.29163,0.447857 0.6145,0.739485 0.33329,0.281213 0.67699,0.437442 0.35412,0.145814 0.69783,0.229136 -0.11457,-0.07291 -0.31246,-0.19789 -0.19789,-0.135399 -0.43744,-0.395781 -0.22914,-0.270797 -0.46869,-0.708239 -0.22914,-0.447857 -0.42703,-1.135266 -0.18747,-0.687408 -0.31246,-1.65603 -0.11456,-0.979036 -0.11456,-2.312192 0,-1.333156 0.11456,-2.301778 0.12499,-0.979036 0.31246,-1.666445 0.19789,-0.687408 0.42703,-1.12485 0.23955,-0.447857 0.46869,-0.708239 0.23955,-0.270798 0.43744,-0.395781 0.19789,-0.135399 0.31246,-0.208306 -0.34371,0.09374 -0.69783,0.239552 -0.3437,0.145814 -0.67699,0.437442 -0.32287,0.281212 -0.6145,0.729069 -0.28121,0.447858 -0.49993,1.135266 -0.20831,0.676994 -0.33329,1.624784 -0.11457,0.947791 -0.11457,2.239286 z" />
          <path
             inkscape:connector-curvature="0"
             id="path856"
             style="font-style:normal;font-variant:normal;font-weight:normal;font-stretch:normal;font-family:'Fascinate Inline';-inkscape-font-specification:'Fascinate Inline';fill:#ffffff;stroke-width:0.53326249"
             d="m 116.49195,24.60523 q 0,-0.364535 0.0625,-0.635332 0.0625,-0.270798 0.23955,-0.447857 0.17706,-0.187476 0.48952,-0.281213 0.31246,-0.09374 0.81239,-0.09374 h 4.64522 q 0.54159,0 0.84364,0.145814 0.30204,0.135399 0.44785,0.35412 0.15623,0.218721 0.18748,0.489518 0.0417,0.260382 0.0417,0.499934 v 1.229003 l 2.60382,-2.530914 q 0.14581,-0.145813 0.26038,-0.21872 0.11457,-0.08332 0.22914,-0.08332 0.10415,0 0.17706,0.05208 0.0833,0.05208 0.17706,0.145814 l 0.58325,0.614501 q 0.0729,0.08332 0.11457,0.15623 0.0417,0.06249 0.0417,0.145814 0,0.208305 -0.24996,0.406196 l -3.18708,2.489252 q 1.47897,0.135399 2.15596,0.854053 0.677,0.718655 0.677,2.062226 v 7.655232 q 0,0.17706 -0.0521,0.281213 -0.0417,0.09374 -0.11457,0.145814 -0.0625,0.04166 -0.15623,0.05208 -0.0937,0.01042 -0.18747,0.01042 h -0.87489 q -0.27079,0 -0.35412,-0.15623 -0.0729,-0.156229 -0.0729,-0.333289 v -7.7698 q 0,-0.479103 -0.0937,-0.791562 -0.0833,-0.312458 -0.29163,-0.499933 -0.2083,-0.197891 -0.55201,-0.281213 -0.33329,-0.09374 -0.83322,-0.114568 v 8.259319 q 0,0.239551 -0.0417,0.531179 -0.0417,0.291628 -0.20831,0.55201 -0.16664,0.249967 -0.51035,0.427027 -0.3437,0.17706 -0.94779,0.17706 h -4.45774 q -0.49993,0 -0.81239,-0.09374 -0.31246,-0.09374 -0.48952,-0.270797 -0.17706,-0.17706 -0.23955,-0.447857 -0.0625,-0.270798 -0.0625,-0.635333 z m 6.8845,0.08332 q 0,-0.229136 -0.0312,-0.364535 -0.0312,-0.135398 -0.12499,-0.19789 -0.0937,-0.07291 -0.24996,-0.08332 -0.15623,-0.02083 -0.4062,-0.02083 v 13.206578 q 0.24997,0 0.4062,-0.01042 0.15622,-0.02083 0.24996,-0.08332 0.0937,-0.07291 0.12499,-0.19789 0.0312,-0.135399 0.0312,-0.37495 z" />
          <path
             inkscape:connector-curvature="0"
             id="path858"
             style="font-style:normal;font-variant:normal;font-weight:normal;font-stretch:normal;font-family:'Fascinate Inline';-inkscape-font-specification:'Fascinate Inline';fill:#ffffff;stroke-width:0.53326249"
             d="m 137.42667,28.375562 v 8.446794 q 1.01029,-0.145814 1.85392,-0.260382 0.35412,-0.05208 0.70824,-0.09374 0.36454,-0.05208 0.66658,-0.09374 0.30205,-0.04166 0.52077,-0.06249 0.21872,-0.02083 0.30204,-0.02083 0.17706,0 0.30204,0.07291 0.12499,0.06249 0.12499,0.270798 v 0.958206 q 0,0.187475 -0.0937,0.354119 -0.0937,0.15623 -0.44786,0.15623 H 131.24 q -0.48952,0 -0.80198,-0.09374 -0.30204,-0.09374 -0.4791,-0.270797 -0.17706,-0.17706 -0.23955,-0.447857 -0.0625,-0.270798 -0.0625,-0.635333 V 24.95935 q 0,-0.593672 0.1354,-0.947791 0.1354,-0.364535 0.38537,-0.55201 0.24997,-0.19789 0.59367,-0.249967 0.35412,-0.06249 0.78115,-0.06249 h 9.41541 q 0.35412,0 0.44786,0.166645 0.10415,0.156229 0.10415,0.35412 v 0.739485 q 0,0.208305 -0.11457,0.281212 -0.10415,0.06249 -0.28121,0.06249 -0.10415,0 -0.32287,-0.02083 -0.20831,-0.02083 -0.48952,-0.05208 -0.28121,-0.04166 -0.60409,-0.08332 -0.32287,-0.04166 -0.64575,-0.09374 -0.7499,-0.114568 -1.6352,-0.260382 v 2.645482 h 3.87449 q 0.21872,0 0.21872,0.218721 v 1.041528 q 0,0.229136 -0.21872,0.229136 z m -0.88529,-4.280681 -0.8124,-0.114568 v 13.071179 l 0.8124,-0.104153 z" />
          <path
             inkscape:connector-curvature="0"
             id="path860"
             style="font-style:normal;font-variant:normal;font-weight:normal;font-stretch:normal;font-family:'Fascinate Inline';-inkscape-font-specification:'Fascinate Inline';fill:#ffffff;stroke-width:0.53326249"
             d="m 145.07149,30.187821 -2.64548,-5.822143 q -0.0625,-0.145814 -0.0833,-0.260382 -0.0208,-0.114568 -0.0208,-0.229136 0,-0.364535 0.22914,-0.541595 0.22913,-0.187475 0.4791,-0.187475 h 5.68675 q 0.26038,0 0.44785,0.07291 0.18748,0.06249 0.31246,0.15623 0.12498,0.09374 0.18748,0.208305 0.0729,0.104153 0.10415,0.187475 l 1.83309,5.030582 1.66644,-4.801445 q 0.0625,-0.17706 0.11457,-0.333289 0.0625,-0.15623 0.1354,-0.270798 0.0833,-0.114568 0.19789,-0.17706 0.11457,-0.07291 0.30204,-0.07291 h 0.95821 q 0.14581,0 0.24997,0.06249 0.10415,0.06249 0.10415,0.208306 0,0.19789 -0.12498,0.520764 l -2.36427,6.020033 v 6.686611 q 0,0.364535 -0.0729,0.635332 -0.0729,0.270798 -0.24997,0.458273 -0.16664,0.177059 -0.45827,0.270797 -0.28121,0.09374 -0.71865,0.09374 h -4.91602 q -0.40619,0 -0.66657,-0.09374 -0.26039,-0.09374 -0.41662,-0.270797 -0.14581,-0.17706 -0.2083,-0.447857 -0.0625,-0.270798 -0.0625,-0.635333 z m 6.07211,7.040731 q 0.24996,0 0.40619,-0.01042 0.15623,-0.02083 0.24997,-0.08332 0.0937,-0.07291 0.12498,-0.19789 0.0312,-0.135399 0.0312,-0.37495 v -4.291096 l -2.90587,-7.92603 q -0.0625,-0.17706 -0.17706,-0.249967 -0.10415,-0.07291 -0.28121,-0.07291 h -0.49993 l 3.05168,8.332226 z" />
        </g>
      </g>
    </g>
  </g>
</svg>
