<?xml version="1.0" encoding="UTF-8" standalone="no"?>
<svg
   xmlns:dc="http://purl.org/dc/elements/1.1/"
   xmlns:cc="http://creativecommons.org/ns#"
   xmlns:rdf="http://www.w3.org/1999/02/22-rdf-syntax-ns#"
   xmlns:svg="http://www.w3.org/2000/svg"
   xmlns="http://www.w3.org/2000/svg"
   xmlns:sodipodi="http://sodipodi.sourceforge.net/DTD/sodipodi-0.dtd"
   xmlns:inkscape="http://www.inkscape.org/namespaces/inkscape"
   id="bdc9873c-1fd3-471e-a0c2-9fe0be805663"
   data-name="Layer 1"
   width="990.16984"
   height="637.66844"
   viewBox="0 0 990.16984 637.66844"
   version="1.1"
   sodipodi:docname="undraw_problem_solving_ft81.svg"
   inkscape:version="0.92.3 (2405546, 2018-03-11)">
  <metadata
     id="metadata103">
    <rdf:RDF>
      <cc:Work
         rdf:about="">
        <dc:format>image/svg+xml</dc:format>
        <dc:type
           rdf:resource="http://purl.org/dc/dcmitype/StillImage" />
      </cc:Work>
    </rdf:RDF>
  </metadata>
  <defs
     id="defs101" />
  <sodipodi:namedview
     pagecolor="#ffffff"
     bordercolor="#666666"
     borderopacity="1"
     objecttolerance="10"
     gridtolerance="10"
     guidetolerance="10"
     inkscape:pageopacity="0"
     inkscape:pageshadow="2"
     inkscape:window-width="1299"
     inkscape:window-height="713"
     id="namedview99"
     showgrid="false"
     inkscape:zoom="0.34539528"
     inkscape:cx="378.89868"
     inkscape:cy="318.83423"
     inkscape:window-x="67"
     inkscape:window-y="27"
     inkscape:window-maximized="1"
     inkscape:current-layer="bdc9873c-1fd3-471e-a0c2-9fe0be805663" />
  <title
     id="title2">problem solving</title>
  <line
     x1="555.5"
     y1="637"
     x2="967.5"
     y2="637"
     fill="none"
     stroke="#3f3d56"
     stroke-miterlimit="10"
     id="line30" />
  <rect
     x="264.55575"
     y="161.33009"
     width="260.02832"
     height="129.16991"
     rx="13.52362"
     fill="#f2f2f2"
     id="rect78" />
  <g
     id="g900"
     inkscape:export-xdpi="96"
     inkscape:export-ydpi="96"
     transform="matrix(26.921678,0,0,12.805656,193.8331,-1400.303)">
    <rect
       y="122.60723"
       x="3.3814371"
       height="8.4162455"
       width="1.2006354"
       id="rect815"
       style="opacity:1;fill:#800080;fill-opacity:1;stroke:#800080;stroke-width:0.05038176;stroke-miterlimit:4;stroke-dasharray:none;stroke-opacity:1"
       ry="0.60031772" />
    <rect
       y="127.60843"
       x="4.5782003"
       height="3.4189975"
       width="1.2136019"
       id="rect815-3"
       style="opacity:1;fill:#0000ff;fill-opacity:1;stroke:#0000ff;stroke-width:0.03228465;stroke-miterlimit:4;stroke-dasharray:none;stroke-opacity:1"
       ry="0.60680097" />
    <rect
       y="125.71304"
       x="5.7879291"
       height="5.310431"
       width="1.2045379"
       id="rect815-6"
       style="opacity:1;fill:#00ffff;fill-opacity:1;stroke:#00ffff;stroke-width:0.04008516;stroke-miterlimit:4;stroke-dasharray:none;stroke-opacity:1"
       ry="0.60226893" />
    <rect
       y="122.8298"
       x="8.194459"
       height="8.1936617"
       width="1.2006356"
       id="rect815-5"
       style="opacity:1;fill:#ffff00;fill-opacity:1;stroke:#ffff00;stroke-width:0.04971107;stroke-miterlimit:4;stroke-dasharray:none;stroke-opacity:1"
       ry="0.60031778" />
    <rect
       y="124.18867"
       x="9.3954678"
       height="6.8359232"
       width="1.2027403"
       id="rect815-35"
       style="opacity:1;fill:#ff6600;fill-opacity:1;stroke:#ff6600;stroke-width:0.04544572;stroke-miterlimit:4;stroke-dasharray:none;stroke-opacity:1"
       ry="0.60137016" />
    <rect
       y="122.60723"
       x="10.597086"
       height="8.4162455"
       width="1.2006356"
       id="rect815-62"
       style="opacity:1;fill:#ff0000;fill-opacity:1;stroke:#ff0000;stroke-width:0.05038176;stroke-miterlimit:4;stroke-dasharray:none;stroke-opacity:1"
       ry="0.60031778" />
    <rect
       y="124.18867"
       x="6.9913445"
       height="6.8359232"
       width="1.2027403"
       id="rect815-35-9"
       style="opacity:1;fill:#008000;fill-opacity:1;stroke:#008000;stroke-width:0.04544572;stroke-miterlimit:4;stroke-dasharray:none;stroke-opacity:1"
       ry="0.60137016" />
  </g>
  <circle
     cx="17"
     cy="23.5"
     r="17"
     fill="#2e86f8"
     id="circle80" />
  <circle
     cx="22"
     cy="17.5"
     r="17"
     fill="none"
     stroke="#3f3d56"
     stroke-miterlimit="10"
     id="circle82" />
  <circle
     cx="224"
     cy="237.5"
     r="17"
     fill="#f2f2f2"
     id="circle84" />
  <circle
     cx="229"
     cy="231.5"
     r="17"
     fill="none"
     stroke="#3f3d56"
     stroke-miterlimit="10"
     id="circle86" />
  <circle
     cx="356"
     cy="108.5"
     r="17"
     fill="#2e86f8"
     id="circle88" />
  <circle
     cx="361"
     cy="102.5"
     r="17"
     fill="none"
     stroke="#3f3d56"
     stroke-miterlimit="10"
     id="circle90" />
  <rect
     x="38.71947"
     y="62.97522"
     width="260.02832"
     height="129.16991"
     rx="13.52362"
     fill="#2e86f8"
     id="rect92" />
  <rect
     x="53.91593"
     y="52"
     width="260.02832"
     height="129.16991"
     rx="13.52362"
     fill="none"
     stroke="#3f3d56"
     stroke-miterlimit="10"
     id="rect94" />
  <rect
     x="279.75221"
     y="150.35487"
     width="260.02832"
     height="129.16991"
     rx="13.52362"
     fill="none"
     stroke="#3f3d56"
     stroke-miterlimit="10"
     id="rect96" />
  <text
     xml:space="preserve"
     style="font-style:normal;font-weight:normal;font-size:66.45762634px;line-height:1.25;font-family:sans-serif;letter-spacing:0px;word-spacing:0px;fill:#000000;fill-opacity:1;stroke:none;stroke-width:1.66144073"
     x="30.978201"
     y="391.27667"
     id="text932"
     transform="scale(0.99843525,1.0015672)"><tspan
       sodipodi:role="line"
       id="tspan930"
       x="30.978201"
       y="391.27667"
       style="font-style:normal;font-variant:normal;font-weight:normal;font-stretch:normal;font-family:'Fascinate Inline';-inkscape-font-specification:'Fascinate Inline';stroke-width:1.66144073">MEDIA JOCKEY</tspan></text>
  <path
     inkscape:connector-curvature="0"
     style="fill:#000080;stroke-width:1.02004015"
     d="m 685.83755,595.79672 c 0.375,-0.574 -0.566,-2.135 -2.09,-3.471 -3.403,-2.981 -5.812,-8.21 -5.812,-12.617 0,-1.974 -1.059,-4.668 -2.623,-6.671 -1.443,-1.849 -2.623,-3.847 -2.623,-4.442 0,-0.594 2.543,-3.455 5.651,-6.356 4.54,-4.238 6.101,-5.14 7.941,-4.588 2.736,0.82 6.333,6.052 6.338,9.218 0.011,5.211 5.395,3.07 6.942,-2.758 0.362,-1.364 1.198,-2.926 1.858,-3.471 1.982,-1.638 4.843,-6.275 4.843,-7.85 0,-0.81 0.601,-1.83 1.337,-2.266 2.347,-1.393 5.164,-6.388 4.65,-8.247 -0.32,-1.154 0.177,-1.963 1.389,-2.263 2.253,-0.557 5.597,-6.256 4.809,-8.196 -0.711,-1.753 -10.066,-7.333 -12.335,-7.358 -2.147,-0.023 -2.997,1.983 -2.997,7.072 0,4.45 -0.541,4.497 -8.951,0.768 -2.948,-1.307 -6.444,-1.855 -11.54,-1.81 -13.425,0.119 -15.76,0.387 -18.59,2.133 -1.546,0.955 -3.436,1.736 -4.199,1.736 -0.764,0 -3.713,2.231 -6.555,4.959 -5.777,5.544 -7.533,6.073 -8.468,2.552 -0.952,-3.585 -4.365,-6.181 -6.474,-4.924 -4.532,2.703 -4.181,4.07 2.735,10.666 5.872,5.601 6.511,6.581 5.479,8.403 -0.953,1.683 -0.822,2.237 0.709,3.012 1.216,0.615 2.554,0.59 3.803,-0.07 1.616,-0.855 3.107,0.076 9.269,5.787 10.033,9.297 13.405,13.8 13.405,17.895 0,3.775 2.373,9.762 4.924,12.428 1.862,1.945 6.098,2.375 7.175,0.729 z m -16.295,-42.098 c 2.548,-2.455 4.803,-4.463 5.01,-4.463 0.207,0 -1.365,2.008 -3.493,4.463 -2.127,2.454 -4.382,4.463 -5.01,4.463 -0.627,0 0.944,-2.009 3.493,-4.463 z m 15.212,-3.471 c -0.356,-0.546 -0.148,-0.992 0.463,-0.992 0.611,0 1.111,0.446 1.111,0.992 0,0.545 -0.208,0.991 -0.463,0.991 -0.254,0 -0.754,-0.446 -1.111,-0.991 z m -28.851,0.096 c 0,-1.606 8.985,-10.323 10.22,-9.915 0.677,0.224 -0.875,2.67 -3.555,5.604 -4.5,4.926 -6.665,6.327 -6.665,4.311 z m 38.596,-6.398 c -1.551,-1.467 -6.611,-2.69 -12.367,-2.99 -2.02,-0.106 -4.253,-0.533 -4.962,-0.95 -0.71,-0.418 -2.213,-0.292 -3.341,0.278 -4.21,2.13 -6.034,0.563 -2.07,-1.777 3.08,-1.818 11.177,-2.13 12.621,-0.485 0.636,0.724 2.7,1.317 4.587,1.317 1.999,0 3.671,0.588 4.004,1.41 0.315,0.776 1.627,1.557 2.915,1.736 2.652,0.368 4.059,2.804 1.621,2.804 -0.873,0 -2.226,-0.605 -3.008,-1.343 z m -5.536,45.953 c 0.401,-0.613 0.417,-3.079 0.036,-5.48 -0.514,-3.237 -1.465,-4.884 -3.68,-6.375 -1.643,-1.106 -3.268,-2.011 -3.612,-2.011 -1.177,0 -0.626,3.524 0.866,5.538 0.82,1.107 1.904,3.519 2.409,5.36 0.964,3.517 2.75,4.849 3.98,2.968 z m 109.983,-11.592 c 1.805,-0.44 1.784,-0.57 -0.304,-1.953 -1.512,-1.001 -2.031,-2.099 -1.599,-3.385 0.659,-1.962 0.26,-2.226 -5.013,-3.318 l -2.885,-0.598 0.157,-12.626 c 0.086,-6.944 0.354,-11.398 0.594,-9.898 0.533,3.326 3.938,5.39 6.097,3.697 1.11,-0.872 1.413,-3.603 1.244,-11.226 l -0.224,-10.075 -6.294,0.338 c -3.614,0.193 -6.966,0.947 -7.869,1.768 -1.281,1.166 -1.633,5.366 -1.893,22.594 l -0.319,21.162 5.984,0.469 c 3.912,0.306 6.425,1.037 7.255,2.111 1.299,1.68 1.717,1.757 5.069,0.94 z m -9.801,-36.489 c 0,-0.818 0.457,-1.488 1.016,-1.488 0.559,0 0.745,0.67 0.412,1.488 -0.332,0.818 -0.789,1.488 -1.016,1.488 -0.227,0 -0.412,-0.67 -0.412,-1.488 z m 41.021,33.275 c 14.417,-0.405 19.972,-0.907 21.266,-1.925 1.552,-1.22 1.72,-3.762 1.469,-22.314 l -0.283,-20.937 -17.27,-0.273 c -9.499,-0.151 -17.916,-0.04 -18.705,0.246 -2.073,0.752 4.229,6.473 7.131,6.473 3.007,0 2.149,2.261 -1.134,2.989 -1.588,0.352 -2.672,1.392 -2.882,2.765 -0.27,1.767 0.299,2.322 2.885,2.811 4.004,0.757 4.227,3.095 0.337,3.518 -2.535,0.276 -2.885,0.736 -2.885,3.785 0,3.288 0.221,3.503 4.196,4.074 2.937,0.422 3.356,0.646 1.398,0.744 -4.769,0.24 -6.119,1.176 -6.119,4.245 0,3.424 0.601,3.694 9.149,4.112 7.291,0.356 8.547,0.958 6.61,3.165 -0.991,1.128 -3.498,1.511 -9.883,1.511 -6.026,0 -9.242,0.455 -10.875,1.536 -1.276,0.844 -4.095,2.152 -6.266,2.905 -3.816,1.324 -3.842,1.366 -0.8,1.244 1.731,-0.069 11.929,-0.372 22.661,-0.674 z m 10.752,-6.535 c -0.341,-0.839 0.094,-2.289 0.967,-3.223 1.502,-1.609 4.135,-22.885 3.164,-25.577 -0.223,-0.621 -3.111,-1.036 -6.899,-0.992 -8.692,0.102 -9.569,-1.816 -1.006,-2.202 4.639,-0.209 6.557,-0.685 6.557,-1.629 0,-1.819 2.622,-2.638 4.069,-1.271 1.283,1.213 1.728,34.575 0.477,35.757 -1.364,1.29 -6.711,0.66 -7.329,-0.863 z m -8.758,-21.781 c 0,-0.819 0.708,-1.488 1.574,-1.488 1.638,0 2.081,1.173 0.874,2.314 -1.207,1.141 -2.448,0.722 -2.448,-0.826 z m -56.008,12.95 c 1.165,-2.869 -0.096,-5.012 -3.144,-5.342 -3.824,-0.414 -5.294,0.985 -4.435,4.22 0.541,2.035 1.318,2.552 3.838,2.552 1.785,0 3.413,-0.623 3.741,-1.43 z m 20.829,-5.462 c 0.802,-1.227 -1.7,-2.352 -4.158,-1.87 -0.93,0.183 -1.68,0.778 -1.668,1.324 0.032,1.376 4.98,1.84 5.826,0.546 z m -20.638,-11.207 c -0.303,-6.019 -0.401,-6.208 -3.346,-6.526 -3.87,-0.418 -4.799,1.031 -4.819,7.517 l -0.016,5.207 h 4.247 4.246 z m -116.244,-18.684 c 1.742,-1.347 1.919,-1.684 0.525,-1.003 -3.422,1.672 -5.319,3.045 -4.197,3.038 0.577,-0.004 2.23,-0.92 3.672,-2.035 z m 108.738,-4.445 c 23.42,-3.719 51.165,-16.042 67.52,-29.989 l 4.721,-4.027 -7.085,-6.752 c -5.297,-5.048 -7.439,-6.503 -8.49,-5.766 -0.774,0.542 -4.667,3.319 -8.653,6.171 -9.057,6.481 -18.893,11.525 -20.624,10.574 -0.721,-0.397 -3.09,-2.029 -5.266,-3.629 -2.175,-1.599 -4.583,-2.679 -5.35,-2.401 -0.787,0.286 -1.683,2.793 -2.052,5.742 -0.361,2.879 -1.295,5.839 -2.076,6.577 -1.67,1.579 -19.309,5.192 -25.438,5.211 -2.337,0.007 -4.815,0.548 -5.508,1.203 -1.31,1.238 -1.783,14.217 -0.622,17.076 0.787,1.939 6.753,1.942 18.923,0.01 z m -28.653,0.897 c 0.385,-0.363 0.7,-4.576 0.7,-9.361 v -8.699 l -4.984,-0.579 c -9.743,-1.133 -22.413,-3.571 -26.402,-5.08 -4.202,-1.589 -5.334,-3.796 -5.334,-10.396 0,-4.237 -1.605,-4.349 -6.961,-0.483 -2.685,1.938 -5.461,3.524 -6.17,3.524 -1.599,0 -16.245,-8.978 -22.335,-13.692 l -4.516,-3.495 -6.275,5.866 c -4.117,3.849 -6.172,6.531 -5.975,7.8 0.484,3.13 18.137,15.013 31.773,21.389 13.971,6.531 26.448,10.272 41.442,12.425 11.13,1.598 14.015,1.748 15.037,0.781 z m 186.4,-19.774 c 3.56,-1.47 3.608,-1.561 1.573,-3 -1.609,-1.138 -3.691,-1.335 -8.934,-0.847 -6.005,0.558 -7.185,0.376 -9.705,-1.497 -2.137,-1.59 -2.868,-3.007 -2.868,-5.563 0,-4.52 -2.426,-5.385 -5.709,-2.037 -2.933,2.991 -7.551,4.344 -9.929,2.909 -1.172,-0.708 -1.574,-2.163 -1.344,-4.857 0.181,-2.115 0.562,-9.294 0.846,-15.952 0.488,-11.419 0.395,-12.177 -1.641,-13.379 -4.054,-2.393 -1.778,-13.038 4.273,-19.977 8.044,-9.225 23.227,-11.938 34.335,-6.135 6.681,3.49 11.044,8.197 13.237,14.28 2.239,6.212 2.068,10.284 -0.495,11.797 -1.907,1.126 -2.099,2.313 -2.099,13.01 0,14.508 0.94,15.937 7.017,10.673 l 3.999,-3.465 v -17.68 c 0,-16.594 -0.149,-17.944 -2.435,-21.993 -3.708,-6.568 -10.26,-12.701 -16.825,-15.749 -5.137,-2.384 -7.168,-2.747 -15.362,-2.747 -8.194,0 -10.225,0.363 -15.361,2.747 -6.58,3.055 -13.141,9.203 -16.805,15.749 -2.208,3.945 -2.434,5.73 -2.638,20.869 -0.213,15.78 -0.112,16.712 2.169,19.889 1.316,1.833 2.708,5.508 3.094,8.165 1.153,7.955 4.675,10.078 13.018,7.849 4.36,-1.164 4.501,-1.126 6.249,1.672 3.331,5.33 15.333,8.161 22.34,5.269 z m -335.204,-13.609 c 6.087,-2.256 9.594,-4.525 14.036,-9.08 5.818,-5.966 7.603,-10.201 7.603,-18.039 0,-23.806 -30.008,-34.827 -47.799,-17.555 -8.109,7.872 -12.083,20.76 -9.066,29.4 1.698,4.865 9.095,12.535 14.202,14.728 4.879,2.095 16.06,2.385 21.024,0.546 z m -13.074,-14.035 c -1.651,-0.807 -3.949,-2.605 -5.105,-3.994 -1.763,-2.119 -2.837,-2.483 -6.65,-2.252 -3.928,0.238 -4.547,0.008 -4.547,-1.684 0,-1.299 1.06,-2.288 3.147,-2.935 1.731,-0.537 3.308,-1.071 3.503,-1.187 0.196,-0.115 0.804,-2.097 1.352,-4.403 1.296,-5.452 4.199,-9.21 8.66,-11.211 14.186,-6.364 28.944,7.914 21.892,21.18 -3.785,7.123 -14.538,10.257 -22.252,6.486 z m 11.281,-0.583 c 11.999,-2.401 14.64,-18.446 4.055,-24.63 -6.487,-3.79 -15.658,-1.891 -19.609,4.059 -3.279,4.939 -2.439,12.806 1.794,16.808 3.572,3.376 8.695,4.777 13.76,3.763 z m 346.177,12.303 c 0.963,-0.367 1.311,-4.263 1.311,-14.676 0,-11.725 -0.287,-14.402 -1.661,-15.48 -2.628,-2.061 -5.106,0.1 -5.475,4.774 -0.271,3.419 -0.618,3.934 -2.361,3.503 -2.281,-0.564 -2.352,-0.783 -2.478,-7.603 -0.065,-3.55 -0.599,-5.145 -1.987,-5.951 -2.95,-1.71 -4.435,1.113 -4.171,7.923 0.288,7.399 -0.375,10.316 -2.345,10.316 -1.282,0 -1.554,-1.982 -1.554,-11.299 0,-9.52 -0.269,-11.397 -1.707,-11.918 -3.795,-1.377 -4.588,1.103 -4.588,14.354 0,11.745 -0.819,15.589 -2.706,12.703 -0.413,-0.633 -0.715,-2.396 -0.669,-3.918 0.093,-3.113 -2.116,-5.385 -4.423,-4.548 -1.159,0.42 -1.606,-0.428 -1.849,-3.507 -0.372,-4.729 -2.837,-6.901 -5.478,-4.829 -1.374,1.078 -1.661,3.757 -1.661,15.496 0,13.431 0.115,14.226 2.148,14.836 2.842,0.853 5.196,-1.118 5.196,-4.351 v -2.606 h 15.212 15.213 v 2.529 c 0,3.893 2.448,5.619 6.033,4.252 z m -84.495,-8.021 c 10.229,-10.274 22.502,-30.943 27.97,-47.105 3.334,-9.854 6.416,-25.065 6.424,-31.703 0.011,-4.722 -1.945,-5.737 -11.012,-5.737 -10.022,0 -10.595,0.479 -11.514,9.634 -0.426,4.246 -1.787,11.291 -3.024,15.654 l -2.249,7.934 -6.734,0.992 c -3.703,0.546 -6.929,1.551 -7.169,2.234 -0.24,0.682 1.296,3.472 3.414,6.199 l 3.85,4.957 -3.69,6.198 c -2.03,3.409 -6.083,8.989 -9.008,12.401 -2.925,3.412 -5.318,6.772 -5.318,7.467 0,1.499 12.686,13.602 14.258,13.602 0.598,0 2.309,-1.227 3.802,-2.727 z m -199.795,-3.498 c 3.59,-3.423 6.527,-6.631 6.527,-7.128 0,-0.497 -2.138,-3.476 -4.752,-6.621 -5.823,-7.006 -14.133,-19.615 -14.133,-21.444 0,-0.74 1.653,-3.391 3.672,-5.891 2.02,-2.5 3.672,-4.898 3.672,-5.328 0,-0.955 -2.14,-1.545 -8.633,-2.378 -4.91,-0.63 -4.977,-0.69 -6.607,-5.786 -0.906,-2.832 -2.144,-8.719 -2.751,-13.083 -1.939,-13.941 -0.505,-12.509 -12.201,-12.184 l -10.2,0.283 -0.339,3.938 c -0.886,10.279 5.692,34.574 13.433,49.616 6.954,13.512 21.202,32.231 24.533,32.231 0.689,0 4.189,-2.801 7.779,-6.225 z m 94.352,-20.551 c 0.458,-1.659 1.432,-1.984 5.934,-1.985 6.366,-0.002 12.17,-2.467 14.011,-5.949 1.671,-3.161 1.728,-16.205 0.09,-20.487 -1.345,-3.517 -0.983,-4.322 13.92,-30.949 4.512,-8.061 4.643,-8.55 4.643,-17.355 0,-8.436 -0.248,-9.493 -3.591,-15.321 -7.389,-12.883 -18.921,-19.34 -34.703,-19.431 -7.521,-0.043 -9.858,0.362 -14.917,2.586 -12.202,5.362 -20.748,15.842 -22.843,28.012 -1.428,8.292 -0.124,12.678 9.091,30.564 5.777,11.216 7.983,16.543 7.803,18.843 -0.139,1.764 -0.34,7.821 -0.447,13.46 l -0.195,10.252 3.148,2.381 c 1.731,1.31 4.465,3.502 6.075,4.871 3.827,3.256 11.135,3.565 11.981,0.508 z m 1.761,-67.164 c 0.266,-0.25 1.463,-0.162 2.66,0.198 2.76,0.828 2.736,2.512 -0.183,13.2 l -2.361,8.641 -0.299,-10.791 c -0.164,-5.935 -0.082,-10.997 0.183,-11.248 z m -200.166,65.775 c 2.64,-2.496 3.566,-4.235 3.563,-6.694 -0.011,-4.768 -3.326,-9.344 -7.79,-10.737 -8.174,-2.55 -16.911,5.71 -14.214,13.436 1.473,4.219 6.315,7.358 11.359,7.363 2.601,0.003 4.441,-0.872 7.082,-3.368 z m -12.342,-5.017 c -2.398,-4.975 3.963,-9.703 7.965,-5.92 1.957,1.849 2.155,5.5 0.39,7.168 -2.277,2.153 -7.06,1.438 -8.355,-1.248 z m 6.455,-0.028 c 1.87,-2.129 0.485,-4.677 -2.334,-4.297 -2.689,0.362 -3.816,3.622 -1.692,4.894 1.967,1.178 2.542,1.093 4.026,-0.597 z m 21.243,-10.987 c 5.84,-2.995 7.642,-10.341 3.943,-16.075 -2.344,-3.635 -5.684,-5.182 -11.184,-5.182 -5.222,0 -10.843,5.314 -10.843,10.249 0,5.2 1.637,8.357 5.482,10.573 4.042,2.33 8.602,2.487 12.602,0.435 z m -8.457,-9.689 c -0.433,-2.108 2.871,-3.395 4.058,-1.581 1.021,1.563 -0.821,4.149 -2.564,3.6 -0.635,-0.2 -1.307,-1.108 -1.494,-2.019 z m 330.985,-41.86 c 0.791,-1.947 -0.276,-11.557 -2.417,-21.774 -2.292,-10.939 -6.925,-23.011 -13.228,-34.464 -5.295,-9.624 -17.49,-25.858 -20.96,-27.905 -1.522,-0.898 -2.943,-0.023 -8.656,5.329 -3.759,3.522 -6.835,6.835 -6.835,7.362 0,0.528 2.139,3.532 4.752,6.677 2.614,3.145 6.844,8.925 9.401,12.845 5.134,7.871 5.126,8.062 -0.64,14.722 -3.681,4.252 -2.77,5.529 4.53,6.346 2.99,0.335 5.992,1.178 6.672,1.873 1.576,1.613 4.423,12.622 5.225,20.207 1.18,11.168 0.223,10.313 11.555,10.313 8.031,0 10.101,-0.299 10.601,-1.531 z m -259.503,0.788 c 0.247,-0.41 0.773,-3.645 1.168,-7.191 0.814,-7.294 4.395,-22.593 5.782,-24.698 0.505,-0.766 3.604,-1.737 6.886,-2.159 3.283,-0.421 6.217,-1 6.521,-1.287 0.304,-0.288 -1.197,-2.775 -3.335,-5.529 l -3.887,-5.006 3.803,-6.428 c 2.091,-3.536 6.145,-9.187 9.007,-12.559 2.863,-3.371 5.205,-6.602 5.205,-7.178 0,-1.455 -11.713,-12.511 -13.255,-12.511 -1.818,0 -9.32,8.26 -15.314,16.86 -10.979,15.753 -18.401,34.493 -21.358,53.928 -2.213,14.542 -2.24,14.501 9.601,14.501 4.8,0 8.93,-0.334 9.176,-0.743 z m 325.174,-11.237 c 1.4,-0.77 1.836,-2.319 1.836,-6.509 0,-4.664 -0.318,-5.577 -2.098,-6.017 -1.161,-0.287 -2.098,-1.352 -2.098,-2.386 0,-2.313 -2.968,-2.472 -3.887,-0.208 -0.371,0.913 -1.536,2.475 -2.59,3.471 -1.126,1.064 -1.916,3.243 -1.916,5.282 0,5.874 5.613,9.197 10.753,6.367 z m -24.655,0.426 c 0.722,-0.282 1.312,-1.313 1.312,-2.291 0,-0.979 0.744,-3.464 1.653,-5.521 1.23,-2.782 1.496,-5.546 1.037,-10.783 -0.339,-3.872 -0.973,-14.73 -1.408,-24.128 -0.658,-14.232 -1.094,-17.375 -2.61,-18.808 -1.727,-1.632 -1.913,-1.631 -3.656,0.014 -1.624,1.534 -1.901,4.736 -2.399,27.734 -0.672,31.052 0.228,36.063 6.071,33.783 z m -22.653,-2.055 c 6.498,-0.25 9.241,-0.74 9.639,-1.721 0.46,-1.132 1.003,-15.621 0.756,-20.156 -0.053,-0.974 -2.92,-1.206 -12.264,-0.991 l -12.194,0.279 -0.133,11.405 -0.133,11.405 2.623,0.064 c 1.442,0.035 6.71,-0.093 11.706,-0.285 z m -10.417,-5.048 c -0.228,-0.647 0.332,-1.177 1.246,-1.177 0.914,0 1.661,0.706 1.661,1.57 0,1.751 -2.258,1.446 -2.907,-0.393 z m -93.299,1.832 c 4.773,-0.874 6.498,-2.284 5.576,-4.556 -0.568,-1.399 -1.558,-1.57 -5.922,-1.022 -6.99,0.876 -8.363,1.461 -8.363,3.56 0,1.593 2.199,3.158 4.02,2.862 0.386,-0.063 2.496,-0.443 4.689,-0.844 z m -100.984,-0.587 c 2.181,-2.484 -0.856,-4.398 -7.408,-4.668 -4.604,-0.189 -5.749,0.082 -6.044,1.435 -0.708,3.249 10.973,6.057 13.452,3.233 z m -107.85,-4.485 c 1.477,-0.813 1.839,-2.408 1.852,-8.152 0.01,-3.927 0.369,-7.665 0.8,-8.307 0.432,-0.641 2.667,-1.31 4.968,-1.487 2.3,-0.177 4.065,-0.768 3.921,-1.314 -0.163,-0.619 -10.019,-1.088 -26.228,-1.248 -22.917,-0.226 -26.122,-0.452 -27.279,-1.925 -0.761,-0.968 -1.34,-4.816 -1.378,-9.165 -0.053,-5.901 -0.284,-6.982 -1.089,-5.078 -0.562,1.33 -0.886,6.016 -0.72,10.413 l 0.301,7.995 7.868,0.296 c 4.327,0.163 8.233,0.642 8.679,1.064 0.447,0.423 0.094,2.395 -0.785,4.383 -2.653,6.003 -2.123,9.16 1.936,11.532 2.997,1.751 5.187,2.059 14.425,2.034 5.991,-0.017 11.719,-0.485 12.729,-1.041 z m -22.787,-15.838 c 0.339,-0.518 1.785,-0.942 3.214,-0.942 2.278,0 2.459,0.245 1.468,1.996 -0.919,1.623 -1.52,1.799 -3.214,0.942 -1.146,-0.58 -1.807,-1.478 -1.468,-1.996 z m 14.656,0.049 c -0.357,-0.545 -0.149,-0.991 0.462,-0.991 0.612,0 1.111,0.446 1.111,0.991 0,0.546 -0.208,0.992 -0.462,0.992 -0.255,0 -0.755,-0.446 -1.111,-0.992 z m 369.57,2.821 c 1.498,-1.417 1.842,-22.302 0.402,-24.448 -0.587,-0.875 -2.714,-1.198 -6.541,-0.992 l -5.671,0.305 v 12.893 12.893 l 5.252,0.291 c 3.179,0.176 5.768,-0.196 6.558,-0.942 z m -158.091,-3.596 c 9.943,-6.566 7.3,-11.084 -2.783,-4.756 -6.219,3.903 -7.907,6.204 -5.576,7.6 2.119,1.268 2.146,1.259 8.359,-2.844 z m -89.953,3.089 c 1.932,-1.826 0.262,-4.523 -4.794,-7.742 -5.92,-3.768 -8.626,-4.345 -9.562,-2.038 -0.716,1.763 1.445,3.921 7.655,7.645 4.958,2.973 5.599,3.177 6.701,2.135 z m -117.821,-11.297 c 0.635,-1.123 0.851,-3.355 0.478,-4.959 l -0.678,-2.917 h 8.267 c 5.031,0 8.759,-0.466 9.525,-1.19 1.42,-1.342 1.724,-14.433 0.383,-16.431 -0.653,-0.972 -6.67,-1.198 -26.475,-0.992 l -25.631,0.266 v 7.438 c 0.011,10.933 -0.015,10.909 9.865,10.909 h 8.36 l -0.595,3.463 c -0.889,5.182 0.822,6.454 8.687,6.454 5.644,0 6.83,-0.31 7.81,-2.041 z m 321.269,-1.942 c 1.611,-0.942 1.836,-2.822 1.836,-15.299 0,-16.207 0.477,-15.429 -9.442,-15.429 -9.919,0 -9.442,-0.777 -9.442,15.42 0,7.819 0.392,14.445 0.872,14.725 1.982,1.158 14.426,1.606 16.176,0.583 z m -133.142,-4.14 c 6.372,-10.389 7.399,-15.273 3.051,-14.511 -2.217,0.388 -9.789,13.374 -9.434,16.178 0.465,3.668 3.615,2.846 6.383,-1.667 z m -52.223,2.849 c 0.324,-0.799 -1.335,-5.072 -3.687,-9.495 -3.197,-6.009 -4.804,-8.041 -6.364,-8.041 -3.159,0 -2.59,3.45 1.881,11.404 3.8,6.762 6.953,9.129 8.17,6.132 z m 24.932,-4.313 c 0.385,-0.363 0.7,-4.771 0.7,-9.795 0,-9.495 -1.096,-12.182 -4.222,-10.355 -1.972,1.152 -2.819,15.657 -1.092,18.707 1.177,2.079 3.255,2.729 4.614,1.443 z m -199.762,-12.042 c 0.047,-3.273 -0.323,-5.033 -0.975,-4.652 -1.257,0.734 -1.257,5.17 0,7.934 0.661,1.453 0.921,0.575 0.975,-3.282 z m 55.883,-9.778 4.925,-0.432 1.609,-5.232 c 0.885,-2.877 2.167,-7.519 2.85,-10.315 2.074,-8.49201 3.483,-8.15101 -33.646,-8.15101 -25.741,0 -32.592,0.275 -34.178,1.371 -1.94,1.341 -1.934,1.589 0.28,11.52901 1.245,5.587 2.522,10.402 2.839,10.701 0.708,0.67 48.517,1.127 55.321,0.529 z m -50.193,-2.808 c -1.59,-0.469 -4.059,-14.264 -2.772,-15.48101 0.558,-0.527 12.737,-0.804 28.701,-0.651 l 27.732,0.265 -0.216,2.85501 c -0.119,1.571 -0.737,5.228 -1.373,8.126 -1.127,5.127 -1.262,5.278 -5.03,5.575 -4.874,0.384 -45.418,-0.21 -47.042,-0.689 z m 281.097,-6.227 c 3.3,-3.152 6,-6.421 6,-7.265 0,-1.71301 -10.065,-9.71301 -18.884,-15.01001 -15.278,-9.174 -34.054,-16.223 -50.601,-18.996 -12.957,-2.171 -19.508,-2.502 -20.783,-1.049 -0.631,0.718 -0.964,4.95 -0.788,10.019 l 0.305,8.776 6.692,0.698 c 9.004,0.939 21.781,3.486 25.156,5.015 2.271,1.028 2.89,2.183 3.572,6.666 0.454,2.98101 1.245,5.81801 1.758,6.30201 0.544,0.514 3.002,-0.612 5.896,-2.701 2.73,-1.97101 5.424,-3.58301 5.987,-3.58301 1.599,0 13.031,6.79201 20.32,12.07301 3.633,2.633 7.228,4.786 7.988,4.786 0.761,0 4.083,-2.579 7.382,-5.731 z m -162.388,0.628 c 5.6,-4.403 16.005,-10.60201 20.522,-12.22701 0.98,-0.352 3.619,0.84 6.567,2.969 2.711,1.95701 5.342,3.31701 5.846,3.02201 0.504,-0.294 1.247,-3.03401 1.651,-6.08801 0.679,-5.136 1.004,-5.659 4.341,-6.977 1.985,-0.784 8.437,-2.135 14.34,-3.003 5.902,-0.868 11.793,-1.759 13.091,-1.98 2.252,-0.384 2.361,-0.834 2.361,-9.805 v -9.403 h -5.733 c -13.321,0 -35.759,5.738 -51.446,13.156 -14.865,7.028 -33.048,19.297 -33.048,22.29801 0,2.008 11.551,13.156 13.536,13.064 0.922,-0.042 4.509,-2.304 7.972,-5.026 z m 261.238,-8.001 c 4.688,-1.55801 5.77,-2.69101 5.77,-6.03701 0,-1.668 0.556,-4.484 1.235,-6.26 0.997,-2.605 0.952,-3.551 -0.232,-4.9 -1.285,-1.464 -2.902,-1.585 -13.038,-0.98 -15.427,0.92 -17.579,0.923 -26.873,0.04 -10.033,-0.953 -15.647,0.478 -15.647,3.987 0,1.289 0.472,2.62 1.049,2.957 0.577,0.337 1.056,2.26 1.065,4.273 0.01,2.014 0.363,4.146 0.787,4.738 1.187,1.65901 7.426,3.38601 12.234,3.38601 5.265,0 8.728,-2.13 10.694,-6.57601 1.878,-4.249 3.012,-4.211 5.213,0.173 2.903,5.78301 9.859,7.82101 17.743,5.19901 z m -38.309,-3.75501 c -1.072,0 -2.266,-0.966 -2.666,-2.156 -1.143,-3.404 2.104,-5.03 8.451,-4.231 2.886,0.364 5.403,0.795 5.593,0.96 0.192,0.164 -0.193,1.254 -0.855,2.423 -1.329,2.347 -5.015,4.111 -7.184,3.438 -0.768,-0.239 -2.271,-0.434 -3.339,-0.434 z m 24.83,-3.226 c -2.935,-3.73 -1.449,-4.797 5.061,-3.633 6.445,1.151 8.875,3.058 6.845,5.371 -2.289,2.607 -9.291,1.585 -11.906,-1.738 z m -82.484,-20.627 c 4.815,-4.224 6.21,-4.945 8.687,-4.486 1.622,0.3 4.511,-0.071 6.42,-0.825 8.271,-3.267 9.293,-12.093 2.077,-17.944 -2.185,-1.771 -2.446,-2.831 -2.441,-9.917 0,-4.364 0.259,-10.908 0.568,-14.542 0.321,-3.76 0.094,-7.435 -0.523,-8.526 -0.756,-1.336 -0.732,-3.006 0.078,-5.501 1.313,-4.044 -0.036,-6.638 -3.451,-6.638 -2.929,0 -4.284,3.186 -2.923,6.875 0.855,2.319 0.817,3.85 -0.148,6.054 -0.844,1.926 -1.046,4.926 -0.583,8.647 0.39,3.133 0.644,9.253 0.564,13.6 -0.142,7.723 -0.228,7.97 -3.809,10.909 -3.238,2.657 -3.686,3.609 -3.855,8.185 -0.177,4.779 -0.594,5.566 -5.408,10.186 -4.24,4.069 -5.009,5.316 -4.111,6.662 1.866,2.797 2.92,2.471 8.859,-2.739 z m -129.609,-11.208 c 0.89,-1.284 2.892,-7.035 4.449,-12.78 3.219,-11.88 2.762,-13.647 -3.524,-13.647 -2.45,0 -3.543,-0.459 -3.543,-1.487 0,-0.819 0.456,-1.488 1.012,-1.488 0.557,0 2.671,-1.376 4.696,-3.057 7.009,-5.817 7.014,-14.842 0.011,-20.654 -2.032,-1.686 -4.321,-3.066 -5.087,-3.066 -0.766,0 -3.175,-1.339 -5.354,-2.975 -7.321,-5.5 -16.685,-3.34 -19.414,4.478 -1.447,4.144 -0.052,9.162 3.34,12.014 2.987,2.511 6.056,9.074 6.084,13.012 0.021,2.895 -0.284,3.223 -2.996,3.223 -4.911,0 -5.853,1.982 -4.361,9.181 1.612,7.779 5.227,17.862 6.749,18.821 0.636,0.4 4.568,0.735 8.738,0.743 6.813,0.014 7.746,-0.221 9.2,-2.318 z m -12.338,-27.02 c -0.345,-0.326 -0.384,-1.19 -0.088,-1.92 0.673,-1.658 3.513,-0.743 3.513,1.132 0,1.384 -2.247,1.902 -3.425,0.788 z m -25.112,28.164 c 1.736,-1.642 1.736,-23.748 0,-25.389 -0.777,-0.734 -4.694,-1.202 -10.229,-1.222 -6.22,-0.021 -9.595,-0.478 -11.007,-1.487 -2.237,-1.599 -7.641,-1.913 -9.877,-0.574 -1.779,1.066 -1.757,26.546 0.025,28.576 1.535,1.748 29.249,1.833 31.088,0.096 z m 144.993,-0.84 c -8.944,-0.376 -22.963,-0.742 -31.153,-0.814 -19.288,-0.17 -18.157,1.176 -18.157,-21.616 0,-9.559 0.433,-17.329 0.983,-17.651 0.542,-0.316 1.84,0.594 2.886,2.023 1.045,1.429 3.381,4.227 5.19,6.219 1.81,1.991 4.021,5.278 4.915,7.304 1.779,4.034 5.94,5.854 9.108,3.984 1.38,-0.814 2.173,-0.623 3.504,0.847 1.576,1.739 3.296,1.899 20.487,1.899 14.79,0 19.024,-0.294 19.983,-1.386 0.791,-0.901 1.111,-4.805 0.915,-11.157 l -0.301,-9.771 h -20.459 -20.458 l -0.525,7.698 c -0.288,4.234 -0.892,7.742 -1.341,7.794 -2.477,0.291 -4.954,-1.157 -4.954,-2.897 0,-1.083 -0.693,-2.221 -1.54,-2.529 -0.847,-0.307 -2.25,-2.028 -3.118,-3.825 -0.868,-1.796 -2.356,-4.27 -3.309,-5.497 l -1.731,-2.232 h 30.425 c 25.778,0 30.625,-0.227 31.732,-1.489 1.738,-1.979 0.864,-12.261 -1.145,-13.463 -0.813,-0.487 -16.55,-0.892 -34.969,-0.9 -29.566,-0.014 -33.713,0.175 -35.389,1.609 -1.563,1.336 -2.186,1.399 -3.518,0.354 -2.651,-2.08 -3.129,-0.251 -1.237,4.738 1.469,3.874 1.777,8.507 1.772,26.673 0,12.092 0.282,22.691 0.632,23.554 0.564,1.39 4.419,1.549 33.835,1.391 28.94,-0.154 31.112,-0.265 16.937,-0.86 z m -28.327,-51.524 c 0,-0.628 7.693,-0.992 20.983,-0.992 13.289,0 20.983,0.364 20.983,0.992 0,0.628 -7.694,0.992 -20.983,0.992 -13.29,0 -20.983,-0.364 -20.983,-0.992 z m 31.685,46.862 15.423,-0.303 -0.212,-4.685 -0.213,-4.684 -31.21,-0.263 c -20.553,-0.173 -31.241,0.081 -31.298,0.744 -0.355,4.082 -0.144,7.784 0.499,8.768 0.761,1.163 6.616,1.216 47.011,0.423 z"
     id="path841" />
  <path
     inkscape:connector-curvature="0"
     style="fill:#00aad4;fill-opacity:1;stroke-width:1.02004015"
     d="m 685.87555,595.73772 c 0.397,-0.606 -0.511,-2.057 -2.016,-3.223 -3.123,-2.422 -5.341,-7.063 -6.465,-13.527 -0.427,-2.454 -1.66,-5.527 -2.741,-6.828 -1.08,-1.301 -1.964,-2.878 -1.964,-3.505 0,-0.627 2.543,-3.514 5.651,-6.415 4.456,-4.159 6.121,-5.135 7.87,-4.61 2.05,0.615 2.135,0.457 1.115,-2.076 -1.287,-3.201 -5.848,-10.341 -8.887,-13.911 -1.919,-2.255 -2.39,-2.373 -4.987,-1.254 -3.063,1.319 -5.476,0.374 -2.851,-1.116 4.58,-2.603 4.638,-2.694 3.377,-5.311 -2.023,-4.196 -8.632,-4.702 -8.632,-0.66 0,0.99 -1.26,3.976 -2.801,6.636 l -2.802,4.835 2.727,-2.337 c 1.499,-1.286 3.255,-2.172 3.901,-1.968 0.646,0.203 -1.535,3.041 -4.847,6.305 -10.615,10.463 -10.534,9.542 -1.55,17.719 10.269,9.345 13.765,13.955 13.765,18.148 0,3.775 2.373,9.762 4.924,12.428 1.892,1.975 6.104,2.367 7.213,0.67 z m -16.333,-42.039 c 2.548,-2.455 4.803,-4.463 5.01,-4.463 0.207,0 -1.365,2.008 -3.493,4.463 -2.127,2.454 -4.382,4.463 -5.01,4.463 -0.627,0 0.944,-2.009 3.493,-4.463 z m 19.377,36.248 c 0.376,-0.576 0.365,-3.061 -0.026,-5.521 -0.526,-3.322 -1.463,-4.982 -3.635,-6.444 -1.609,-1.083 -3.207,-1.969 -3.551,-1.969 -1.177,0 -0.625,3.524 0.867,5.538 0.82,1.107 1.904,3.519 2.408,5.36 0.951,3.469 2.748,4.854 3.937,3.036 z m 110.027,-11.66 c 1.805,-0.44 1.784,-0.57 -0.304,-1.953 -1.512,-1.001 -2.031,-2.099 -1.599,-3.385 0.659,-1.962 0.26,-2.226 -5.013,-3.318 l -2.885,-0.598 0.157,-12.626 c 0.086,-6.944 0.354,-11.398 0.594,-9.898 0.533,3.326 3.938,5.39 6.097,3.697 1.11,-0.872 1.413,-3.603 1.244,-11.226 l -0.224,-10.075 -6.294,0.338 c -3.614,0.193 -6.966,0.947 -7.869,1.768 -1.281,1.166 -1.633,5.366 -1.893,22.594 l -0.319,21.162 5.984,0.469 c 3.912,0.306 6.425,1.037 7.255,2.111 1.299,1.68 1.717,1.757 5.069,0.94 z m -9.801,-36.489 c 0,-0.818 0.457,-1.488 1.016,-1.488 0.559,0 0.745,0.67 0.412,1.488 -0.332,0.818 -0.789,1.488 -1.016,1.488 -0.227,0 -0.412,-0.67 -0.412,-1.488 z m 41.021,33.275 c 14.417,-0.405 19.972,-0.907 21.266,-1.925 1.552,-1.22 1.72,-3.762 1.469,-22.314 l -0.283,-20.937 -17.27,-0.273 c -19.046,-0.302 -21.742,0.045 -18.401,2.371 1.63,1.135 5.227,1.428 16.099,1.312 7.699,-0.082 14.439,0.266 14.976,0.774 0.55,0.52 0.85,8.463 0.688,18.204 l -0.288,17.282 -3.417,0.311 c -4.025,0.367 -5.589,-1.919 -3.12,-4.563 1.561,-1.673 4.12,-22.954 3.095,-25.748 -0.608,-1.658 -2.135,-1.565 -4.052,0.248 -2.064,1.951 -7.679,1.899 -10.697,-0.099 -2.196,-1.454 -2.551,-1.454 -4.25,0 -1.02,0.872 -2.408,1.586 -3.084,1.586 -2.234,0 -1.275,1.839 1.129,2.163 1.844,0.247 2.358,0.964 2.36,3.292 0,2.643 -0.383,3.01 -3.469,3.29 -3.082,0.28 -3.436,0.614 -3.147,2.975 0.277,2.268 0.943,2.749 4.521,3.263 3.583,0.515 3.736,0.626 1.05,0.759 -4.558,0.226 -5.987,1.427 -5.593,4.696 0.344,2.841 0.413,2.868 7.434,2.922 7.736,0.06 10.4,1.323 8.162,3.871 -1.009,1.149 -3.469,1.529 -9.898,1.529 -6.026,0 -9.242,0.455 -10.875,1.536 -1.276,0.844 -4.095,2.152 -6.266,2.905 -3.816,1.324 -3.842,1.366 -0.8,1.244 1.731,-0.069 11.929,-0.372 22.661,-0.674 z m 2.519,-17.903 c 0.356,-0.546 1.21,-0.985 1.898,-0.977 0.75,0.009 0.621,0.399 -0.325,0.977 -2.015,1.231 -2.378,1.231 -1.573,0 z m -1.985,-9.498 c -0.888,-2.188 0.427,-4.386 2.621,-4.386 1.482,0 1.987,0.714 1.987,2.81 0,1.545 -0.283,3.076 -0.628,3.402 -0.934,0.883 -3.325,-0.215 -3.98,-1.826 z m -132.243,18.937 c 1.546,-2.714 1.694,-3.712 0.689,-4.661 -1.956,-1.85 -1.537,-2.549 1.351,-2.249 1.445,0.15 2.406,-0.067 2.134,-0.482 -0.271,-0.415 0.33,-1.604 1.337,-2.641 1.006,-1.037 1.672,-2.623 1.48,-3.525 -0.399,-1.871 -7.775,-6.79 -10.18,-6.79 -2.119,0 -2.136,5.284 -0.022,6.942 2.24,1.757 1.947,3.967 -0.524,3.967 -2.313,0 -2.487,1.008 -1.431,8.291 0.797,5.497 2.476,5.87 5.166,1.148 z m 98.524,-12.364 c 0.802,-1.227 -1.7,-2.352 -4.158,-1.87 -0.93,0.183 -1.68,0.778 -1.668,1.324 0.032,1.376 4.98,1.84 5.826,0.546 z m -146.96,-3.908 c 4.305,-4.247 11.333,-15.415 9.972,-15.845 -0.634,-0.2 -3.599,1.92 -6.589,4.711 -2.99,2.791 -5.926,5.074 -6.525,5.074 -0.599,0 -1.764,-1.416 -2.59,-3.148 -2.165,-4.542 -4.531,-5.642 -7.21,-3.35 -1.187,1.016 -2.159,2.35 -2.159,2.964 0,0.614 2.736,3.677 6.081,6.806 l 6.081,5.688 z m 59.284,-2.689 c 3.132,-3.763 2.744,-5.848 -1.529,-8.231 -4.836,-2.697 -6.575,-2.627 -7.351,0.297 -1.104,4.157 -0.058,6.873 3.372,8.762 l 3.306,1.819 z m 6.363,-10.99 c 3.03,-3.641 2.426,-5.126 -3.312,-8.141 -5.483,-2.881 -6.694,-2.48 -7.762,2.57 -0.599,2.831 -0.271,3.343 3.631,5.672 2.36,1.408 4.501,2.56 4.76,2.56 0.258,0 1.465,-1.198 2.683,-2.661 z m -55.569,-12.304 c 1.742,-1.347 1.919,-1.684 0.525,-1.003 -3.422,1.672 -5.319,3.045 -4.197,3.038 0.577,-0.004 2.23,-0.92 3.672,-2.035 z m 74.687,-3.564 c -0.758,-0.287 -1.663,-0.251 -2.011,0.078 -0.349,0.33 0.271,0.564 1.377,0.521 1.222,-0.048 1.471,-0.283 0.634,-0.599 z m 34.051,-1.851 c 23.105,-3.729 49.842,-15.541 66.995,-29.597 l 4.197,-3.439 -6.262,-6.02 c -3.445,-3.31 -6.641,-6.019 -7.105,-6.019 -0.463,0 -3.783,2.156 -7.377,4.79 -8.832,6.475 -18.894,12.07 -21.708,12.07 -1.27,0 -4.353,-1.584 -6.851,-3.519 -2.663,-2.062 -4.817,-3.098 -5.207,-2.503 -0.365,0.559 -0.949,3.291 -1.297,6.071 -0.455,3.633 -1.254,5.428 -2.839,6.379 -2.404,1.442 -14.268,3.993 -24.237,5.211 l -6.295,0.769 v 8.424 8.424 l 4.721,0.169 c 2.597,0.093 8.566,-0.451 13.265,-1.21 z m -29.002,-7.292 v -7.836 l -6.557,-0.675 c -8.204,-0.845 -18.858,-3.024 -24.545,-5.02 -4.562,-1.601 -5.578,-3.246 -5.604,-9.069 -0.02,-4.409 -1.191,-4.667 -5.899,-1.299 -2.246,1.606 -4.965,2.933 -6.043,2.948 -2.473,0.035 -12.997,-5.973 -20.263,-11.568 -3.052,-2.35 -5.926,-4.272 -6.387,-4.272 -0.46,0 -3.372,2.426 -6.47,5.391 l -5.632,5.391 3.466,2.791 c 13.485,10.858 29.119,19.142 46.216,24.488 10.808,3.38 27.422,6.567 34.231,6.567 h 3.487 z m 186.749,-10.615 c 3.56,-1.47 3.608,-1.561 1.573,-3 -1.609,-1.138 -3.691,-1.335 -8.934,-0.847 -6.005,0.558 -7.185,0.376 -9.705,-1.497 -2.137,-1.59 -2.868,-3.007 -2.868,-5.563 0,-4.52 -2.426,-5.385 -5.709,-2.037 -2.933,2.991 -7.551,4.344 -9.929,2.909 -1.172,-0.708 -1.574,-2.163 -1.344,-4.857 0.181,-2.115 0.562,-9.294 0.846,-15.952 0.488,-11.419 0.395,-12.177 -1.641,-13.379 -4.054,-2.393 -1.778,-13.038 4.273,-19.977 8.044,-9.225 23.227,-11.938 34.335,-6.135 6.681,3.49 11.044,8.197 13.237,14.28 2.239,6.212 2.068,10.284 -0.495,11.797 -1.907,1.126 -2.099,2.313 -2.099,13.01 0,14.508 0.94,15.937 7.017,10.673 l 3.999,-3.465 v -17.68 c 0,-16.594 -0.149,-17.944 -2.435,-21.993 -3.708,-6.568 -10.26,-12.701 -16.825,-15.749 -5.137,-2.384 -7.168,-2.747 -15.362,-2.747 -8.194,0 -10.225,0.363 -15.361,2.747 -6.58,3.055 -13.141,9.203 -16.805,15.749 -2.208,3.945 -2.434,5.73 -2.638,20.869 -0.213,15.78 -0.112,16.712 2.169,19.889 1.316,1.833 2.708,5.508 3.094,8.165 1.153,7.955 4.675,10.078 13.018,7.849 4.36,-1.164 4.501,-1.126 6.249,1.672 3.331,5.33 15.333,8.161 22.34,5.269 z m -335.204,-13.609 c 6.087,-2.256 9.594,-4.525 14.036,-9.08 5.818,-5.966 7.603,-10.201 7.603,-18.039 0,-23.806 -30.008,-34.827 -47.799,-17.555 -8.109,7.872 -12.083,20.76 -9.066,29.4 1.698,4.865 9.095,12.535 14.202,14.728 4.879,2.095 16.06,2.385 21.024,0.546 z m -13.074,-14.035 c -1.651,-0.807 -3.949,-2.605 -5.105,-3.994 -1.763,-2.119 -2.837,-2.483 -6.65,-2.252 -3.928,0.238 -4.547,0.008 -4.547,-1.684 0,-1.299 1.06,-2.288 3.147,-2.935 1.731,-0.537 3.308,-1.071 3.503,-1.187 0.196,-0.115 0.804,-2.097 1.352,-4.403 1.296,-5.452 4.199,-9.21 8.66,-11.211 14.186,-6.364 28.944,7.914 21.892,21.18 -3.785,7.123 -14.538,10.257 -22.252,6.486 z m 12.2,-1.604 c 5.137,-1.406 8.743,-6.121 8.743,-11.434 0,-2.44 -0.717,-5.745 -1.592,-7.345 -4.309,-7.878 -18.543,-7.742 -23.218,0.221 -2.387,4.067 -1.768,11.168 1.271,14.582 2.184,2.454 8.566,5.35 10.949,4.969 0.288,-0.046 2.02,-0.493 3.847,-0.993 z m 345.258,13.324 c 0.963,-0.367 1.311,-4.263 1.311,-14.676 0,-11.725 -0.287,-14.402 -1.661,-15.48 -1.203,-0.943 -2.145,-1.017 -3.41,-0.266 -1.34,0.795 -1.877,3.097 -2.3,9.86 -0.434,6.942 -0.658,7.871 -1.049,4.359 -0.437,-3.92 -0.785,-4.434 -2.858,-4.226 -2.26,0.226 -2.361,-0.08 -2.361,-7.19 0,-5.757 -0.335,-7.427 -1.491,-7.427 -1.112,0 -1.632,1.953 -2.049,7.686 -0.779,10.718 -0.891,11.157 -2.842,11.157 -2.141,0 -3.032,-4.422 -3.049,-15.124 -0.01,-6.922 -0.212,-7.686 -2.031,-7.686 -1.86,0 -2.005,0.71 -1.817,8.926 0.112,4.909 -0.159,8.926 -0.603,8.926 -0.443,0 -0.806,1.758 -0.806,3.908 0,4.306 -1.905,6.426 -2.816,3.134 -0.317,-1.146 -0.988,-2.084 -1.49,-2.084 -0.503,0 -0.802,-0.955 -0.665,-2.122 0.351,-2.984 -2.348,-3.577 -3.229,-0.709 -0.507,1.649 -0.872,0.47 -1.242,-4.009 -0.58,-7.01 -2.597,-9.534 -5.683,-7.113 -1.374,1.078 -1.661,3.757 -1.661,15.496 0,13.431 0.115,14.226 2.148,14.836 2.842,0.853 5.196,-1.118 5.196,-4.351 v -2.606 h 15.212 15.213 v 2.529 c 0,3.893 2.448,5.619 6.033,4.252 z m -84.495,-8.021 c 10.246,-10.291 22.502,-30.944 27.992,-47.17 3.577,-10.572 6.758,-27.223 6.219,-32.55 l -0.338,-3.338 h -9.934 -9.933 l -0.71,3.967 c -0.391,2.182 -1.25,7.091 -1.909,10.909 -1.45,8.394 -3.992,16.086 -5.632,17.044 -0.663,0.387 -3.739,1.029 -6.837,1.427 -3.098,0.397 -5.895,0.97 -6.215,1.273 -0.321,0.303 0.786,2.367 2.458,4.587 1.673,2.22 3.513,4.687 4.09,5.483 1.407,1.94 -2.928,9.706 -10.486,18.781 -3.18,3.819 -6.092,7.563 -6.471,8.32 -0.687,1.371 11.963,13.994 14.023,13.994 0.532,0 2.19,-1.227 3.683,-2.727 z m -199.795,-3.498 c 3.59,-3.423 6.527,-6.631 6.527,-7.128 0,-0.497 -2.138,-3.476 -4.752,-6.621 -5.823,-7.006 -14.133,-19.615 -14.133,-21.444 0,-0.74 1.653,-3.391 3.672,-5.891 2.02,-2.5 3.672,-4.898 3.672,-5.328 0,-0.955 -2.14,-1.545 -8.633,-2.378 -4.91,-0.63 -4.977,-0.69 -6.607,-5.786 -0.906,-2.832 -2.144,-8.719 -2.751,-13.083 -1.939,-13.941 -0.505,-12.509 -12.201,-12.184 l -10.2,0.283 -0.339,3.938 c -0.886,10.279 5.692,34.574 13.433,49.616 6.954,13.512 21.202,32.231 24.533,32.231 0.689,0 4.189,-2.801 7.779,-6.225 z m 94.352,-20.551 c 0.458,-1.659 1.432,-1.984 5.934,-1.985 6.366,-0.002 12.17,-2.467 14.011,-5.949 1.513,-2.863 1.775,-17.653 0.35,-19.781 -0.644,-0.962 -3.662,-1.615 -9.164,-1.984 -6.405,-0.429 -8.181,-0.876 -8.096,-2.037 0.06,-0.818 1.89,-8.573 4.067,-17.233 4.033,-16.041 5.778,-19.461 9.926,-19.461 1.12,0 2.33,-0.45 2.69,-0.999 1.211,-1.854 -2.455,-2.147 -6.145,-0.492 -3.015,1.352 -4.091,1.427 -6.081,0.42 -4.753,-2.404 -9.429,-2.826 -13.646,-1.231 -3.575,1.352 -4.482,1.359 -7.968,0.067 -6.655,-2.467 -9.42,0.086 -2.888,2.666 2.019,0.797 4.143,2.476 4.72,3.732 1.021,2.219 8.397,31.722 8.397,33.584 0,0.512 -3.271,0.93 -7.269,0.93 -10.231,0 -10.855,0.759 -10.4,12.645 0.346,9.021 0.468,9.431 3.506,11.729 1.731,1.309 4.465,3.502 6.075,4.871 3.827,3.256 11.135,3.565 11.981,0.507 z m -4.658,-49.462 c -1.978,-8.331 -3.348,-15.761 -3.044,-16.51 0.305,-0.749 2.559,-1.873 5.01,-2.497 3.678,-0.936 5.064,-0.861 7.923,0.428 1.906,0.859 3.47,2.127 3.475,2.818 0.024,3.505 -7.781,31.534 -8.701,31.244 -0.587,-0.185 -2.685,-7.152 -4.663,-15.483 z m -193.747,48.073 c 2.64,-2.496 3.566,-4.235 3.563,-6.694 -0.011,-4.768 -3.326,-9.344 -7.79,-10.737 -8.174,-2.55 -16.911,5.71 -14.214,13.436 1.473,4.219 6.315,7.358 11.359,7.363 2.601,0.003 4.441,-0.872 7.082,-3.368 z m -13.67,-4.841 c -2.178,-5.849 3.965,-10.597 9.376,-7.245 3.798,2.352 3.692,7.919 -0.188,9.841 -3.804,1.884 -7.956,0.711 -9.188,-2.596 z m 6.745,-2.2 c 0,-0.818 -0.472,-1.488 -1.049,-1.488 -0.577,0 -1.049,0.67 -1.049,1.488 0,0.818 0.472,1.487 1.049,1.487 0.577,0 1.049,-0.669 1.049,-1.487 z m 21.633,-10.324 c 11.703,-6.745 1.408,-23.636 -10.661,-17.492 -6.719,3.42 -7.709,10.768 -2.159,16.014 4.138,3.911 7.855,4.34 12.82,1.478 z m -8.439,-5.957 c -2.611,-2.727 -0.545,-6.276 3.401,-5.845 3.376,0.369 4.324,3.698 1.746,6.134 -2.189,2.07 -2.928,2.028 -5.147,-0.289 z m 331.615,-44.259 c 0.791,-1.947 -0.276,-11.557 -2.417,-21.774 -2.292,-10.939 -6.925,-23.011 -13.228,-34.464 -5.295,-9.624 -17.49,-25.858 -20.96,-27.905 -1.522,-0.898 -2.943,-0.023 -8.656,5.329 -3.759,3.522 -6.835,6.835 -6.835,7.362 0,0.528 2.139,3.532 4.752,6.677 2.614,3.145 6.844,8.925 9.401,12.845 5.134,7.871 5.126,8.062 -0.64,14.722 -3.681,4.252 -2.77,5.529 4.53,6.346 2.99,0.335 5.992,1.178 6.672,1.873 1.576,1.613 4.423,12.622 5.225,20.207 1.18,11.168 0.223,10.313 11.555,10.313 8.031,0 10.101,-0.299 10.601,-1.531 z m -259.503,0.788 c 0.247,-0.409 0.773,-3.645 1.168,-7.19 0.814,-7.295 4.395,-22.594 5.782,-24.699 0.505,-0.766 3.604,-1.737 6.886,-2.158 3.283,-0.422 6.217,-1.001 6.521,-1.288 0.304,-0.288 -1.197,-2.775 -3.335,-5.529 l -3.887,-5.006 3.803,-6.428 c 2.091,-3.536 6.145,-9.187 9.007,-12.559 2.863,-3.371 5.205,-6.601 5.205,-7.178 0,-1.455 -11.713,-12.511 -13.255,-12.511 -1.818,0 -9.32,8.26 -15.314,16.86 -10.979,15.753 -18.401,34.493 -21.358,53.928 -2.213,14.542 -2.24,14.501 9.601,14.501 4.8,0 8.93,-0.334 9.176,-0.743 z m 300.519,-10.822 c 0.722,-0.276 1.312,-1.096 1.312,-1.823 0,-0.727 -0.59,-1.55 -1.312,-1.828 -0.882,-0.34 -0.471,-1.146 1.256,-2.465 2.141,-1.635 2.639,-3.039 3.005,-8.477 0.43,-6.378 -0.38,-12.303 -1.533,-11.214 -0.319,0.302 -0.886,2.921 -1.26,5.82 -0.658,5.094 -0.813,5.302 -4.615,6.19 -3.336,0.779 -3.934,1.327 -3.934,3.598 0,1.654 0.903,3.278 2.36,4.244 1.919,1.273 2.087,1.74 0.896,2.501 -3.073,1.963 0.136,4.861 3.825,3.454 z m 23.658,-1.028 c 1.566,-0.384 1.834,-1.338 1.574,-5.588 l -0.314,-5.124 h -4.197 -4.197 l -0.312,5.078 c -0.282,4.58 -0.075,5.139 2.098,5.689 1.326,0.336 2.647,0.565 2.936,0.509 0.288,-0.056 1.374,-0.31 2.412,-0.564 z m -150.027,-4.232 c 4.773,-0.874 6.498,-2.284 5.576,-4.556 -0.568,-1.399 -1.558,-1.57 -5.922,-1.022 -6.99,0.876 -8.363,1.461 -8.363,3.56 0,1.593 2.199,3.158 4.02,2.862 0.386,-0.063 2.496,-0.443 4.689,-0.844 z m -100.984,-0.587 c 2.181,-2.484 -0.856,-4.398 -7.408,-4.668 -4.604,-0.189 -5.749,0.083 -6.044,1.435 -0.708,3.249 10.973,6.057 13.452,3.233 z m -107.85,-4.485 c 1.477,-0.813 1.839,-2.408 1.852,-8.152 0.01,-3.927 0.369,-7.665 0.8,-8.307 0.432,-0.641 2.667,-1.31 4.968,-1.487 2.3,-0.177 4.065,-0.768 3.921,-1.314 -0.163,-0.619 -10.019,-1.088 -26.228,-1.248 -22.917,-0.226 -26.122,-0.452 -27.279,-1.925 -0.761,-0.968 -1.34,-4.816 -1.378,-9.165 -0.053,-5.901 -0.284,-6.982 -1.089,-5.078 -0.562,1.33 -0.886,6.016 -0.72,10.413 l 0.301,7.995 7.868,0.296 c 4.327,0.163 8.233,0.642 8.679,1.065 0.447,0.422 0.094,2.394 -0.785,4.382 -2.653,6.003 -2.123,9.16 1.936,11.532 2.997,1.751 5.187,2.059 14.425,2.034 5.991,-0.017 11.719,-0.485 12.729,-1.041 z m -18.486,-5.127 c -0.348,-1.228 -0.639,-3.443 -0.647,-4.924 -0.01,-1.68 -0.814,-3.097 -2.142,-3.769 -3.699,-1.871 -1.156,-2.96 6.911,-2.96 h 7.806 v 6.942 6.942 h -5.648 c -4.97,0 -5.723,-0.268 -6.28,-2.231 z m 375.984,-0.321 c 0,-0.924 -0.714,-1.43 -1.749,-1.24 -2.632,0.483 -2.994,2.8 -0.437,2.8 1.289,0 2.186,-0.64 2.186,-1.56 z m 3.012,-8.699 c 0.852,-0.97 1.161,-4.91 0.959,-12.198 l -0.299,-10.766 h -5.246 -5.246 v 11.901 11.901 l 4.288,0.297 c 2.78,0.192 4.729,-0.206 5.544,-1.135 z m -157.162,-2.417 c 9.943,-6.566 7.3,-11.084 -2.783,-4.756 -6.219,3.903 -7.907,6.204 -5.576,7.6 2.119,1.268 2.146,1.259 8.359,-2.844 z m -89.953,3.089 c 1.932,-1.826 0.262,-4.523 -4.794,-7.742 -5.92,-3.768 -8.626,-4.345 -9.562,-2.038 -0.716,1.763 1.445,3.921 7.655,7.645 4.958,2.973 5.599,3.177 6.701,2.135 z m -117.821,-11.297 c 0.635,-1.123 0.851,-3.355 0.478,-4.959 l -0.678,-2.917 h 8.267 c 5.031,0 8.759,-0.466 9.525,-1.19 1.42,-1.342 1.724,-14.433 0.383,-16.431 -0.653,-0.972 -6.67,-1.198 -26.475,-0.992 l -25.631,0.266 v 7.438 c 0.011,10.933 -0.015,10.909 9.865,10.909 h 8.36 l -0.595,3.463 c -0.889,5.182 0.822,6.454 8.687,6.454 5.644,0 6.83,-0.31 7.81,-2.041 z m 321.269,-1.942 c 1.611,-0.942 1.836,-2.822 1.836,-15.299 0,-16.207 0.477,-15.429 -9.442,-15.429 -9.919,0 -9.442,-0.777 -9.442,15.42 0,7.819 0.392,14.445 0.872,14.725 1.982,1.158 14.426,1.606 16.176,0.583 z m -133.142,-4.14 c 6.372,-10.389 7.399,-15.273 3.051,-14.511 -2.217,0.388 -9.789,13.374 -9.434,16.178 0.465,3.668 3.615,2.846 6.383,-1.667 z m -52.223,2.849 c 0.324,-0.799 -1.335,-5.072 -3.687,-9.495 -3.197,-6.009 -4.804,-8.041 -6.364,-8.041 -3.159,0 -2.59,3.45 1.881,11.404 3.8,6.762 6.953,9.129 8.17,6.132 z m 24.932,-4.313 c 0.385,-0.363 0.7,-4.771 0.7,-9.795 0,-9.495 -1.096,-12.182 -4.222,-10.355 -1.972,1.152 -2.819,15.657 -1.092,18.707 1.177,2.079 3.255,2.729 4.614,1.443 z m -199.762,-12.042 c 0.047,-3.273 -0.323,-5.033 -0.975,-4.652 -1.257,0.734 -1.257,5.17 0,7.934 0.661,1.453 0.921,0.575 0.975,-3.282 z m 379.867,-4.034 c 0,-1.025 -0.708,-2.418 -1.574,-3.097 -1.969,-1.545 -4.721,0.26 -4.721,3.097 0,1.407 0.768,1.862 3.147,1.862 2.38,0 3.148,-0.455 3.148,-1.862 z m -323.984,-5.744 4.925,-0.432 1.609,-5.232 c 0.885,-2.877 2.167,-7.519 2.85,-10.315 2.074,-8.49201 3.483,-8.15101 -33.646,-8.15101 -25.741,0 -32.592,0.275 -34.178,1.371 -1.94,1.341 -1.934,1.589 0.28,11.52801 1.245,5.588 2.522,10.403 2.839,10.702 0.708,0.67 48.517,1.127 55.321,0.529 z m -50.193,-2.808 c -1.59,-0.469 -4.059,-14.264 -2.772,-15.48101 0.558,-0.527 12.737,-0.804 28.701,-0.651 l 27.732,0.265 -0.216,2.85501 c -0.119,1.571 -0.737,5.228 -1.373,8.126 -1.127,5.127 -1.262,5.278 -5.03,5.575 -4.874,0.384 -45.418,-0.21 -47.042,-0.689 z m 118.709,-5.599 c 5.6,-4.403 16.005,-10.60201 20.522,-12.22701 0.98,-0.353 3.619,0.84 6.567,2.969 2.711,1.95701 5.342,3.31701 5.846,3.02201 0.504,-0.294 1.247,-3.03401 1.651,-6.08801 0.679,-5.136 1.004,-5.659 4.341,-6.977 1.985,-0.784 8.437,-2.135 14.34,-3.003 5.902,-0.868 11.793,-1.759 13.091,-1.98 2.252,-0.384 2.361,-0.834 2.361,-9.805 v -9.403 h -5.733 c -13.321,0 -35.759,5.738 -51.446,13.155 -14.865,7.029 -33.048,19.298 -33.048,22.29901 0,2.008 11.551,13.156 13.536,13.064 0.922,-0.042 4.509,-2.304 7.972,-5.026 z m 161.08,-2.372 5.735,-5.492 -4.197,-3.40601 c -11.245,-9.127 -28.498,-18.477 -42.818,-23.206 -11.16,-3.685 -27.935,-7.032 -35.246,-7.032 h -5.344 v 7.873 7.873 l 4.984,0.56 c 6.57,0.738 23.125,4.072 26.681,5.373 2.342,0.857 2.926,1.826 3.488,5.791 1.089,7.67801 1.141,7.72101 5.503,4.515 2.163,-1.591 4.523,-3.216 5.244,-3.613 1.771,-0.972 11.794,4.19601 21.011,10.83401 4.141,2.982 7.91,5.422 8.377,5.422 0.466,0 3.428,-2.471 6.582,-5.492 z m 100.158,-5.629 c 4.688,-1.55801 5.77,-2.69101 5.77,-6.03801 0,-1.667 0.556,-4.484 1.235,-6.259 0.997,-2.605 0.952,-3.551 -0.232,-4.9 -1.285,-1.464 -2.902,-1.585 -13.038,-0.98 -15.427,0.92 -17.579,0.923 -26.873,0.04 -10.033,-0.953 -15.647,0.478 -15.647,3.987 0,1.289 0.472,2.62 1.049,2.957 0.577,0.337 1.056,2.26 1.065,4.273 0.01,2.014 0.363,4.146 0.787,4.738 1.187,1.65901 7.426,3.38601 12.234,3.38601 5.265,0 8.728,-2.13 10.694,-6.57601 1.878,-4.249 3.012,-4.211 5.213,0.173 2.903,5.78301 9.859,7.82101 17.743,5.19901 z m -38.309,-3.75501 c -1.072,0 -2.266,-0.966 -2.666,-2.156 -1.143,-3.404 2.104,-5.03 8.451,-4.231 2.886,0.364 5.403,0.795 5.593,0.96 0.192,0.164 -0.193,1.254 -0.855,2.423 -1.329,2.347 -5.015,4.111 -7.184,3.438 -0.768,-0.239 -2.271,-0.434 -3.339,-0.434 z m 24.83,-3.226 c -2.935,-3.73 -1.449,-4.797 5.061,-3.633 6.445,1.151 8.875,3.058 6.845,5.371 -2.289,2.607 -9.291,1.585 -11.906,-1.738 z m -67.178,-25.969 c 6.272,-2.577 8.375,-8.489 5.13,-14.42 -1.562,-2.856 -4.905,-4.618 -6.734,-3.549 -0.534,0.311 -2.194,0.127 -3.69,-0.411 -3.823,-1.374 -8.835,2.956 -9.152,7.905 -0.495,7.737 0.074,10.791 1.991,10.673 1.01,-0.062 3.488,0.17 5.508,0.517 2.227,0.382 4.961,0.101 6.947,-0.715 z m -8.432,-5.423 c -4.821,-5.036 1.413,-13.224 7.295,-9.581 3.415,2.115 4.314,5.878 2.15,8.999 -2.098,3.028 -6.825,3.319 -9.445,0.582 z m -28.94,-0.139 c -8.944,-0.376 -22.979,-0.742 -31.188,-0.814 -19.51,-0.172 -18.338,1.368 -18.033,-23.679 0.151,-12.415 -0.169,-19.383 -0.948,-20.653 -0.894,-1.456 -1.184,3.472 -1.208,20.566 -0.018,12.364 0.255,23.186 0.605,24.049 0.564,1.39 4.419,1.549 33.835,1.391 28.94,-0.154 31.112,-0.265 16.937,-0.86 z m -146.042,-0.152 c 2.293,-2.168 1.319,-2.777 -4.437,-2.777 -7.08,0 -9.16,-1.654 -8.825,-7.02 0.132,-2.109 -0.088,-4.145 -0.488,-4.523 -1.351,-1.277 -2.186,0.665 -1.945,4.523 0.335,5.366 -1.744,7.02 -8.825,7.02 -5.756,0 -6.73,0.609 -4.437,2.777 1.745,1.649 27.213,1.649 28.957,0 z m 149.4,-4.51 15.423,-0.303 -0.212,-4.685 -0.213,-4.684 -31.21,-0.263 c -20.553,-0.173 -31.241,0.081 -31.298,0.744 -0.355,4.082 -0.144,7.784 0.499,8.768 0.761,1.163 6.616,1.216 47.011,0.423 z m -106.717,-7.126 c 0.96,-3.703 1.593,-8.246 1.406,-10.094 -0.322,-3.186 -0.572,-3.377 -4.798,-3.666 -4.524,-0.31 -5.522,-1.289 -3.148,-3.093 10.167,-7.724 12.176,-11.299 10.183,-18.122 -1.062,-3.635 -7.205,-9.72 -9.813,-9.72 -0.766,0 -3.175,-1.339 -5.353,-2.975 -7.322,-5.5 -16.685,-3.34 -19.415,4.478 -1.447,4.144 -0.051,9.162 3.34,12.014 3.109,2.613 6.057,9.129 6.085,13.445 0.021,3.405 -0.211,3.678 -3.387,3.967 l -3.41,0.311 0.073,5.95 c 0.04,3.273 0.639,7.816 1.331,10.095 l 1.259,4.144 h 11.951 11.95 z m -17.278,-15.191 c 0.011,-0.682 0.413,-1.83 0.897,-2.552 0.711,-1.061 1.213,-1 2.607,0.318 2.444,2.31 2.143,3.474 -0.897,3.474 -1.442,0 -2.615,-0.558 -2.607,-1.24 z m -37.827,9.717 c 2.016,-2.296 0.896,-5.006 -2.071,-5.006 -1.951,0 -2.697,0.597 -2.962,2.367 -0.525,3.51 2.757,5.231 5.033,2.639 z m 175.6,-2.196 c 0.384,-0.364 0.699,-5.05 0.699,-10.413 v -9.752 h -19.821 c -17.107,0 -19.909,0.215 -20.459,1.568 -0.35,0.863 -0.637,4.843 -0.637,8.845 0,4.002 0.287,7.982 0.637,8.844 0.549,1.351 3.29,1.569 19.759,1.569 10.517,0 19.437,-0.297 19.822,-0.661 z m -187.208,-0.246 c 1.448,-0.867 0.938,-4.066 -0.645,-4.036 -1.972,0.036 -3.695,1.899 -3.104,3.355 0.727,1.791 1.623,1.954 3.749,0.681 z m 206.921,-5.539 c 0.042,-5.515 0.044,-18.302 0,-25.549 -0.019,-3.352 -0.502,-4.895 -1.667,-5.318 -2.834,-1.028 -4.725,1.522 -4.765,6.429 -0.259,31.749 -0.516,29.397 3.201,29.397 3.123,0 3.19,-0.104 3.227,-4.959 z m -68.324,-0.87 c 0,-1.297 -0.708,-2.914 -1.574,-3.593 -0.865,-0.679 -1.573,-1.787 -1.573,-2.462 0,-0.676 -1.181,-2.872 -2.623,-4.882 -1.443,-2.009 -2.623,-3.856 -2.623,-4.105 0,-0.248 13.87,-0.452 30.821,-0.452 26.131,0 31.021,-0.226 32.129,-1.489 1.738,-1.979 0.864,-12.261 -1.145,-13.463 -0.813,-0.487 -16.631,-0.892 -35.151,-0.9 -32.351,-0.015 -33.748,0.062 -35.572,1.968 -1.044,1.091 -1.472,1.99 -0.949,1.999 0.522,0.008 0.31,0.397 -0.47,0.865 -1.159,0.694 -1.012,1.647 0.804,5.191 2.487,4.855 8.085,12.674 11.621,16.232 1.281,1.289 2.039,2.786 1.684,3.328 -0.689,1.054 2.026,4.12 3.647,4.12 0.536,0 0.974,-1.061 0.974,-2.357 z m 3.148,-25.411 c 0,-0.628 7.693,-0.992 20.983,-0.992 13.289,0 20.983,0.364 20.983,0.992 0,0.628 -7.694,0.992 -20.983,0.992 -13.29,0 -20.983,-0.364 -20.983,-0.992 z m -138.626,25.446 c 1.477,-1.683 -0.375,-2.636 -5.119,-2.636 -2.31,0 -6.285,2.084 -6.284,3.294 0,0.097 2.287,0.307 5.082,0.465 3.426,0.195 5.485,-0.171 6.321,-1.123 z"
     id="path839" />
  <path
     inkscape:connector-curvature="0"
     style="fill:#ffff00;fill-opacity:1;stroke-width:1.02004015"
     d="m 785.55755,551.71472 c 0,-10.909 -0.153,-15.507 -0.341,-10.218 -0.188,5.289 -0.189,14.215 0,19.835 0.187,5.62 0.341,1.292 0.342,-9.617 z m -88.244,14.783 c 1.086,-1.567 1.538,-3.495 1.156,-4.932 -0.467,-1.759 -0.254,-2.225 0.834,-1.83 1.71,0.62 5.91,-4.024 5.91,-6.535 0,-1.843 -7.303,-6.94 -9.945,-6.94 -2.119,0 -2.136,5.284 -0.022,6.942 2.24,1.757 1.947,3.967 -0.524,3.967 -2.287,0 -2.571,1.628 -1.425,8.182 0.767,4.389 1.603,4.627 4.016,1.146 z m 135.325,-2.314 c 0.392,-0.601 0.171,-3.563 -0.492,-6.582 -0.928,-4.226 -0.915,-5.82 0.057,-6.928 0.747,-0.851 0.828,-1.438 0.197,-1.438 -1.452,0 -2.412,-2.632 -1.647,-4.517 0.353,-0.869 1.599,-1.423 2.853,-1.27 1.224,0.149 2.861,-0.102 3.638,-0.559 0.872,-0.513 2.006,-0.27 2.965,0.637 1.289,1.219 1.361,2.449 0.424,7.242 -0.621,3.175 -1.087,6.696 -1.035,7.823 0.167,3.645 2.843,-7.262 3.216,-13.109 0.298,-4.662 0.083,-5.596 -1.212,-5.262 -4.976,1.286 -8.63,1.162 -11.112,-0.375 -2.466,-1.527 -2.865,-1.537 -4.534,-0.109 -1.007,0.861 -2.383,1.565 -3.059,1.565 -2.236,0 -1.274,1.84 1.132,2.163 1.849,0.248 2.36,0.961 2.36,3.292 0,1.636 0.605,3.425 1.345,3.976 0.739,0.551 1.547,3.635 1.795,6.854 0.455,5.9 1.757,8.664 3.108,6.597 z m -123.333,-16.536 c 3.132,-3.763 2.744,-5.848 -1.529,-8.231 -4.836,-2.697 -6.575,-2.627 -7.351,0.297 -1.104,4.157 -0.058,6.873 3.372,8.762 l 3.306,1.819 z m 6.363,-10.99 c 3.03,-3.641 2.426,-5.126 -3.312,-8.141 -5.483,-2.881 -6.694,-2.48 -7.762,2.57 -0.599,2.831 -0.271,3.343 3.631,5.672 2.36,1.408 4.501,2.56 4.76,2.56 0.258,0 1.465,-1.198 2.683,-2.661 z m 53.169,-17.719 c 23.105,-3.729 49.842,-15.541 66.995,-29.597 l 4.197,-3.439 -6.262,-6.02 c -3.445,-3.31 -6.641,-6.019 -7.105,-6.019 -0.463,0 -3.783,2.156 -7.377,4.79 -8.832,6.475 -18.894,12.07 -21.708,12.07 -1.27,0 -4.353,-1.584 -6.851,-3.519 -2.663,-2.062 -4.817,-3.098 -5.207,-2.503 -0.365,0.559 -0.949,3.291 -1.297,6.071 -0.455,3.633 -1.254,5.428 -2.839,6.379 -2.404,1.442 -14.268,3.993 -24.237,5.211 l -6.295,0.769 v 8.424 8.424 l 4.721,0.169 c 2.597,0.093 8.566,-0.451 13.265,-1.21 z m -29.002,-7.292 v -7.836 l -6.557,-0.675 c -8.204,-0.845 -18.858,-3.024 -24.545,-5.02 -4.562,-1.601 -5.578,-3.246 -5.604,-9.069 -0.02,-4.409 -1.191,-4.667 -5.899,-1.299 -2.246,1.606 -4.965,2.933 -6.043,2.948 -2.473,0.035 -12.997,-5.973 -20.263,-11.568 -3.052,-2.35 -5.926,-4.272 -6.387,-4.272 -0.46,0 -3.372,2.426 -6.47,5.391 l -5.632,5.391 3.466,2.791 c 13.485,10.858 29.119,19.142 46.216,24.488 10.808,3.38 27.422,6.567 34.231,6.567 h 3.487 z m 183.077,-11.998 c 0.356,-0.545 -0.116,-0.992 -1.05,-0.992 -0.933,0 -1.405,0.447 -1.049,0.992 0.357,0.546 0.829,0.992 1.049,0.992 0.221,0 0.693,-0.446 1.05,-0.992 z m 11.54,-16.996 c 1.025,-2.526 0.08,-25.655 -1.049,-25.655 -1.417,0 -1.979,24.813 -0.591,26.125 0.697,0.659 1.245,0.502 1.64,-0.47 z m -37.77,0 c 1.026,-2.526 0.08,-25.655 -1.048,-25.655 -1.418,0 -1.98,24.813 -0.592,26.125 0.697,0.659 1.246,0.502 1.64,-0.47 z m -8.643,-1.444 c 0.426,-0.404 0.775,-5.538 0.775,-11.41 0,-9.806 -0.171,-10.729 -2.098,-11.307 -2.843,-0.853 -2.828,-7.504 0.034,-14.733 2.416,-6.103 9.785,-13.345 16.382,-16.098 5.392,-2.25 17.382,-2.25 22.774,0 6.597,2.753 13.966,9.995 16.382,16.098 2.861,7.229 2.876,13.88 0.034,14.733 -1.929,0.579 -2.098,1.501 -2.098,11.472 0,8.901 0.277,10.842 1.55,10.842 3.665,0 7.226,-9.019 5.668,-14.354 -0.668,-2.286 -0.649,-5.447 0.056,-9.193 3.801,-20.215 -13.566,-38.236 -35.39,-36.72 -20.05,1.393 -34.133,18.236 -30.609,36.609 0.738,3.845 0.773,6.995 0.105,9.284 -0.65,2.227 -0.65,4.705 0,6.935 1.149,3.933 5.264,8.948 6.435,7.842 z m -35.242,-7.783 c 11.172,-11.897 22.162,-31.904 27.093,-49.323 2.86,-10.099 5.364,-26.581 4.4,-28.955 -0.534,-1.316 -2.301,-1.615 -9.544,-1.615 -4.889,0 -9.113,0.342 -9.386,0.76 -0.273,0.417 -1.019,4.322 -1.657,8.677 -1.807,12.331 -4.226,20.628 -6.572,22.547 -1.167,0.954 -3.604,1.741 -5.416,1.749 -4.086,0.017 -8.014,0.969 -8.014,1.943 0,0.403 1.696,2.833 3.769,5.4 2.796,3.461 3.608,5.276 3.143,7.026 -0.757,2.854 -12.114,19.085 -15.2,21.725 -1.212,1.037 -2.204,2.296 -2.204,2.797 0,1.428 11.703,12.666 13.19,12.666 0.732,0 3.611,-2.429 6.398,-5.397 z m -201.849,-1.322 6.049,-5.779 -5.607,-6.892 c -7.395,-9.089 -13.323,-18.527 -13.323,-21.211 0,-1.188 1.518,-3.945 3.373,-6.127 3.731,-4.389 3.092,-5.79 -2.655,-5.819 -4.116,-0.021 -6.928,-1.66 -8.177,-4.763 -1.387,-3.449 -3.67,-14.083 -4.569,-21.285 l -0.713,-5.703 h -8.999 -8.999 l 0.652,8.69 c 1.243,16.551 8.397,37.248 18.356,53.107 5.453,8.684 15.351,20.869 17.291,21.287 0.699,0.151 3.993,-2.327 7.321,-5.505 z m 277.529,-2.951 c -0.286,-4.218 -0.566,-4.686 -2.68,-4.474 -2.26,0.226 -2.361,-0.08 -2.361,-7.19 0,-5.94 -0.315,-7.427 -1.574,-7.427 -2.382,0 -2.263,13.421 0.132,14.688 0.967,0.512 1.698,2.141 1.689,3.768 -0.018,3.25 1.398,5.346 3.611,5.346 1.138,0 1.425,-1.143 1.183,-4.711 z m -9.313,3.309 c 1.742,-1.984 0.556,-3.557 -2.682,-3.557 -2.128,0 -2.57,0.427 -2.299,2.222 0.402,2.663 3.165,3.404 4.981,1.335 z m -328.658,-0.678 c 5.137,-1.406 8.743,-6.121 8.743,-11.434 0,-2.44 -0.717,-5.745 -1.592,-7.345 -4.309,-7.878 -18.543,-7.742 -23.218,0.221 -2.387,4.067 -1.768,11.168 1.271,14.582 2.184,2.454 8.566,5.35 10.949,4.969 0.288,-0.046 2.02,-0.493 3.847,-0.993 z m 313.443,-4.532 c 0.79,-1.947 -0.815,-3.82 -2.453,-2.863 -1.654,0.966 -1.402,4.516 0.32,4.516 0.804,0 1.764,-0.744 2.133,-1.653 z m 9.345,-2.975 c 0.385,-0.363 0.7,-4.603 0.7,-9.421 0,-7.955 -0.184,-8.761 -2,-8.761 -1.835,0 -1.976,0.712 -1.718,8.678 0.155,4.773 0.347,9.012 0.426,9.422 0.179,0.921 1.655,0.969 2.592,0.082 z m -368.717,-11.632 c 5.597,-2.932 6.888,-9.641 2.75,-14.29 -3.133,-3.519 -7.219,-4.448 -11.73,-2.667 -6.685,2.641 -8.034,10.935 -2.533,15.58 3.572,3.018 7.488,3.486 11.513,1.377 z m -10.826,-5.837 c -2.178,-5.849 3.965,-10.597 9.376,-7.245 3.798,2.352 3.692,7.919 -0.188,9.841 -3.804,1.884 -7.956,0.711 -9.188,-2.596 z m 6.745,-2.2 c 0,-0.818 -0.472,-1.488 -1.049,-1.488 -0.577,0 -1.049,0.67 -1.049,1.488 0,0.818 0.472,1.487 1.049,1.487 0.577,0 1.049,-0.669 1.049,-1.487 z m 212.158,4.596 c 12.134,-0.835 12.661,-1.367 13.215,-13.33 0.54,-11.661 -0.181,-12.589 -9.785,-12.589 -3.676,0 -6.903,-0.337 -7.173,-0.748 -0.6,-0.918 7.348,-32.461 8.846,-35.108 0.592,-1.045 2.477,-2.166 4.189,-2.489 1.712,-0.324 3.368,-0.98 3.681,-1.459 1.141,-1.744 -2.657,-1.966 -6.228,-0.364 -3.015,1.352 -4.091,1.427 -6.081,0.42 -4.753,-2.404 -9.429,-2.826 -13.646,-1.231 -3.575,1.352 -4.482,1.359 -7.968,0.067 -6.655,-2.467 -9.42,0.086 -2.888,2.666 2.019,0.797 4.143,2.476 4.72,3.732 1.021,2.219 8.397,31.722 8.397,33.584 0,0.512 -3.316,0.93 -7.37,0.93 -6.946,0 -7.429,0.147 -8.393,2.544 -1.16,2.885 -1.357,12.489 -0.353,17.234 1.272,6.012 7.616,7.464 26.837,6.141 z m -11.486,-45.628 c -1.978,-8.331 -3.348,-15.761 -3.044,-16.51 0.305,-0.749 2.559,-1.873 5.01,-2.497 3.678,-0.936 5.064,-0.861 7.923,0.428 1.906,0.859 3.47,2.127 3.475,2.818 0.024,3.505 -7.781,31.534 -8.701,31.244 -0.587,-0.185 -2.685,-7.152 -4.663,-15.483 z m -179.039,30.708 c 11.703,-6.745 1.408,-23.636 -10.661,-17.492 -6.719,3.42 -7.709,10.768 -2.159,16.014 4.138,3.911 7.855,4.34 12.82,1.478 z m -8.439,-5.957 c -2.611,-2.727 -0.545,-6.276 3.401,-5.845 3.376,0.369 4.324,3.698 1.746,6.134 -2.189,2.07 -2.928,2.028 -5.147,-0.289 z m 329.177,-44.44 c 0.891,-1.364 -1.318,-17.194 -3.637,-26.056 -4.448,-16.999 -12.361,-32.618 -23.741,-46.86 -3.813,-4.773 -7.689,-8.677 -8.613,-8.677 -1.651,0 -11.568,8.775 -11.568,10.235 0,0.41 2.278,3.556 5.063,6.99 6.814,8.404 12.772,17.811 12.772,20.166 0,1.058 -1.403,3.678 -3.118,5.82 -1.715,2.143 -3.132,4.203 -3.148,4.579 -0.016,0.376 2.214,0.991 4.955,1.366 2.741,0.376 5.755,1.062 6.7,1.523 1.94,0.949 4.755,10.781 6.611,23.089 l 1.214,8.05 7.993,0.288 c 4.396,0.158 8.229,-0.072 8.517,-0.513 z m 67.112,-10.881 c 1.566,-0.384 1.834,-1.338 1.574,-5.588 l -0.314,-5.124 h -4.197 -4.197 l -0.312,5.078 c -0.282,4.58 -0.075,5.139 2.098,5.689 1.326,0.336 2.647,0.565 2.936,0.509 0.288,-0.056 1.374,-0.31 2.412,-0.564 z m -23.608,-5.01 c 0.643,-2.045 1.363,-6.62 1.601,-10.165 0.238,-3.546 0.231,-4.752 -0.016,-2.68 -0.342,2.872 -1.056,3.984 -3.009,4.686 -2,0.719 -2.557,1.631 -2.546,4.168 0.018,3.959 1.011,7.71 2.041,7.71 0.418,0 1.286,-1.673 1.929,-3.719 z m -127.075,0.041 c 4.011,-0.486 6.699,-2.923 4.217,-3.823 -2.67,-0.968 -10.696,0.953 -10.696,2.56 0,1.588 1.457,1.872 6.479,1.263 z m -100.866,-0.345 c 1.198,-1.832 -0.874,-2.877 -6.256,-3.153 -5.088,-0.262 -7.954,1.53 -4.068,2.543 5.288,1.377 9.654,1.636 10.324,0.61 z m 253.198,-18.137 c 0.852,-0.97 1.161,-4.91 0.959,-12.198 l -0.299,-10.766 h -5.246 -5.246 v 11.901 11.901 l 4.288,0.297 c 2.78,0.192 4.729,-0.206 5.544,-1.135 z m -157.49,-3.153 c 5.144,-3.275 7.19,-6.422 4.173,-6.422 -2.186,0 -12.472,6.988 -12.05,8.186 0.74,2.099 2.389,1.73 7.877,-1.764 z m -89.993,1.759 c -0.024,-2.177 -10.089,-8.533 -12.264,-7.744 -2.154,0.782 -0.544,2.543 5.898,6.45 5.795,3.516 6.391,3.637 6.366,1.294 z m -118.915,-10.661 c 1.353,-3.331 -0.405,-4.463 -6.932,-4.463 h -6.327 v 2.976 2.975 h 6.327 c 4.657,0 6.488,-0.393 6.932,-1.488 z m 323.286,-15.082 -0.293,-13.678 -7.606,-0.292 -7.606,-0.291 -0.188,11.448 c -0.102,6.297 -0.221,12.453 -0.262,13.68 -0.07,2.105 0.387,2.248 8.086,2.522 l 8.161,0.29 z m -132.616,6.755 c 4.048,-7.281 4.693,-10.02 2.359,-10.02 -1.556,0 -9.048,12.643 -9.048,15.269 0,3.614 3.127,1.161 6.689,-5.249 z m -53.901,5.864 c 0,-2.169 -7.898,-15.884 -9.148,-15.884 -0.739,0 -1.343,0.681 -1.343,1.512 0,2.753 7.329,15.348 8.931,15.348 0.858,0 1.56,-0.439 1.56,-0.976 z m 24.489,-4.653 c 0.38,-0.359 0.691,-4.595 0.691,-9.413 0,-6.827 -0.323,-8.76 -1.462,-8.76 -2.109,0 -2.735,2.259 -2.735,9.877 0,4.428 0.483,7.118 1.408,7.844 0.775,0.608 1.719,0.811 2.098,0.452 z m -149.6,-1.032 6.557,-0.376 v -7.391 -7.391 h -24.655 -24.655 v 5.42 c 0,4.255 0.417,5.63 1.938,6.4 1.305,0.66 2.302,0.635 3.056,-0.077 1.326,-1.253 3.399,-0.278 3.399,1.598 0,0.728 0.603,1.542 1.34,1.809 1.542,0.559 23.311,0.564 33.02,0.008 z m 329.696,-12.557 c 0,-0.206 -0.653,-0.887 -1.452,-1.513 -1.119,-0.878 -1.591,-0.792 -2.065,0.375 -0.422,1.04 0.031,1.513 1.451,1.513 1.136,0 2.066,-0.169 2.066,-0.375 z m -93.339,-18.01 5.735,-5.492 -4.197,-3.40601 c -11.245,-9.127 -28.498,-18.477 -42.818,-23.206 -11.16,-3.685 -27.935,-7.032 -35.246,-7.032 h -5.344 v 7.873 7.873 l 4.984,0.56 c 6.57,0.738 23.125,4.072 26.681,5.373 2.342,0.857 2.926,1.826 3.488,5.791 1.089,7.67801 1.141,7.72101 5.503,4.515 2.163,-1.591 4.523,-3.216 5.244,-3.613 1.771,-0.972 11.794,4.19601 21.011,10.83401 4.141,2.982 7.91,5.422 8.377,5.422 0.466,0 3.428,-2.471 6.582,-5.492 z m -221.993,-7.21701 c 1.669,-4.971 0.614,-5.142 -31.61,-5.142 -29.845,0 -33.9,0.419 -33.9,3.506 0,1.655 1.652,1.946 2.623,0.461 0.407,-0.624 11.737,-0.992 30.521,-0.992 h 29.873 l 0.866,2.215 0.867,2.21501 z m 325.254,-2.415 c 0.227,-0.682 0.656,-2.579 0.952,-4.215 0.297,-1.636 0.851,-4.161 1.231,-5.611 0.737,-2.807 -1.097,-3.891 -5.066,-2.992 -1.758,0.398 -1.766,0.542 -0.126,2.255 1.323,1.382 1.628,3.053 1.246,6.816 -0.279,2.743 -0.089,4.987 0.421,4.987 0.51,0 1.114,-0.558 1.342,-1.24 z m -45.642,-0.829 c -0.644,-1.137 -1.427,-1.826 -1.74,-1.53 -0.865,0.817 0.521,3.599 1.792,3.599 0.776,0 0.76,-0.635 -0.052,-2.069 z m 27.29,-8.014 2.198,-2.81 h -7.376 c -4.056,0 -7.36,0.335 -7.34,0.744 0.019,0.409 0.857,1.673 1.862,2.81 2.757,3.117 7.918,2.756 10.656,-0.744 z m -28.291,1.783 c 0,-0.881 0.945,-2.158 2.099,-2.84 3.104,-1.832 2.551,-2.912 -1.312,-2.56 -3.876,0.354 -5.213,3.528 -2.411,5.726 1.352,1.061 1.624,1.006 1.624,-0.326 z m -48.785,-22.444 c 0.356,-0.546 2.776,-0.992 5.377,-0.992 5.788,0 8.566,-1.307 9.917,-4.666 1.625,-4.041 -0.526,-8.721 -4.913,-10.689 -3.612,-1.62 -3.754,-1.601 -7.295,0.952 -3.336,2.405 -3.611,3.014 -3.611,8.007 0,2.973 -0.472,5.404 -1.049,5.404 -0.577,0 -1.049,0.67 -1.049,1.488 0,1.684 1.643,1.995 2.623,0.496 z m 3.236,-4.866 c -4.821,-5.036 1.413,-13.224 7.295,-9.581 3.415,2.115 4.314,5.878 2.15,8.999 -2.098,3.028 -6.825,3.319 -9.445,0.582 z m -174.982,-0.291 c 2.293,-2.168 1.319,-2.777 -4.437,-2.777 -7.08,0 -9.16,-1.654 -8.825,-7.02 0.132,-2.109 -0.088,-4.145 -0.488,-4.523 -1.351,-1.277 -2.186,0.665 -1.945,4.523 0.335,5.366 -1.744,7.02 -8.825,7.02 -5.756,0 -6.73,0.609 -4.437,2.777 1.745,1.649 27.213,1.649 28.957,0 z m 40.516,-10.959 c 0.971,-3.409 2.26,-7.144 2.865,-8.299 1.991,-3.803 0.765,-5.801 -3.776,-6.152 -2.28,-0.177 -4.742,-1.065 -5.5,-1.984 -1.281,-1.554 -1.466,-1.549 -2.799,0.071 -1.633,1.986 -4.927,2.275 -6.712,0.588 -0.867,-0.82 -1.601,-0.845 -2.57,-0.088 -0.746,0.583 -2.772,1.211 -4.503,1.396 -2.695,0.287 -3.195,0.799 -3.476,3.559 -0.181,1.773 0.114,3.223 0.655,3.223 0.542,0 1.286,1.426 1.655,3.169 0.369,1.743 1.154,4.867 1.746,6.942 l 1.074,3.773 h 9.789 9.788 z m 122.662,-8.347 c 0.384,-0.364 0.699,-5.05 0.699,-10.413 v -9.752 h -19.821 c -17.107,0 -19.909,0.215 -20.459,1.568 -0.35,0.863 -0.637,4.843 -0.637,8.845 0,4.002 0.287,7.982 0.637,8.844 0.549,1.351 3.29,1.569 19.759,1.569 10.517,0 19.437,-0.297 19.822,-0.661 z m -176.607,-0.331 c 0,-0.545 -0.472,-0.991 -1.049,-0.991 -0.577,0 -1.05,0.446 -1.05,0.991 0,0.546 0.473,0.992 1.05,0.992 0.577,0 1.049,-0.446 1.049,-0.992 z m -9.865,-1.524 c -0.335,-2.159 -1.361,-2.707 -3.222,-1.723 -1.47,0.778 -1.351,1.053 0.867,2.009 2.077,0.894 2.53,0.839 2.355,-0.286 z m 137.861,-4.8 c 0,-1.297 -0.708,-2.914 -1.574,-3.593 -0.865,-0.679 -1.573,-1.787 -1.573,-2.462 0,-0.676 -1.181,-2.872 -2.623,-4.882 -4.887,-6.806 -6.02,-6.54 27.855,-6.54 h 30.477 l -0.314,-5.703 c -0.313,-5.665 -0.338,-5.704 -3.8,-6.018 -3.266,-0.297 -3.41,-0.183 -2.288,1.799 2.557,4.516 0.527,4.963 -22.554,4.963 -22.637,0 -24.146,-0.313 -22.915,-4.762 0.519,-1.878 0.178,-2.18 -2.457,-2.18 -1.683,0 -3.65,0.558 -4.371,1.24 -1.258,1.189 -2.822,1.457 -10.424,1.785 -4.723,0.203 -4.345,1.413 4.36,13.957 1.657,2.387 4.105,5.456 5.441,6.82 1.337,1.363 2.921,3.706 3.52,5.206 1.339,3.351 3.24,3.567 3.24,0.37 z m -138.238,0.664 c -1.305,-0.237 -3.193,-0.228 -4.196,0.02 -1.003,0.249 0.065,0.443 2.372,0.432 2.309,-0.011 3.129,-0.215 1.824,-0.452 z m 47.891,-11.487 c 0.096,-3.018 0.947,-4.502 4.317,-7.532 5.327,-4.791 5.673,-8.789 1.13,-13.083 -6.221,-5.881 -15.708,-2.172 -15.785,6.171 -0.032,3.557 1.517,5.677 6.66,9.113 1.085,0.725 2.329,3.067 2.765,5.204 l 0.792,3.886 z m 158.067,-11.942 c 1.064,-4.009 0.178,-7.109 -2.034,-7.109 -2.96,0 -4.432,2.823 -3.199,6.136 1.357,3.648 4.374,4.208 5.233,0.973 z"
     id="path837" />
  <path
     inkscape:connector-curvature="0"
     style="fill:#ffff00;fill-opacity:1;stroke-width:1.02004015"
     d="m 785.55755,551.71472 c 0,-10.909 -0.153,-15.507 -0.341,-10.218 -0.188,5.289 -0.189,14.215 0,19.835 0.187,5.62 0.341,1.292 0.342,-9.617 z m -88.246,13.098 c 0.45,-0.978 0.523,-2.056 0.163,-2.397 -1.066,-1.007 -1.924,0.408 -1.434,2.362 0.435,1.733 0.491,1.734 1.271,0.035 z m 144.097,-10.346 c 1.788,-8.883 2.413,-14.855 1.378,-13.165 -1.119,1.828 -3.748,17.742 -3.041,18.41 0.281,0.265 1.029,-2.095 1.663,-5.245 z m -139.595,0.733 c 1.68,-2.544 1.64,-2.989 -0.272,-2.989 -0.866,0 -1.574,0.41 -1.574,0.911 0,0.501 -0.286,1.616 -0.637,2.479 -0.909,2.24 0.935,1.942 2.483,-0.401 z m 221.099,-55.551 c 0.356,-0.545 -0.116,-0.992 -1.05,-0.992 -0.933,0 -1.405,0.447 -1.049,0.992 0.357,0.546 0.829,0.992 1.049,0.992 0.221,0 0.693,-0.446 1.05,-0.992 z m 11.54,-16.996 c 1.025,-2.526 0.08,-25.655 -1.049,-25.655 -1.417,0 -1.979,24.813 -0.591,26.125 0.697,0.659 1.245,0.502 1.64,-0.47 z m -37.77,0 c 1.026,-2.526 0.08,-25.655 -1.048,-25.655 -1.418,0 -1.98,24.813 -0.592,26.125 0.697,0.659 1.246,0.502 1.64,-0.47 z m -8.643,-1.444 c 0.426,-0.404 0.775,-5.538 0.775,-11.41 0,-9.806 -0.171,-10.729 -2.098,-11.307 -2.843,-0.853 -2.828,-7.504 0.034,-14.733 2.416,-6.103 9.785,-13.345 16.382,-16.098 5.392,-2.25 17.382,-2.25 22.774,0 6.597,2.753 13.966,9.995 16.382,16.098 2.861,7.229 2.876,13.88 0.034,14.733 -1.929,0.579 -2.098,1.501 -2.098,11.472 0,8.901 0.277,10.842 1.55,10.842 3.665,0 7.226,-9.019 5.668,-14.354 -0.668,-2.286 -0.649,-5.447 0.056,-9.193 3.801,-20.215 -13.566,-38.236 -35.39,-36.72 -20.05,1.393 -34.133,18.236 -30.609,36.609 0.738,3.845 0.773,6.995 0.105,9.284 -0.65,2.227 -0.65,4.705 0,6.935 1.149,3.933 5.264,8.948 6.435,7.842 z m -38.563,-4.711 c 0.574,-0.733 3.907,-4.9 7.406,-9.258 6.496,-8.093 14.249,-21.294 18.243,-31.062 3.488,-8.53 7.34,-24.49 8.079,-33.471 l 0.674,-8.182 h -9.025 -9.025 l -0.579,3.719 c -1.603,10.307 -3.873,21.212 -5.127,24.636 -1.505,4.11 -3.426,5.089 -10.327,5.265 -2.13,0.055 -4.128,0.491 -4.441,0.97 -0.313,0.478 1.119,2.961 3.183,5.515 2.781,3.443 3.59,5.256 3.126,7.005 -0.758,2.854 -12.115,19.085 -15.2,21.725 -1.213,1.037 -2.205,2.29 -2.205,2.783 0,1.619 10.756,11.688 12.485,11.688 0.929,0 2.159,-0.6 2.733,-1.333 z m -198.528,-4.394 6.049,-5.779 -5.607,-6.892 c -7.395,-9.089 -13.323,-18.527 -13.323,-21.211 0,-1.188 1.518,-3.945 3.373,-6.127 3.731,-4.389 3.092,-5.79 -2.655,-5.819 -4.116,-0.021 -6.928,-1.66 -8.177,-4.763 -1.387,-3.449 -3.67,-14.083 -4.569,-21.285 l -0.713,-5.703 h -8.999 -8.999 l 0.652,8.69 c 1.243,16.551 8.397,37.248 18.356,53.107 5.453,8.684 15.351,20.869 17.291,21.287 0.699,0.151 3.993,-2.327 7.321,-5.505 z m -60.391,-1.911 c 4.063,-0.743 7.642,-5.831 7.642,-10.862 0,-9.139 -10.338,-13.492 -18.991,-7.996 -3.085,1.959 -3.608,2.888 -3.883,6.897 -0.342,4.976 1.948,9.682 4.71,9.682 0.84,0 2.236,0.669 3.102,1.487 1.558,1.473 2.911,1.617 7.42,0.792 z m -44.24,-19.78 c 7.012,-7.152 -1.721,-18.307 -10.842,-13.849 -1.692,0.827 -3.642,2.795 -4.334,4.373 -3.844,8.774 8.38,16.407 15.176,9.476 z m -12.378,-1.538 c -2.572,-2.813 -2.285,-6.412 0.739,-9.271 2.867,-2.71 4.489,-2.964 8.339,-1.306 5.518,2.376 5.255,9.757 -0.443,12.467 -3.129,1.488 -6.15,0.826 -8.635,-1.89 z m 218.715,0.329 c 11.791,-0.811 12.548,-1.495 13.186,-11.918 0.267,-4.357 0.181,-9.066 -0.19,-10.465 -0.645,-2.428 -1.01,-2.544 -8.037,-2.544 -5.04,0 -8.184,-0.51 -9.973,-1.618 -2.417,-1.497 -2.756,-1.497 -4.505,0 -1.373,1.175 -3.921,1.618 -9.293,1.618 -6.789,0 -7.454,0.185 -8.034,2.232 -0.837,2.953 -0.832,12.58 0.01,16.554 1.272,6.012 7.617,7.464 26.838,6.141 z m -14.804,-62.892 c 1.659,-2.164 1.623,-2.2 -2.212,-2.2 -3.834,0 -3.871,0.036 -2.212,2.2 0.928,1.21 1.924,2.2 2.212,2.2 0.289,0 1.284,-0.99 2.212,-2.2 z m 19.296,0.279 c 0.356,-0.545 -0.087,-0.992 -0.987,-0.992 -0.9,0 -1.636,0.447 -1.636,0.992 0,0.546 0.444,0.992 0.987,0.992 0.543,0 1.279,-0.446 1.636,-0.992 z m 125.721,-2.704 c 0.891,-1.364 -1.318,-17.194 -3.637,-26.056 -4.448,-16.999 -12.361,-32.618 -23.741,-46.86 -3.813,-4.773 -7.689,-8.677 -8.613,-8.677 -1.651,0 -11.568,8.775 -11.568,10.235 0,0.41 2.278,3.556 5.063,6.99 6.814,8.404 12.772,17.811 12.772,20.166 0,1.058 -1.403,3.678 -3.118,5.82 -1.715,2.143 -3.132,4.203 -3.148,4.579 -0.016,0.376 2.214,0.991 4.955,1.366 2.741,0.376 5.755,1.062 6.7,1.523 1.94,0.949 4.755,10.781 6.611,23.089 l 1.214,8.05 7.993,0.288 c 4.396,0.158 8.229,-0.072 8.517,-0.513 z m -83.571,-15.85 c 4.011,-0.486 6.699,-2.923 4.217,-3.823 -2.67,-0.968 -10.696,0.953 -10.696,2.56 0,1.588 1.457,1.872 6.479,1.263 z m -100.866,-0.345 c 1.198,-1.832 -0.874,-2.877 -6.256,-3.153 -5.088,-0.262 -7.954,1.53 -4.068,2.543 5.288,1.377 9.654,1.636 10.324,0.61 z m 228.566,-1.513 c 1.407,-3.465 0.702,-5.373 -1.986,-5.373 -2.298,0 -2.623,0.43 -2.623,3.471 0,2.745 0.416,3.471 1.986,3.471 1.092,0 2.273,-0.706 2.623,-1.569 z m -132.858,-19.777 c 5.144,-3.275 7.19,-6.422 4.173,-6.422 -2.186,0 -12.472,6.988 -12.05,8.186 0.74,2.099 2.389,1.73 7.877,-1.764 z m -89.993,1.759 c -0.024,-2.177 -10.089,-8.533 -12.264,-7.744 -2.154,0.781 -0.544,2.543 5.898,6.45 5.795,3.516 6.391,3.637 6.366,1.294 z m -118.915,-10.661 c 1.353,-3.331 -0.405,-4.463 -6.932,-4.463 h -6.327 v 2.976 2.975 h 6.327 c 4.657,0 6.488,-0.393 6.932,-1.488 z m 323.286,-15.082 -0.293,-13.678 -7.606,-0.292 -7.606,-0.291 -0.188,11.448 c -0.102,6.297 -0.221,12.453 -0.262,13.68 -0.07,2.105 0.387,2.248 8.086,2.522 l 8.161,0.29 z m -132.616,6.755 c 4.048,-7.281 4.693,-10.02 2.359,-10.02 -1.556,0 -9.048,12.643 -9.048,15.269 0,3.614 3.127,1.161 6.689,-5.249 z m -53.901,5.864 c 0,-2.169 -7.898,-15.884 -9.148,-15.884 -0.739,0 -1.343,0.681 -1.343,1.512 0,2.753 7.329,15.348 8.931,15.348 0.858,0 1.56,-0.439 1.56,-0.976 z m 24.489,-4.653 c 0.38,-0.359 0.691,-4.595 0.691,-9.413 0,-6.827 -0.323,-8.76 -1.462,-8.76 -2.109,0 -2.735,2.259 -2.735,9.877 0,4.428 0.483,7.118 1.408,7.844 0.775,0.608 1.719,0.811 2.098,0.452 z m -149.6,-1.032 6.557,-0.376 v -7.391 -7.391 h -24.655 -24.655 v 5.42 c 0,4.255 0.417,5.63 1.938,6.4 1.305,0.66 2.302,0.635 3.056,-0.077 1.326,-1.253 3.399,-0.278 3.399,1.598 0,0.728 0.603,1.542 1.34,1.809 1.542,0.559 23.311,0.564 33.02,0.008 z m 328.122,-14.166 c -0.357,-0.545 -0.857,-0.992 -1.111,-0.992 -0.255,0 -0.463,0.447 -0.463,0.992 0,0.546 0.5,0.992 1.111,0.992 0.611,0 0.82,-0.446 0.463,-0.992 z m -313.758,-23.61801 c 1.669,-4.971 0.614,-5.142 -31.61,-5.142 -29.845,0 -33.9,0.419 -33.9,3.506 0,1.655 1.652,1.946 2.623,0.461 0.407,-0.624 11.737,-0.992 30.521,-0.992 h 29.873 l 0.866,2.215 0.867,2.21501 z m 325.254,-2.415 c 0.227,-0.682 0.656,-2.579 0.952,-4.215 0.297,-1.636 0.851,-4.161 1.231,-5.611 0.737,-2.807 -1.097,-3.891 -5.066,-2.992 -1.758,0.398 -1.766,0.542 -0.126,2.255 1.323,1.382 1.628,3.053 1.246,6.816 -0.279,2.743 -0.089,4.987 0.421,4.987 0.51,0 1.114,-0.558 1.342,-1.24 z m -45.642,-0.829 c -0.644,-1.137 -1.427,-1.826 -1.74,-1.53 -0.865,0.817 0.521,3.599 1.792,3.599 0.776,0 0.76,-0.635 -0.052,-2.069 z m 27.29,-8.014 2.198,-2.81 h -7.376 c -4.056,0 -7.36,0.335 -7.34,0.744 0.019,0.409 0.857,1.673 1.862,2.81 2.757,3.117 7.918,2.756 10.656,-0.744 z m -28.291,1.783 c 0,-0.881 0.945,-2.158 2.099,-2.84 3.104,-1.832 2.551,-2.912 -1.312,-2.56 -3.876,0.354 -5.213,3.528 -2.411,5.726 1.352,1.061 1.624,1.006 1.624,-0.326 z m -35.904,-24.98 c 1.282,-0.849 2.332,-1.965 2.332,-2.479 0,-0.515 -0.945,-0.043 -2.099,1.048 -3.056,2.889 -8.739,2.645 -11.346,-0.488 l -2.057,-2.472 -0.461,2.968 -0.46,2.967 h 5.879 c 3.624,0 6.775,-0.592 8.212,-1.544 z m 3.298,-5.977 c -0.05,-1.155 -0.299,-1.39 -0.634,-0.599 -0.303,0.716 -0.266,1.572 0.083,1.901 0.349,0.33 0.597,-0.256 0.551,-1.302 z m -0.983,-2.975 c -0.022,-1.253 -1.179,-2.63 -3.656,-4.35 -1.562,-1.085 -1.428,-0.706 0.525,1.488 1.443,1.62 2.741,3.131 2.885,3.358 0.144,0.227 0.255,0.004 0.246,-0.496 z m -13.209,-2.246 1.987,-2.63 -2.453,2.204 c -1.35,1.212 -2.244,2.396 -1.987,2.63 0.256,0.235 1.36,-0.757 2.453,-2.204 z m -133.183,-2.279 c 2.891,-9.202 3.442,-8.781 -11.489,-8.781 -14.834,0 -14.157,-0.486 -11.716,8.43 l 1.357,4.959 10.112,0.283 10.111,0.283 z m -53.979,-8.781 c 0,-0.545 -0.472,-0.991 -1.049,-0.991 -0.577,0 -1.05,0.446 -1.05,0.991 0,0.546 0.473,0.992 1.05,0.992 0.577,0 1.049,-0.446 1.049,-0.992 z m 127.461,-5.934 c 0.774,-1.183 -0.208,-2.991 -1.625,-2.991 -1.277,0 -1.285,2.684 -0.01,3.428 0.537,0.314 1.273,0.118 1.636,-0.437 z m -89.812,-11.213 c 0.096,-3.018 0.947,-4.502 4.317,-7.532 5.327,-4.791 5.673,-8.789 1.13,-13.083 -6.221,-5.881 -15.708,-2.172 -15.785,6.171 -0.032,3.557 1.517,5.677 6.66,9.113 1.085,0.725 2.329,3.067 2.765,5.204 l 0.792,3.886 z m 112.169,-6.406 30.739,-0.278 -0.314,-5.688 c -0.312,-5.648 -0.338,-5.689 -3.799,-6.003 -3.266,-0.297 -3.41,-0.183 -2.288,1.799 2.557,4.516 0.527,4.963 -22.554,4.963 -22.637,0 -24.146,-0.313 -22.915,-4.762 0.431,-1.557 0.136,-2.18 -1.031,-2.18 -0.899,0 -1.946,0.477 -2.327,1.059 -0.381,0.583 -1.307,0.837 -2.058,0.564 -0.75,-0.272 -1.679,-0.197 -2.064,0.166 -0.385,0.364 -2.069,0.727 -3.743,0.806 -3.908,0.186 -6.254,1.048 -6.254,2.298 0,1.272 6.296,8.074 7.19,7.767 0.373,-0.128 14.511,-0.358 31.418,-0.511 z"
     id="path835" />
</svg>
