<?xml version="1.0" encoding="UTF-8" standalone="no"?>
<svg
   xmlns:dc="http://purl.org/dc/elements/1.1/"
   xmlns:cc="http://creativecommons.org/ns#"
   xmlns:rdf="http://www.w3.org/1999/02/22-rdf-syntax-ns#"
   xmlns:svg="http://www.w3.org/2000/svg"
   xmlns="http://www.w3.org/2000/svg"
   xmlns:sodipodi="http://sodipodi.sourceforge.net/DTD/sodipodi-0.dtd"
   xmlns:inkscape="http://www.inkscape.org/namespaces/inkscape"
   id="bdc9873c-1fd3-471e-a0c2-9fe0be805663"
   data-name="Layer 1"
   width="990.16984"
   height="637.66844"
   viewBox="0 0 990.16984 637.66844"
   version="1.1"
   sodipodi:docname="undraw_problem_solving_ft81.svg"
   inkscape:version="0.92.3 (2405546, 2018-03-11)">
  <metadata
     id="metadata103">
    <rdf:RDF>
      <cc:Work
         rdf:about="">
        <dc:format>image/svg+xml</dc:format>
        <dc:type
           rdf:resource="http://purl.org/dc/dcmitype/StillImage" />
      </cc:Work>
    </rdf:RDF>
  </metadata>
  <defs
     id="defs101" />
  <sodipodi:namedview
     pagecolor="#ffffff"
     bordercolor="#666666"
     borderopacity="1"
     objecttolerance="10"
     gridtolerance="10"
     guidetolerance="10"
     inkscape:pageopacity="0"
     inkscape:pageshadow="2"
     inkscape:window-width="1299"
     inkscape:window-height="713"
     id="namedview99"
     showgrid="false"
     inkscape:zoom="0.69079057"
     inkscape:cx="486.9251"
     inkscape:cy="318.83423"
     inkscape:window-x="67"
     inkscape:window-y="27"
     inkscape:window-maximized="1"
     inkscape:current-layer="bdc9873c-1fd3-471e-a0c2-9fe0be805663" />
  <title
     id="title2">problem solving</title>
  <line
     x1="498.19635"
     y1="582.05664"
     x2="853.13831"
     y2="582.05664"
     stroke-miterlimit="10"
     id="line30"
     style="fill:none;stroke:#3f3d56;stroke-width:0.86249489;stroke-miterlimit:10" />
  <rect
     x="262.80637"
     y="160.84084"
     width="250.99734"
     height="124.02022"
     rx="13.053934"
     id="rect78"
     style="fill:#f2f2f2;stroke-width:0.96269745" />
  <g
     id="g900"
     inkscape:export-xdpi="96"
     inkscape:export-ydpi="96"
     transform="matrix(24.499198,0,0,11.310224,202.46458,-1210.8619)">
    <rect
       y="122.60723"
       x="3.3814371"
       height="8.4162455"
       width="1.2006354"
       id="rect815"
       style="opacity:1;fill:#800080;fill-opacity:1;stroke:#800080;stroke-width:0.05038176;stroke-miterlimit:4;stroke-dasharray:none;stroke-opacity:1"
       ry="0.60031772" />
    <rect
       y="127.60843"
       x="4.5782003"
       height="3.4189975"
       width="1.2136019"
       id="rect815-3"
       style="opacity:1;fill:#0000ff;fill-opacity:1;stroke:#0000ff;stroke-width:0.03228465;stroke-miterlimit:4;stroke-dasharray:none;stroke-opacity:1"
       ry="0.60680097" />
    <rect
       y="125.71304"
       x="5.7879291"
       height="5.310431"
       width="1.2045379"
       id="rect815-6"
       style="opacity:1;fill:#00ffff;fill-opacity:1;stroke:#00ffff;stroke-width:0.04008516;stroke-miterlimit:4;stroke-dasharray:none;stroke-opacity:1"
       ry="0.60226893" />
    <rect
       y="122.8298"
       x="8.194459"
       height="8.1936617"
       width="1.2006356"
       id="rect815-5"
       style="opacity:1;fill:#ffff00;fill-opacity:1;stroke:#ffff00;stroke-width:0.04971107;stroke-miterlimit:4;stroke-dasharray:none;stroke-opacity:1"
       ry="0.60031778" />
    <rect
       y="124.18867"
       x="9.3954678"
       height="6.8359232"
       width="1.2027403"
       id="rect815-35"
       style="opacity:1;fill:#ff6600;fill-opacity:1;stroke:#ff6600;stroke-width:0.04544572;stroke-miterlimit:4;stroke-dasharray:none;stroke-opacity:1"
       ry="0.60137016" />
    <rect
       y="122.60723"
       x="10.597086"
       height="8.4162455"
       width="1.2006356"
       id="rect815-62"
       style="opacity:1;fill:#ff0000;fill-opacity:1;stroke:#ff0000;stroke-width:0.05038176;stroke-miterlimit:4;stroke-dasharray:none;stroke-opacity:1"
       ry="0.60031778" />
    <rect
       y="124.18867"
       x="6.9913445"
       height="6.8359232"
       width="1.2027403"
       id="rect815-35-9"
       style="opacity:1;fill:#008000;fill-opacity:1;stroke:#008000;stroke-width:0.04544572;stroke-miterlimit:4;stroke-dasharray:none;stroke-opacity:1"
       ry="0.60137016" />
  </g>
  <ellipse
     cx="23.848423"
     cy="28.505701"
     id="circle80"
     style="fill:#2e86f8;stroke-width:0.96269745"
     rx="16.409576"
     ry="16.322252" />
  <ellipse
     cx="28.67477"
     cy="22.744904"
     stroke-miterlimit="10"
     id="circle82"
     style="fill:none;stroke:#3f3d56;stroke-width:0.96269745;stroke-miterlimit:10"
     rx="16.409576"
     ry="16.322252" />
  <ellipse
     cx="223.65916"
     cy="233.97403"
     id="circle84"
     style="fill:#f2f2f2;stroke-width:0.96269745"
     rx="16.409576"
     ry="16.322252" />
  <ellipse
     cx="228.48552"
     cy="228.21324"
     stroke-miterlimit="10"
     id="circle86"
     style="fill:none;stroke:#3f3d56;stroke-width:0.96269745;stroke-miterlimit:10"
     rx="16.409576"
     ry="16.322252" />
  <ellipse
     cx="351.07468"
     cy="110.11697"
     id="circle88"
     style="fill:#2e86f8;stroke-width:0.96269745"
     rx="16.409576"
     ry="16.322252" />
  <ellipse
     cx="355.90103"
     cy="104.35619"
     stroke-miterlimit="10"
     id="circle90"
     style="fill:none;stroke:#3f3d56;stroke-width:0.96269745;stroke-miterlimit:10"
     rx="16.409576"
     ry="16.322252" />
  <rect
     x="44.813553"
     y="66.407143"
     width="250.99734"
     height="124.02022"
     rx="13.053934"
     id="rect92"
     style="fill:#2e86f8;stroke-width:0.96269745" />
  <rect
     x="59.482235"
     y="55.86948"
     width="250.99734"
     height="124.02022"
     rx="13.053934"
     stroke-miterlimit="10"
     id="rect94"
     style="fill:none;stroke:#3f3d56;stroke-width:0.96269745;stroke-miterlimit:10" />
  <rect
     x="277.47504"
     y="150.30318"
     width="250.99734"
     height="124.02022"
     rx="13.053934"
     stroke-miterlimit="10"
     id="rect96"
     style="fill:none;stroke:#3f3d56;stroke-width:0.96269745;stroke-miterlimit:10" />
  <text
     xml:space="preserve"
     style="font-style:normal;font-weight:normal;font-size:45.51105881px;line-height:1.25;font-family:sans-serif;letter-spacing:0px;word-spacing:0px;fill:#000000;fill-opacity:1;stroke:none;stroke-width:1.13777649"
     x="30.134245"
     y="395.14313"
     id="text932"
     transform="scale(1.0538174,0.94893104)"><tspan
       sodipodi:role="line"
       id="tspan930"
       x="30.134245"
       y="395.14313"
       style="font-style:normal;font-variant:normal;font-weight:normal;font-stretch:normal;font-family:'Fascinate Inline';-inkscape-font-specification:'Fascinate Inline';stroke-width:1.13777649">MEDIA JOCKEY</tspan></text>
  <path
     inkscape:connector-curvature="0"
     style="fill:#000080;stroke-width:0.8797794"
     d="m 610.48343,546.47835 c 0.32306,-0.49564 -0.48762,-1.84353 -1.80056,-2.99715 -2.93172,-2.57403 -5.0071,-7.08917 -5.0071,-10.89454 0,-1.70451 -0.91234,-4.03074 -2.25973,-5.76029 -1.24316,-1.59657 -2.25975,-3.32181 -2.25975,-3.83558 0,-0.5129 2.19083,-2.98333 4.86839,-5.48828 3.91126,-3.65943 5.25608,-4.4383 6.84125,-3.96165 2.35709,0.70804 5.45594,5.22578 5.46024,7.95957 0.009,4.49959 4.64785,2.65089 5.9806,-2.38149 0.31188,-1.17779 1.03209,-2.52655 1.6007,-2.99714 1.70751,-1.41438 4.17228,-5.41835 4.17228,-6.77833 0,-0.69943 0.51777,-1.58017 1.15184,-1.95665 2.02196,-1.20283 4.44883,-5.51591 4.00601,-7.12113 -0.27568,-0.99646 0.1525,-1.69501 1.19665,-1.95406 1.94097,-0.48096 4.82186,-5.40194 4.14299,-7.07709 -0.61253,-1.51368 -8.67195,-6.33192 -10.62671,-6.3535 -1.84966,-0.0198 -2.58195,1.71228 -2.58195,6.10654 0,3.8425 -0.46607,3.88307 -7.71137,0.66315 -2.53973,-1.12856 -5.55156,-1.60176 -9.94182,-1.5629 -11.56576,0.10274 -13.57739,0.33417 -16.01546,1.84181 -1.3319,0.82462 -2.96014,1.499 -3.61747,1.499 -0.6582,0 -3.19879,1.92643 -5.6472,4.282 -4.97694,4.78715 -6.48975,5.24393 -7.29526,2.20361 -0.82016,-3.09558 -3.76049,-5.33718 -5.57741,-4.25178 -3.90436,2.33399 -3.60197,3.51437 2.35623,9.20989 5.05878,4.83636 5.60928,5.68257 4.7202,7.25584 -0.82102,1.45323 -0.70815,1.9316 0.61081,2.6008 1.0476,0.53105 2.2003,0.50945 3.27632,-0.0605 1.3922,-0.73828 2.67672,0.0657 7.98533,4.99697 8.64353,8.02779 11.54854,11.91604 11.54854,15.452 0,3.25964 2.04436,8.42931 4.24207,10.73134 1.60413,1.67948 5.25349,2.05078 6.18134,0.62948 z m -14.0383,-36.35084 c 2.19512,-2.11985 4.13783,-3.85372 4.31615,-3.85372 0.17834,0 -1.17595,1.73387 -3.00924,3.85372 -1.83244,2.11898 -3.77515,3.85372 -4.31616,3.85372 -0.54018,0 0.81326,-1.73474 3.00925,-3.85372 z m 13.10527,-2.99715 c -0.30669,-0.47146 -0.1275,-0.85657 0.39888,-0.85657 0.52639,0 0.95714,0.38511 0.95714,0.85657 0,0.4706 -0.17919,0.85572 -0.39888,0.85572 -0.21882,0 -0.64958,-0.38512 -0.95714,-0.85572 z m -24.8554,0.0829 c 0,-1.38675 7.74066,-8.91372 8.80463,-8.56142 0.58323,0.19343 -0.75383,2.3055 -3.06267,4.83896 -3.87679,4.2535 -5.74196,5.46323 -5.74196,3.72246 z m 33.25082,-5.52456 c -1.33621,-1.26672 -5.69545,-2.32276 -10.65429,-2.5818 -1.74025,-0.0915 -3.664,-0.46024 -4.27481,-0.82031 -0.61167,-0.36094 -1.90653,-0.25213 -2.8783,0.24005 -3.62696,1.83921 -5.19835,0.48613 -1.78333,-1.53442 2.65345,-1.5698 9.62909,-1.8392 10.87312,-0.41878 0.54791,0.62517 2.32606,1.1372 3.95174,1.1372 1.72215,0 3.1626,0.50773 3.44948,1.21752 0.27138,0.67005 1.40168,1.34444 2.5113,1.49899 2.28472,0.31777 3.49686,2.42121 1.39651,2.42121 -0.7521,0 -1.91772,-0.5224 -2.59142,-1.15966 z m -4.76932,39.67957 c 0.34546,-0.52932 0.35925,-2.65866 0.031,-4.73188 -0.44281,-2.79509 -1.26211,-4.21725 -3.17036,-5.50469 -1.41546,-0.95501 -2.8154,-1.73646 -3.11176,-1.73646 -1.014,0 -0.53931,3.04291 0.74606,4.78195 0.70643,0.95587 1.64032,3.03859 2.07538,4.62826 0.83049,3.03687 2.36915,4.18702 3.4288,2.56282 z m 94.75139,-10.00948 c 1.55503,-0.37993 1.53693,-0.49218 -0.2619,-1.68638 -1.3026,-0.86434 -1.74973,-1.81245 -1.37755,-2.92288 0.56773,-1.69416 0.22399,-1.92211 -4.31875,-2.86503 l -2.48546,-0.51636 0.13527,-10.90232 c 0.0741,-5.99602 0.30497,-9.84197 0.51173,-8.54674 0.45918,2.87193 3.39263,4.65417 5.25262,3.19228 0.95628,-0.75294 1.21731,-3.11111 1.07171,-9.69344 l -0.19297,-8.69957 -5.42233,0.29186 c -3.11351,0.16664 -6.00128,0.81772 -6.77923,1.52663 -1.10359,1.00682 -1.40684,4.63345 -1.63083,19.5095 l -0.27482,18.273 5.15527,0.40496 c 3.37023,0.26423 5.53519,0.89544 6.25024,1.82282 1.11911,1.45064 1.47922,1.51714 4.367,0.81167 z m -8.44366,-31.50757 c 0,-0.70633 0.39372,-1.28487 0.8753,-1.28487 0.48158,0 0.64182,0.57854 0.35494,1.28487 -0.28602,0.70632 -0.67973,1.28486 -0.87529,1.28486 -0.19557,0 -0.35495,-0.57854 -0.35495,-1.28486 z m 35.33998,28.73235 c 12.42039,-0.34972 17.20607,-0.78318 18.32086,-1.66221 1.33706,-1.05345 1.4818,-3.24842 1.26556,-19.26773 l -0.2438,-18.07871 -14.87828,-0.23572 c -8.18348,-0.13039 -15.4348,-0.0345 -16.11453,0.21242 -1.78591,0.64933 3.64332,5.58931 6.14342,5.58931 2.59056,0 1.85139,1.95233 -0.97695,2.58094 -1.36807,0.30395 -2.30195,1.20196 -2.48287,2.38753 -0.2326,1.52577 0.2576,2.005 2.48546,2.42724 3.44948,0.65366 3.6416,2.67248 0.29032,3.03774 -2.18391,0.23831 -2.48545,0.63551 -2.48545,3.26827 0,2.83913 0.1904,3.02478 3.61489,3.51782 2.53025,0.36439 2.89124,0.55782 1.20439,0.64243 -4.10853,0.20723 -5.27157,1.01545 -5.27157,3.66548 0,2.95656 0.51777,3.1897 7.88195,3.55064 6.28126,0.30739 7.36332,0.82721 5.69458,2.73292 -0.85376,0.974 -3.01356,1.30471 -8.51431,1.30471 -5.19145,0 -7.96206,0.39289 -9.3689,1.32631 -1.09929,0.72878 -3.52789,1.85821 -5.39823,2.50841 -3.28751,1.14326 -3.30992,1.17952 -0.6892,1.07418 1.49127,-0.0596 10.27694,-0.32122 19.52266,-0.58198 z m 9.26295,-5.64286 c -0.29377,-0.72446 0.081,-1.9765 0.83308,-2.783 1.29399,-1.38934 3.56235,-19.76077 2.72582,-22.08526 -0.19212,-0.53622 -2.68016,-0.89458 -5.94355,-0.85657 -7.48825,0.0881 -8.24379,-1.5681 -0.86669,-1.90139 3.99655,-0.18047 5.64892,-0.59148 5.64892,-1.40662 0,-1.57066 2.25888,-2.27786 3.50548,-1.09748 1.10532,1.0474 1.4887,29.85487 0.41095,30.8755 -1.1751,1.11389 -5.7816,0.5699 -6.31401,-0.74518 z m -7.54509,-18.80749 c 0,-0.70719 0.60995,-1.28486 1.35601,-1.28486 1.41115,0 1.7928,1.01286 0.75296,1.9981 -1.03985,0.98523 -2.10897,0.62343 -2.10897,-0.71324 z m -48.25143,11.18209 c 1.00366,-2.47733 -0.0827,-4.32777 -2.70858,-4.61272 -3.29441,-0.35748 -4.56084,0.85052 -3.8208,3.64389 0.46608,1.75719 1.13548,2.20361 3.30647,2.20361 1.5378,0 2.94034,-0.53796 3.22291,-1.23478 z m 17.94438,-4.71634 c 0.69093,-1.05949 -1.46456,-2.03091 -3.58215,-1.61471 -0.8012,0.15801 -1.44733,0.67179 -1.437,1.14325 0.0276,1.18815 4.29032,1.58881 5.01915,0.47146 z m -17.77983,-9.67704 c -0.26103,-5.19729 -0.34546,-5.36049 -2.88261,-5.63507 -3.33404,-0.36095 -4.13439,0.89024 -4.15162,6.49078 l -0.0137,4.49615 h 3.65882 3.65798 z M 588.3099,484.78865 c 1.50074,-1.16311 1.65323,-1.45411 0.45229,-0.86608 -2.94809,1.44374 -4.58238,2.62931 -3.61576,2.62326 0.4971,-0.004 1.92117,-0.7944 3.16347,-1.75718 z m 93.6788,-3.83818 c 20.17656,-3.21128 44.07913,-13.85197 58.16912,-25.89494 l 4.06719,-3.47724 -6.1038,-5.83022 c -4.56341,-4.35886 -6.40876,-5.61522 -7.31421,-4.97884 -0.66681,0.46801 -4.02067,2.86589 -7.45465,5.32854 -7.80268,5.59623 -16.27649,9.95163 -17.76777,9.13046 -0.62115,-0.34281 -2.66206,-1.75201 -4.5367,-3.13357 -1.87379,-1.38072 -3.9483,-2.31327 -4.60908,-2.07322 -0.67801,0.24694 -1.44992,2.4117 -1.76782,4.95811 -0.31101,2.48596 -1.11566,5.04186 -1.78849,5.67911 -1.43872,1.36344 -16.63489,4.48319 -21.91508,4.4996 -2.01334,0.006 -4.14817,0.47318 -4.7452,1.03877 -1.12857,1.06899 -1.53607,12.27611 -0.53585,14.7448 0.67801,1.67429 5.81777,1.67689 16.30234,0.009 z m -24.68483,0.77454 c 0.33169,-0.31344 0.60306,-3.95129 0.60306,-8.08305 v -7.51142 l -4.29376,-0.49996 c -8.39369,-0.97832 -19.30902,-3.08348 -22.74558,-4.38649 -3.62006,-1.37207 -4.59529,-3.27777 -4.59529,-8.97674 0,-3.65857 -1.38272,-3.75528 -5.99696,-0.41707 -2.31315,1.67343 -4.7047,3.04291 -5.31551,3.04291 -1.37756,0 -13.99522,-7.75233 -19.24181,-11.82278 l -3.89058,-3.01787 -5.40598,5.06518 c -3.54684,3.32354 -5.31723,5.63939 -5.14752,6.73515 0.41697,2.7027 15.6252,12.96346 27.37274,18.46901 12.03616,5.6394 22.7852,8.86968 35.70268,10.72876 9.5886,1.37984 12.07405,1.50936 12.95451,0.67437 z m 160.58535,-17.07448 c 3.06698,-1.26931 3.10833,-1.34789 1.35517,-2.59044 -1.38618,-0.98264 -3.17984,-1.15274 -7.69673,-0.73137 -5.17337,0.48182 -6.18995,0.32467 -8.36095,-1.29263 -1.84105,-1.37294 -2.47082,-2.59649 -2.47082,-4.80355 0,-3.90293 -2.09002,-4.64984 -4.91834,-1.75892 -2.52682,2.58269 -6.50526,3.75098 -8.55394,2.51188 -1.00969,-0.61135 -1.35601,-1.86771 -1.15786,-4.19392 0.15593,-1.82628 0.48417,-8.02521 0.72884,-13.77427 0.42041,-9.86009 0.34029,-10.51461 -1.41374,-11.55252 -3.49257,-2.06631 -1.53177,-11.25807 3.68123,-17.24977 6.92997,-7.96561 20.01028,-10.30824 29.57992,-5.29745 5.75575,3.01355 9.51451,7.07795 11.4038,12.33051 1.92892,5.36395 1.78161,8.88005 -0.42645,10.1865 -1.64289,0.97227 -1.8083,1.99722 -1.8083,11.23389 0,12.52738 0.80982,13.7613 6.0452,9.21593 l 3.44519,-2.99196 v -15.26635 c 0,-14.32861 -0.12837,-15.49431 -2.09778,-18.99054 -3.19448,-5.67136 -8.83909,-10.96709 -14.4949,-13.59897 -4.42557,-2.05854 -6.17529,-2.37199 -13.2345,-2.37199 -7.05921,0 -8.80894,0.31345 -13.23365,2.37199 -5.66873,2.63793 -11.3211,7.94662 -14.47767,13.59897 -1.90221,3.40642 -2.09692,4.94774 -2.27265,18.01999 -0.18351,13.62574 -0.0965,14.4305 1.8686,17.17377 1.13375,1.58277 2.33298,4.75607 2.66551,7.05033 0.99332,6.869 4.02756,8.70217 11.21513,6.77747 3.75619,-1.00509 3.87766,-0.97228 5.38357,1.44374 2.8697,4.60236 13.20954,7.04688 19.24612,4.54968 z M 529.10783,452.89942 c 5.24401,-1.94802 8.26531,-3.90726 12.09214,-7.84042 5.01226,-5.15153 6.55006,-8.80836 6.55006,-15.57634 0,-20.55603 -25.85218,-30.07246 -41.17929,-15.15842 -6.98598,6.79733 -10.40962,17.92588 -7.81045,25.38636 1.46284,4.20083 7.83543,10.82374 12.23517,12.71735 4.20329,1.809 13.83584,2.0594 18.11237,0.47147 z m -11.26337,-12.11897 c -1.42236,-0.69683 -3.40211,-2.24936 -4.39801,-3.44874 -1.51885,-1.82972 -2.44411,-2.14403 -5.72904,-1.94456 -3.38401,0.20551 -3.91729,0.007 -3.91729,-1.45411 0,-1.12166 0.91321,-1.97564 2.71118,-2.53431 1.49127,-0.4637 2.84987,-0.92479 3.01787,-1.02496 0.16885,-0.0993 0.69265,-1.81071 1.16476,-3.80191 1.11651,-4.7077 3.61747,-7.95265 7.46067,-9.68048 12.22137,-5.4952 24.93552,6.83358 18.86016,18.28853 -3.26081,6.15058 -12.52463,8.85673 -19.1703,5.60054 z m 9.71868,-0.5034 c 10.33725,-2.07322 12.6125,-15.92778 3.49342,-21.26755 -5.58862,-3.2726 -13.48951,-1.63285 -16.89334,3.50486 -2.82489,4.26475 -2.10122,11.05776 1.54555,14.51341 3.07732,2.9151 7.49082,4.12484 11.85437,3.24928 z m 298.23475,10.6234 c 0.82963,-0.31689 1.12943,-3.68101 1.12943,-12.67244 0,-10.12433 -0.24725,-12.43586 -1.43096,-13.3667 -2.26405,-1.77964 -4.39887,0.0863 -4.71676,4.12226 -0.23348,2.95225 -0.53242,3.39694 -2.03403,3.02478 -1.9651,-0.48701 -2.02628,-0.67611 -2.13482,-6.56506 -0.056,-3.06535 -0.51605,-4.44261 -1.71182,-5.13857 -2.54145,-1.47656 -3.8208,0.96105 -3.59336,6.84137 0.24812,6.3889 -0.32307,8.90766 -2.02024,8.90766 -1.10445,0 -1.33878,-1.71142 -1.33878,-9.75647 0,-8.22034 -0.23175,-9.84109 -1.4706,-10.29097 -3.26942,-1.18901 -3.9526,0.95242 -3.9526,12.39441 0,10.14159 -0.70558,13.46081 -2.33125,10.96881 -0.3558,-0.54658 -0.61598,-2.0689 -0.57634,-3.38312 0.0802,-2.68802 -1.82296,-4.64985 -3.81047,-3.92711 -0.99849,0.36265 -1.38358,-0.36958 -1.59293,-3.02823 -0.32048,-4.08341 -2.44409,-5.95889 -4.71935,-4.16976 -1.18371,0.93084 -1.43096,3.24411 -1.43096,13.38051 0,11.59742 0.0991,12.28388 1.85052,12.8106 2.44841,0.73656 4.4764,-0.96536 4.4764,-3.757 v -2.25023 h 13.10529 13.10614 v 2.18374 c 0,3.36154 2.10897,4.85191 5.19749,3.67152 z m -72.79325,-6.92598 c 8.81239,-8.8714 19.38569,-26.7187 24.09642,-40.67429 2.87227,-8.50874 5.52745,-21.64317 5.53435,-27.37496 0.009,-4.07735 -1.67564,-4.95378 -9.48695,-4.95378 -8.63405,0 -9.1277,0.4136 -9.91942,8.31877 -0.367,3.66634 -1.53952,9.74958 -2.60521,13.51694 l -1.93753,6.85087 -5.80141,0.85657 c -3.19016,0.47146 -5.96939,1.33925 -6.17616,1.92902 -0.20676,0.58889 1.11652,2.998 2.9412,5.35272 l 3.3168,4.28028 -3.17896,5.35185 c -1.74887,2.94361 -5.24057,7.76184 -7.76048,10.70804 -2.51992,2.94619 -4.5815,5.84749 -4.5815,6.44761 0,1.29436 10.92911,11.74508 12.2834,11.74508 0.51518,0 1.98922,-1.05949 3.27545,-2.35472 z m -172.12526,-3.02046 c 3.09281,-2.95569 5.62306,-5.72574 5.62306,-6.15489 0,-0.42916 -1.8419,-3.00147 -4.09389,-5.71711 -5.01657,-6.04955 -12.17572,-16.9372 -12.17572,-18.5165 0,-0.63898 1.42409,-2.92806 3.16347,-5.08676 1.74025,-2.15871 3.16347,-4.22934 3.16347,-4.60063 0,-0.82463 -1.84364,-1.33408 -7.43742,-2.05336 -4.23001,-0.544 -4.28773,-0.59581 -5.69199,-4.9961 -0.78053,-2.44539 -1.84707,-7.5287 -2.37001,-11.29693 -1.67047,-12.0378 -0.43506,-10.8013 -10.51127,-10.52066 l -8.7874,0.24436 -0.29206,3.40039 c -0.7633,8.87572 4.90371,29.85401 11.57267,42.84249 5.99093,11.66737 18.26572,27.83088 21.1354,27.83088 0.59358,0 3.60886,-2.41862 6.70169,-5.37518 z m 81.28513,-17.74541 c 0.39457,-1.43251 1.23368,-1.71314 5.1122,-1.714 5.48436,-10e-4 10.48456,-2.13021 12.0706,-5.13685 1.43959,-2.72947 1.48869,-13.99272 0.0776,-17.69015 -1.15874,-3.03686 -0.84686,-3.73197 11.99221,-26.72389 3.88713,-6.96052 3.99999,-7.38276 3.99999,-14.98571 0,-7.28434 -0.21366,-8.19703 -3.09369,-13.22941 -6.36569,-11.12422 -16.30062,-16.69973 -29.89696,-16.7783 -6.4794,-0.0371 -8.49276,0.31259 -12.85113,2.23296 -10.51214,4.62999 -17.87459,13.67928 -19.67946,24.18785 -1.23023,7.15998 -0.10683,10.94721 7.83198,26.39145 4.97694,9.6848 6.87743,14.28456 6.72236,16.27057 -0.11975,1.52319 -0.29291,6.75329 -0.3851,11.62246 l -0.16799,8.85242 2.71203,2.05595 c 1.49128,1.13116 3.84664,3.0239 5.23367,4.20601 3.297,2.81149 9.59291,3.07831 10.32174,0.43864 z m 1.51712,-57.99486 c 0.22916,-0.21587 1.26039,-0.13989 2.29162,0.17097 2.37776,0.71497 2.35708,2.16907 -0.15766,11.39796 l -2.03403,7.46134 -0.25759,-9.31783 c -0.14129,-5.12477 -0.0706,-9.49571 0.15766,-9.71244 z m -172.4449,56.7955 c 2.27438,-2.15525 3.07215,-3.65685 3.06956,-5.78016 -0.009,-4.11707 -2.86538,-8.06836 -6.71115,-9.27119 -7.04198,-2.20188 -14.56899,4.93048 -12.2455,11.60173 1.269,3.64303 5.44043,6.3535 9.78589,6.35781 2.24078,0.002 3.82595,-0.75295 6.1012,-2.90819 z m -10.63274,-4.33209 c -2.06591,-4.29583 3.41416,-8.37836 6.86191,-5.11181 1.68599,1.59657 1.85656,4.74914 0.336,6.18943 -1.96167,1.85908 -6.08226,1.24169 -7.19791,-1.07762 z m 5.56104,-0.0241 c 1.61102,-1.83834 0.41783,-4.03849 -2.01077,-3.71038 -2.31659,0.31259 -3.28751,3.12754 -1.45767,4.22588 1.69459,1.01718 2.18996,0.94379 3.46844,-0.5155 z m 18.30104,-9.48707 c 5.03121,-2.58612 6.58365,-8.92926 3.39693,-13.88046 -2.01937,-3.13876 -4.89682,-4.47456 -9.63512,-4.47456 -4.4988,0 -9.34134,4.58854 -9.34134,8.84983 0,4.49009 1.41029,7.2161 4.72279,9.12958 3.48222,2.01191 7.41071,2.14748 10.85674,0.37561 z m -7.28578,-8.36626 c -0.37304,-1.82023 2.47339,-2.93153 3.496,-1.36517 0.8796,1.34962 -0.7073,3.58259 -2.20891,3.10853 -0.54705,-0.17269 -1.12599,-0.95673 -1.28709,-1.74336 z M 782.32698,363.6543 c 0.68145,-1.6812 -0.23777,-9.97926 -2.08226,-18.80144 -1.97459,-9.44563 -5.96596,-19.86959 -11.39606,-29.75904 -4.56169,-8.31014 -15.06779,-22.3279 -18.05723,-24.09545 -1.31122,-0.7754 -2.53542,-0.0198 -7.45723,4.6015 -3.23841,3.04118 -5.88841,5.90189 -5.88841,6.35696 0,0.45591 1.84276,3.04981 4.09389,5.76545 2.25199,2.71565 5.89617,7.70658 8.09904,11.09142 4.423,6.79647 4.41611,6.96139 -0.55136,12.71217 -3.17121,3.67153 -2.38638,4.7742 3.90264,5.47966 2.57591,0.28927 5.16217,1.01718 5.74799,1.61731 1.35773,1.39279 3.81046,10.89885 4.50139,17.44836 1.01658,9.64336 0.19211,8.90508 9.95474,8.90508 6.91878,0 8.70211,-0.25818 9.13286,-1.32198 z m -223.56428,0.68041 c 0.21279,-0.35401 0.66595,-3.14738 1.00625,-6.20928 0.70127,-6.29824 3.78634,-19.50864 4.98124,-21.32627 0.43507,-0.66142 3.10488,-1.49987 5.93236,-1.86426 2.82833,-0.36352 5.356,-0.86348 5.6179,-1.11129 0.26189,-0.24869 -1.03122,-2.39617 -2.87314,-4.7742 l -3.34868,-4.32258 3.27631,-5.55046 c 1.80142,-3.05327 5.29399,-7.9328 7.75962,-10.84446 2.46651,-2.9108 4.48416,-5.70071 4.48416,-6.19808 0,-1.25636 -10.09086,-10.80301 -11.41931,-10.80301 -1.56622,0 -8.02926,7.13235 -13.19315,14.55829 -9.45852,13.60243 -15.85264,29.78407 -18.40012,46.56583 -1.90652,12.55674 -1.92978,12.52134 8.27135,12.52134 4.13525,0 7.69329,-0.2884 7.90521,-0.64157 z m 280.14047,-9.70294 c 1.20611,-0.66487 1.58172,-2.00241 1.58172,-5.62039 0,-4.02728 -0.27395,-4.81564 -1.80744,-5.19557 -1.00022,-0.24782 -1.80744,-1.16743 -1.80744,-2.06026 0,-1.99724 -2.55697,-2.13453 -3.34869,-0.17961 -0.31962,0.78836 -1.32328,2.13712 -2.23131,2.99714 -0.97007,0.91874 -1.65066,2.80028 -1.65066,4.56092 0,5.07208 4.83566,7.94143 9.26382,5.49777 z m -21.24052,0.36786 c 0.62201,-0.24351 1.1303,-1.13376 1.1303,-1.97825 0,-0.84535 0.64097,-2.9911 1.42408,-4.76727 1.05965,-2.40221 1.28882,-4.78887 0.89339,-9.31092 -0.29206,-3.34341 -0.83825,-12.71909 -1.21302,-20.83409 -0.56686,-12.28906 -0.94249,-15.00298 -2.24853,-16.24035 -1.48784,-1.40921 -1.64807,-1.40835 -3.14968,0.0123 -1.39909,1.32458 -1.63773,4.08944 -2.06677,23.94779 -0.57892,26.81283 0.19643,31.13974 5.23023,29.171 z m -19.51577,-1.77447 c 5.59809,-0.21586 7.96121,-0.63898 8.30408,-1.48605 0.3963,-0.97746 0.8641,-13.48844 0.65131,-17.40433 -0.0457,-0.84102 -2.51561,-1.04136 -10.56555,-0.8557 l -10.50525,0.24091 -0.11463,9.848 -0.11452,9.84801 2.25974,0.0553 c 1.2423,0.0302 5.78073,-0.0803 10.08483,-0.2461 z m -8.97434,-4.35884 c -0.19643,-0.55868 0.28601,-1.01633 1.07344,-1.01633 0.78742,0 1.43096,0.60962 1.43096,1.35567 0,1.51196 -1.94529,1.2486 -2.5044,-0.33934 z m -80.37798,1.58189 c 4.11199,-0.75469 5.59809,-1.97219 4.80379,-3.93402 -0.48934,-1.20801 -1.34223,-1.35567 -5.10187,-0.88248 -6.02194,0.75641 -7.20479,1.26155 -7.20479,3.074 0,1.37552 1.89445,2.72687 3.46326,2.47128 0.33254,-0.0544 2.15033,-0.38253 4.03961,-0.72878 z m -86.99866,-0.50687 c 1.87895,-2.14489 -0.73745,-3.79758 -6.38206,-4.03072 -3.96639,-0.1632 -4.95282,0.0708 -5.20697,1.2391 -0.60995,2.80544 9.45335,5.23009 11.58903,2.79162 z m -92.9138,-3.87271 c 1.27245,-0.70201 1.58433,-2.07926 1.59553,-7.0391 0.008,-3.39088 0.3179,-6.61858 0.6892,-7.17293 0.37217,-0.5535 2.29765,-1.13116 4.27998,-1.28401 1.98147,-0.15283 3.50204,-0.66315 3.37798,-1.13461 -0.14043,-0.53449 -8.63147,-0.93947 -22.59567,-1.07762 -19.74321,-0.19515 -22.50435,-0.3903 -23.50112,-1.66221 -0.6556,-0.83585 -1.15441,-4.15852 -1.18716,-7.9138 -0.0457,-5.0954 -0.24466,-6.02883 -0.93818,-4.38477 -0.48417,1.14843 -0.7633,5.19471 -0.62028,8.99145 l 0.25931,6.90352 6.77835,0.2556 c 3.72775,0.14075 7.09281,0.55435 7.47704,0.91874 0.3851,0.36525 0.081,2.06803 -0.67628,3.78464 -2.28558,5.18348 -1.82898,7.90949 1.66788,9.95767 2.58194,1.51195 4.46865,1.77791 12.42728,1.75631 5.16129,-0.0147 10.09602,-0.41878 10.96614,-0.89888 z m -19.6312,-13.67581 c 0.29205,-0.44728 1.53779,-0.81341 2.76889,-0.81341 1.96251,0 2.11845,0.21155 1.26469,1.72351 -0.79172,1.40144 -1.3095,1.55341 -2.76889,0.81341 -0.98728,-0.50083 -1.55675,-1.27623 -1.26469,-1.72351 z m 12.62627,0.0424 c -0.30755,-0.4706 -0.12835,-0.85572 0.39802,-0.85572 0.52725,0 0.95715,0.38512 0.95715,0.85572 0,0.47146 -0.1792,0.85657 -0.39803,0.85657 -0.21968,0 -0.65043,-0.38511 -0.95714,-0.85657 z m 318.38804,2.43587 c 1.29055,-1.22354 1.5869,-19.25735 0.34633,-21.11038 -0.50571,-0.75555 -2.33814,-1.03446 -5.63514,-0.85658 l -4.88562,0.26336 v 11.13287 11.13286 l 4.52465,0.25128 c 2.73874,0.15197 4.96919,-0.16924 5.64978,-0.81341 z m -136.19689,-3.10508 c 8.566,-5.6696 6.28903,-9.57082 -2.39757,-4.10671 -5.35773,3.37017 -6.81195,5.35704 -4.80379,6.56246 1.82555,1.09489 1.8488,1.08712 7.20136,-2.45575 z m -77.49535,2.6673 c 1.66443,-1.57671 0.22572,-3.90553 -4.13007,-6.68507 -5.10014,-3.25359 -7.43138,-3.75182 -8.23776,-1.75978 -0.61683,1.52232 1.24489,3.38572 6.59486,6.60132 4.27136,2.56713 4.82359,2.74328 5.77297,1.84353 z m -101.5039,-9.75475 c 0.54706,-0.96969 0.73314,-2.89697 0.41181,-4.282 l -0.58411,-2.51878 h 7.1221 c 4.33425,0 7.54596,-0.40238 8.20588,-1.02754 1.22334,-1.15879 1.48524,-12.46262 0.32995,-14.18786 -0.56257,-0.8393 -5.74626,-1.03445 -22.80846,-0.85657 l -22.08135,0.22967 v 6.42259 c 0.009,9.44044 -0.0129,9.41971 8.49879,9.41971 h 7.20222 l -0.51259,2.99024 c -0.76588,4.47456 0.70815,5.57291 7.48392,5.57291 4.86236,0 5.88412,-0.26768 6.72839,-1.76237 z m 276.77627,-1.67688 c 1.38789,-0.8134 1.58173,-2.43674 1.58173,-13.2104 0,-13.99444 0.41094,-13.32265 -8.13438,-13.32265 -8.5453,0 -8.13437,-0.67093 -8.13437,13.31488 0,6.75156 0.33772,12.47299 0.75124,12.71476 1.70751,0.99992 12.42814,1.38675 13.93578,0.50341 z m -114.70309,-3.57481 c 5.48953,-8.97071 6.37431,-13.18795 2.62847,-12.52997 -1.90997,0.33502 -8.43332,11.54819 -8.12748,13.96939 0.4006,3.16726 3.11435,2.45747 5.49901,-1.43942 z m -44.99061,2.46006 c 0.27913,-0.68993 -1.15011,-4.37957 -3.17638,-8.19875 -2.75425,-5.18866 -4.13869,-6.94326 -5.48264,-6.94326 -2.72151,0 -2.23131,2.97901 1.6205,9.84714 3.27373,5.83886 5.99007,7.88272 7.03852,5.29487 z m 21.47916,-3.7242 c 0.33168,-0.31344 0.60305,-4.11967 0.60305,-8.4578 0,-8.19875 -0.9442,-10.51893 -3.63729,-8.94134 -1.6989,0.99472 -2.4286,13.51952 -0.94077,16.15314 1.014,1.79518 2.80422,2.35644 3.97501,1.246 z M 491.53396,307.76466 c 0.0405,-2.82617 -0.27827,-4.3459 -0.83998,-4.01691 -1.08292,0.63379 -1.08292,4.46419 0,6.85085 0.56946,1.25464 0.79346,0.4965 0.83998,-2.83394 z m 48.14372,-8.44312 4.24294,-0.37302 1.38616,-4.51774 c 0.76245,-2.48424 1.8669,-6.49251 2.4553,-8.90682 1.78678,-7.33268 3.00064,-7.03824 -28.98634,-7.03824 -22.17611,0 -28.07831,0.23746 -29.44467,1.18384 -1.67132,1.15792 -1.66615,1.37207 0.24122,9.95508 1.07259,4.82427 2.17274,8.98193 2.44583,9.24011 0.60995,0.57854 41.79785,0.97316 47.65956,0.45679 z m -43.24173,-2.42466 c -1.36981,-0.40497 -3.49688,-12.3167 -2.38811,-13.36756 0.48072,-0.45505 10.97304,-0.69424 24.72618,-0.56212 l 23.89138,0.22881 -0.18608,2.46525 c -0.10252,1.35653 -0.63494,4.51428 -1.18286,7.01665 -0.97092,4.42708 -1.08722,4.55745 -4.33339,4.81391 -4.199,0.33158 -39.12804,-0.18133 -40.52712,-0.59494 z m 242.1677,-5.3769 c 2.84298,-2.72169 5.16906,-5.54441 5.16906,-6.27319 0,-1.47916 -8.67109,-8.38701 -16.26874,-12.96086 -13.16214,-7.92158 -29.33784,-14.00826 -43.59324,-16.40269 -11.16258,-1.87463 -16.80632,-2.16044 -17.90475,-0.9058 -0.54361,0.61998 -0.8305,4.27423 -0.67887,8.65122 l 0.26277,7.57791 5.76521,0.60271 c 7.75703,0.81081 18.76453,3.0101 21.67214,4.33037 1.95647,0.88765 2.48976,1.88497 3.0773,5.75596 0.39113,2.57405 1.07259,5.02374 1.51453,5.44167 0.46866,0.44383 2.58626,-0.52845 5.07947,-2.33227 2.35192,-1.70193 4.67283,-3.09385 5.15785,-3.09385 1.37756,0 11.22633,5.86476 17.50588,10.42482 3.12985,2.27354 6.22699,4.13262 6.88173,4.13262 0.65562,0 3.51754,-2.22692 6.35966,-4.94862 z m -139.89879,0.54227 c 4.82446,-3.80191 13.78846,-9.15464 17.6799,-10.5578 0.84428,-0.30394 3.1178,0.72533 5.65754,2.56368 2.33555,1.68985 4.60218,2.86418 5.03638,2.60945 0.4342,-0.25386 1.0743,-2.61981 1.42235,-5.25688 0.58497,-4.43484 0.86495,-4.88644 3.73982,-6.02451 1.71008,-0.67697 7.26855,-1.84353 12.35404,-2.59303 5.08462,-0.74952 10.15978,-1.51887 11.27802,-1.7097 1.94012,-0.33158 2.03402,-0.72014 2.03402,-8.46644 v -8.11932 h -4.93903 c -11.47617,0 -30.80672,4.95467 -44.32122,11.35998 -12.80633,6.06853 -28.47116,16.66258 -28.47116,19.2539 0,1.73388 9.95129,11.35996 11.66139,11.28053 0.79432,-0.0362 3.88454,-1.98946 6.86795,-4.33986 z m 225.059,-6.90871 c 4.03876,-1.34532 4.97091,-2.32364 4.97091,-5.21284 0,-1.44029 0.479,-3.87186 1.06396,-5.40541 0.85893,-2.24936 0.82016,-3.06621 -0.19986,-4.23105 -1.10705,-1.26414 -2.50011,-1.36862 -11.23237,-0.84621 -13.29051,0.7944 -15.14447,0.79698 -23.15134,0.0345 -8.64352,-0.82291 -13.48004,0.41274 -13.48004,3.4427 0,1.11303 0.40664,2.26232 0.90372,2.55331 0.4971,0.29099 0.90976,1.95147 0.91752,3.68966 0.008,1.73904 0.31272,3.57999 0.678,4.09116 1.02261,1.43253 6.39757,2.92377 10.53971,2.92377 4.53584,0 7.51925,-1.83922 9.21298,-5.67827 1.61792,-3.66893 2.59487,-3.63611 4.49105,0.14939 2.50096,4.99353 8.49362,6.75329 15.28576,4.48925 z m -33.00357,-3.24238 c -0.92354,0 -1.95218,-0.83413 -2.29678,-1.86167 -0.9847,-2.93929 1.81261,-4.34331 7.28062,-3.6534 2.48631,0.31432 4.65474,0.68647 4.81842,0.82894 0.16541,0.14162 -0.16627,1.08281 -0.7366,2.09222 -1.14494,2.02659 -4.32046,3.54977 -6.18908,2.96865 -0.66164,-0.20636 -1.95648,-0.37474 -2.87658,-0.37474 z m 21.39128,-2.7856 c -2.52853,-3.22078 -1.24832,-4.14211 4.3601,-3.13702 5.55243,0.99386 7.6459,2.64052 5.89704,4.63776 -1.972,2.25108 -8.00429,1.36861 -10.25714,-1.50074 z m -71.06073,-17.81103 c 4.14816,-3.64735 5.34997,-4.26992 7.48392,-3.87357 1.39737,0.25904 3.88627,-0.0614 5.53089,-0.71238 7.12555,-2.82099 8.00601,-10.44207 1.78935,-15.49431 -1.88239,-1.52923 -2.10725,-2.44451 -2.10294,-8.56314 0,-3.76823 0.22313,-9.41886 0.48934,-12.55676 0.27655,-3.24668 0.081,-6.41998 -0.45056,-7.36204 -0.65131,-1.1536 -0.63063,-2.59561 0.0672,-4.75 1.13117,-3.49193 -0.031,-5.73179 -2.97306,-5.73179 -2.52337,0 -3.69071,2.75105 -2.5182,5.93643 0.7366,2.00242 0.70386,3.3244 -0.1275,5.22752 -0.72711,1.66307 -0.90114,4.25351 -0.50226,7.46652 0.33599,2.70529 0.55481,7.98979 0.48589,11.74335 -0.12234,6.66866 -0.19642,6.88194 -3.28149,9.41971 -2.78957,2.29428 -3.17552,3.11631 -3.32112,7.0676 -0.15248,4.12658 -0.51174,4.80614 -4.65904,8.79542 -3.6528,3.51351 -4.3153,4.59027 -3.54167,5.75252 1.60758,2.41515 2.51561,2.13366 7.63212,-2.36508 z m -111.65938,-9.67789 c 0.76675,-1.10872 2.49149,-6.0746 3.83286,-11.0353 2.7732,-10.25815 2.37948,-11.78393 -3.03597,-11.78393 -2.11069,0 -3.05232,-0.39633 -3.05232,-1.284 0,-0.70719 0.39285,-1.28485 0.87184,-1.28485 0.47987,0 2.3011,-1.18816 4.04565,-2.63967 6.03833,-5.02287 6.04263,-12.81579 0.009,-17.83435 -1.75058,-1.45582 -3.72257,-2.64743 -4.38249,-2.64743 -0.65991,0 -2.73529,-1.1562 -4.61253,-2.56886 -6.3071,-4.74914 -14.37428,-2.88403 -16.72533,3.86668 -1.24661,3.57826 -0.0449,7.91121 2.87744,10.37386 2.57332,2.1682 5.2173,7.83523 5.24142,11.23562 0.0181,2.49977 -0.24467,2.783 -2.58109,2.783 -4.23086,0 -5.04241,1.71141 -3.75703,7.92762 1.38875,6.71702 4.5031,15.42351 5.81432,16.25159 0.54792,0.34538 3.93537,0.63466 7.52787,0.64157 5.86947,0.0123 6.67326,-0.19084 7.92589,-2.00155 z m -10.62931,-23.33127 c -0.29722,-0.2815 -0.33082,-1.02755 -0.0758,-1.65789 0.5798,-1.43165 3.02648,-0.64157 3.02648,0.97746 0,1.19505 -1.93581,1.64235 -2.95067,0.68043 z m -21.63422,24.31909 c 1.49559,-1.41785 1.49559,-20.50596 0,-21.92293 -0.66939,-0.6338 -4.04393,-1.03791 -8.81238,-1.05518 -5.35859,-0.0181 -8.26618,-0.41274 -9.48263,-1.284 -1.9272,-1.3807 -6.5828,-1.65184 -8.50913,-0.49564 -1.53263,0.92048 -1.51367,22.92199 0.0216,24.67485 1.32242,1.50937 25.19828,1.58276 26.7826,0.0829 z m 124.91283,-0.72533 c -7.70534,-0.32467 -19.78283,-0.64071 -26.83859,-0.70288 -16.6168,-0.14678 -15.64243,1.01546 -15.64243,-18.66501 0,-8.25402 0.37304,-14.96327 0.84686,-15.24131 0.46694,-0.27286 1.58517,0.51291 2.48632,1.74682 0.90027,1.23392 2.91276,3.64994 4.47123,5.37 1.55933,1.71919 3.46413,4.55746 4.23431,6.30686 1.53263,3.48329 5.11738,5.05482 7.84663,3.44012 1.18889,-0.70288 1.87207,-0.53796 3.01873,0.73137 1.35774,1.50159 2.83954,1.63974 17.64975,1.63974 12.74173,0 16.38936,-0.25385 17.21554,-1.19678 0.68146,-0.778 0.95714,-4.14904 0.78828,-9.63387 l -0.25931,-8.43708 H 720.27246 702.6477 l -0.45229,6.64709 c -0.24812,3.65598 -0.76847,6.68507 -1.15529,6.72997 -2.13396,0.25128 -4.26792,-0.99904 -4.26792,-2.5015 0,-0.93515 -0.59702,-1.91779 -1.32672,-2.18374 -0.7297,-0.2651 -1.9384,-1.75115 -2.68619,-3.30282 -0.74779,-1.55081 -2.02972,-3.68706 -2.85073,-4.74655 l -1.49128,-1.9273 h 26.21143 c 22.20799,0 26.38372,-0.19601 27.33741,-1.28572 1.49731,-1.70883 0.74435,-10.58715 -0.98642,-11.62505 -0.70041,-0.42052 -14.25798,-0.77023 -30.12613,-0.77714 -25.47139,-0.0123 -29.04406,0.15111 -30.48795,1.38934 -1.34654,1.15361 -1.88326,1.20801 -3.03079,0.30568 -2.28386,-1.79604 -2.69567,-0.21674 -1.06569,4.09117 1.26555,3.34513 1.5309,7.34564 1.52659,23.03164 0,10.44122 0.24295,19.59326 0.54448,20.33845 0.48589,1.20024 3.80701,1.33752 29.14917,1.2011 24.93208,-0.13298 26.80329,-0.22883 14.59138,-0.7426 z m -24.40397,-44.49002 c 0,-0.54226 6.62759,-0.85657 18.07705,-0.85657 11.4486,0 18.07705,0.31431 18.07705,0.85657 0,0.54227 -6.62845,0.85657 -18.07705,0.85657 -11.44946,0 -18.07705,-0.3143 -18.07705,-0.85657 z m 27.29692,40.46447 13.28706,-0.26163 -0.18264,-4.04542 -0.1835,-4.04454 -26.88771,-0.2271 c -17.7066,-0.14939 -26.91441,0.07 -26.96352,0.64243 -0.30583,3.52473 -0.12406,6.72135 0.42989,7.57101 0.65562,1.00423 5.69975,1.04999 40.50042,0.36525 z"
     id="path841" />
  <path
     inkscape:connector-curvature="0"
     style="fill:#00aad4;fill-opacity:1;stroke-width:0.8797794"
     d="m 610.51616,546.4274 c 0.34202,-0.52327 -0.44023,-1.77617 -1.73681,-2.78299 -2.69049,-2.09135 -4.60132,-6.09878 -5.56965,-11.68032 -0.36787,-2.11899 -1.43011,-4.77246 -2.3614,-5.89585 -0.93043,-1.12339 -1.69201,-2.4851 -1.69201,-3.0265 0,-0.54141 2.19083,-3.03428 4.86839,-5.53923 3.83889,-3.59123 5.27331,-4.43398 6.78008,-3.98066 1.7661,0.53104 1.83933,0.39462 0.96059,-1.79258 -1.10876,-2.764 -5.03811,-8.92926 -7.65624,-12.01189 -1.65324,-1.94715 -2.05901,-2.04905 -4.29634,-1.08281 -2.63881,1.13893 -4.71763,0.32294 -2.45616,-0.96364 3.9457,-2.24765 3.99567,-2.32623 2.90931,-4.58595 -1.74283,-3.62317 -7.43655,-4.0601 -7.43655,-0.5699 0,0.85485 -1.0855,3.4332 -2.41308,5.73006 l -2.41396,4.17493 2.34933,-2.01795 c 1.29141,-1.11044 2.80423,-1.87548 3.36076,-1.69933 0.55654,0.17528 -1.32241,2.62585 -4.17574,5.44424 -9.14492,9.03461 -9.07514,8.23935 -1.33534,15.30003 8.84684,8.06924 11.85868,12.04989 11.85868,15.67047 0,3.25964 2.04436,8.42931 4.24207,10.73134 1.62998,1.70538 5.25866,2.04386 6.21407,0.57853 z m -14.07103,-36.29989 c 2.19512,-2.11985 4.13783,-3.85372 4.31615,-3.85372 0.17834,0 -1.17595,1.73387 -3.00924,3.85372 -1.83244,2.11898 -3.77515,3.85372 -4.31616,3.85372 -0.54018,0 0.81326,-1.73474 3.00925,-3.85372 z m 16.69346,31.29947 c 0.32393,-0.49736 0.31445,-2.64312 -0.0224,-4.76728 -0.45315,-2.86848 -1.26039,-4.30186 -3.13159,-5.56427 -1.38617,-0.93515 -2.76286,-1.70019 -3.05922,-1.70019 -1.014,0 -0.53844,3.04291 0.74693,4.78195 0.70643,0.95587 1.64032,3.03859 2.07451,4.62826 0.8193,2.99542 2.36743,4.19134 3.39176,2.62153 z m 94.7893,-10.06819 c 1.55503,-0.37993 1.53693,-0.49218 -0.2619,-1.68638 -1.3026,-0.86434 -1.74973,-1.81245 -1.37755,-2.92288 0.56773,-1.69416 0.22399,-1.92211 -4.31875,-2.86503 l -2.48546,-0.51636 0.13527,-10.90232 c 0.0741,-5.99602 0.30497,-9.84197 0.51173,-8.54674 0.45918,2.87193 3.39263,4.65417 5.25262,3.19228 0.95628,-0.75294 1.21731,-3.11111 1.07171,-9.69344 l -0.19297,-8.69957 -5.42233,0.29186 c -3.11351,0.16664 -6.00128,0.81772 -6.77923,1.52663 -1.10359,1.00682 -1.40684,4.63345 -1.63083,19.5095 l -0.27482,18.273 5.15527,0.40496 c 3.37023,0.26423 5.53519,0.89544 6.25024,1.82282 1.11911,1.45064 1.47922,1.51714 4.367,0.81167 z m -8.44366,-31.50757 c 0,-0.70633 0.39372,-1.28487 0.8753,-1.28487 0.48158,0 0.64182,0.57854 0.35494,1.28487 -0.28602,0.70632 -0.67973,1.28486 -0.87529,1.28486 -0.19557,0 -0.35495,-0.57854 -0.35495,-1.28486 z m 35.33998,28.73235 c 12.42039,-0.34972 17.20607,-0.78318 18.32086,-1.66221 1.33706,-1.05345 1.4818,-3.24842 1.26556,-19.26773 l -0.2438,-18.07871 -14.87828,-0.23572 c -16.40831,-0.26078 -18.73094,0.0388 -15.85263,2.04731 1.40426,0.98005 4.50311,1.23305 13.86944,1.13289 6.63276,-0.0708 12.43933,0.22968 12.90197,0.66833 0.47383,0.44902 0.73228,7.30764 0.59272,15.71882 l -0.24812,14.92268 -2.94378,0.26855 c -3.46757,0.31689 -4.81498,-1.65703 -2.68791,-3.94007 1.34482,-1.4446 3.54942,-19.82036 2.66637,-22.23292 -0.5238,-1.43166 -1.83931,-1.35135 -3.49084,0.21414 -1.77815,1.68466 -6.61552,1.63976 -9.21556,-0.0855 -1.89188,-1.2555 -2.19771,-1.2555 -3.66141,0 -0.87875,0.75295 -2.07452,1.36948 -2.6569,1.36948 -1.92461,0 -1.09843,1.58794 0.97265,1.8677 1.58861,0.21328 2.03143,0.83241 2.03316,2.84259 0,2.28218 -0.32996,2.59908 -2.98858,2.84085 -2.65517,0.24178 -2.96015,0.53017 -2.71117,2.56885 0.23864,1.95838 0.8124,2.37372 3.89488,2.81755 3.08679,0.44469 3.21861,0.54054 0.9046,0.65539 -3.92677,0.19514 -5.15787,1.23218 -4.81843,4.0549 0.29636,2.45315 0.35581,2.47646 6.40446,2.5231 6.66463,0.0519 8.9597,1.14238 7.03164,3.34253 -0.86927,0.99215 -2.98857,1.32026 -8.52723,1.32026 -5.19145,0 -7.96206,0.39289 -9.3689,1.3263 -1.09929,0.72878 -3.52789,1.85822 -5.39823,2.50842 -3.28751,1.14326 -3.30992,1.17952 -0.6892,1.07418 1.49127,-0.0596 10.27694,-0.32122 19.52266,-0.58199 z m 2.17015,-15.45892 c 0.30669,-0.47146 1.04242,-0.85053 1.63514,-0.84362 0.64613,0.007 0.535,0.34453 -0.27999,0.84362 -1.73595,1.06295 -2.04867,1.06295 -1.35515,0 z m -1.7101,-8.20135 c -0.76502,-1.88929 0.36787,-3.78722 2.25801,-3.78722 1.27676,0 1.71182,0.61652 1.71182,2.42638 0,1.33407 -0.2438,2.65607 -0.54102,2.93757 -0.80466,0.76244 -2.86453,-0.18565 -3.42881,-1.57673 z m -113.92859,16.35176 c 1.3319,-2.3435 1.45939,-3.20525 0.59358,-4.0247 -1.68511,-1.59743 -1.32414,-2.20101 1.1639,-1.94196 1.24488,0.12952 2.07279,-0.0579 1.83846,-0.41621 -0.23347,-0.35834 0.28429,-1.38501 1.15184,-2.28045 0.86668,-0.89542 1.44044,-2.2649 1.27503,-3.04377 -0.34374,-1.61557 -6.69823,-5.86303 -8.77016,-5.86303 -1.82555,0 -1.84019,4.56263 -0.019,5.99428 1.92978,1.51713 1.67735,3.42543 -0.45143,3.42543 -1.99267,0 -2.14258,0.8704 -1.23283,7.15913 0.68663,4.74655 2.13311,5.06864 4.45056,0.99128 z m 84.87935,-10.67609 c 0.69093,-1.05949 -1.46456,-2.03091 -3.58215,-1.61471 -0.8012,0.15801 -1.44733,0.67179 -1.437,1.14325 0.0276,1.18815 4.29032,1.58881 5.01915,0.47146 z M 579.6276,507.22448 c 3.7088,-3.6672 9.76349,-13.31056 8.59097,-13.68186 -0.5462,-0.17269 -3.10057,1.65788 -5.67649,4.06786 -2.57591,2.40998 -5.1053,4.38131 -5.62134,4.38131 -0.51605,0 -1.51971,-1.22269 -2.23131,-2.71824 -1.86517,-3.92194 -3.9035,-4.87177 -6.21149,-2.89266 -1.0226,0.87729 -1.85999,2.02918 -1.85999,2.55935 0,0.53018 2.35709,3.17502 5.23883,5.87686 l 5.23885,4.91148 z m 51.07373,-2.3219 c 2.69824,-3.24928 2.36397,-5.04963 -1.31726,-7.10731 -4.16626,-2.32881 -5.66442,-2.26837 -6.33295,0.25646 -0.95111,3.58949 -0.05,5.9347 2.90501,7.56581 l 2.84815,1.57068 z m 5.48177,-9.48966 c 2.61039,-3.14393 2.09004,-4.4262 -2.85331,-7.0296 -4.72366,-2.48769 -5.76694,-2.14143 -6.68703,2.21915 -0.51605,2.44451 -0.23348,2.88662 3.12813,4.89767 2.03317,1.21577 3.87766,2.2105 4.10079,2.2105 0.22226,0 1.26211,-1.03444 2.31142,-2.29772 z m -47.8732,-10.62427 c 1.50074,-1.16311 1.65323,-1.45411 0.45229,-0.86608 -2.94809,1.44374 -4.58238,2.62931 -3.61576,2.62326 0.4971,-0.004 1.92117,-0.7944 3.16347,-1.75718 z m 64.34355,-3.07745 c -0.65303,-0.24782 -1.43269,-0.21674 -1.7325,0.0674 -0.30067,0.28495 0.23347,0.48701 1.1863,0.44988 1.05277,-0.0414 1.26728,-0.24437 0.5462,-0.51722 z m 29.33525,-1.59831 c 19.90518,-3.21992 42.93936,-13.41935 57.71682,-25.55646 l 3.61576,-2.9695 -5.39477,-5.19816 c -2.96791,-2.85813 -5.72129,-5.19729 -6.12103,-5.19729 -0.39888,0 -3.25909,1.86166 -6.35535,4.13606 -7.60886,5.59104 -16.27735,10.42223 -18.70164,10.42223 -1.09413,0 -3.75015,-1.36775 -5.90221,-3.03859 -2.2942,-1.7805 -4.14989,-2.67507 -4.48587,-2.1613 -0.31445,0.48269 -0.81759,2.84172 -1.11738,5.2422 -0.39199,3.13702 -1.08033,4.68697 -2.44583,5.50815 -2.07107,1.24514 -12.29202,3.44788 -20.8804,4.49959 l -5.4232,0.66403 v 7.27396 7.27397 l 4.06717,0.14593 c 2.23735,0.0803 7.3797,-0.38943 11.42793,-1.04482 z m -24.9855,-6.2965 v -6.76624 l -5.64891,-0.58285 c -7.06782,-0.72965 -16.24635,-2.61117 -21.14575,-4.33468 -3.9302,-1.38243 -4.8055,-2.80286 -4.8279,-7.8309 -0.0172,-3.8071 -1.02606,-4.02988 -5.08204,-1.12168 -1.93495,1.38675 -4.2774,2.5326 -5.20611,2.54554 -2.13051,0.0302 -11.19703,-5.15756 -17.45675,-9.98875 -2.62934,-2.02918 -5.10532,-3.68878 -5.50247,-3.68878 -0.39629,0 -2.90501,2.0948 -5.57397,4.65502 l -4.85202,4.65503 2.98599,2.40998 c 11.61746,9.37568 25.0863,16.52875 39.81552,21.14493 9.3112,2.91857 23.62432,5.67048 29.49033,5.67048 h 3.00408 z m 160.88602,-9.16586 c 3.06698,-1.26931 3.10833,-1.34789 1.35517,-2.59044 -1.38618,-0.98264 -3.17984,-1.15274 -7.69673,-0.73137 -5.17337,0.48182 -6.18995,0.32467 -8.36095,-1.29263 -1.84105,-1.37294 -2.47082,-2.59649 -2.47082,-4.80355 0,-3.90293 -2.09002,-4.64984 -4.91834,-1.75892 -2.52682,2.58269 -6.50526,3.75098 -8.55394,2.51188 -1.00969,-0.61135 -1.35601,-1.86771 -1.15786,-4.19392 0.15593,-1.82628 0.48417,-8.02521 0.72884,-13.77427 0.42041,-9.86009 0.34029,-10.51461 -1.41374,-11.55252 -3.49257,-2.06631 -1.53177,-11.25807 3.68123,-17.24977 6.92997,-7.96561 20.01028,-10.30824 29.57992,-5.29745 5.75575,3.01355 9.51451,7.07795 11.4038,12.33051 1.92892,5.36395 1.78161,8.88005 -0.42645,10.1865 -1.64289,0.97227 -1.8083,1.99722 -1.8083,11.23389 0,12.52738 0.80982,13.7613 6.0452,9.21593 l 3.44519,-2.99196 v -15.26635 c 0,-14.32861 -0.12837,-15.49431 -2.09778,-18.99054 -3.19448,-5.67136 -8.83909,-10.96709 -14.4949,-13.59897 -4.42557,-2.05854 -6.17529,-2.37199 -13.2345,-2.37199 -7.05921,0 -8.80894,0.31345 -13.23365,2.37199 -5.66873,2.63793 -11.3211,7.94662 -14.47767,13.59897 -1.90221,3.40642 -2.09692,4.94774 -2.27265,18.01999 -0.18351,13.62574 -0.0965,14.4305 1.8686,17.17377 1.13375,1.58277 2.33298,4.75607 2.66551,7.05033 0.99332,6.869 4.02756,8.70217 11.21513,6.77747 3.75619,-1.00509 3.87766,-0.97228 5.38357,1.44374 2.8697,4.60236 13.20954,7.04688 19.24612,4.54968 z M 529.10783,452.89942 c 5.24401,-1.94802 8.26531,-3.90726 12.09214,-7.84042 5.01226,-5.15153 6.55006,-8.80836 6.55006,-15.57634 0,-20.55603 -25.85218,-30.07246 -41.17929,-15.15842 -6.98598,6.79733 -10.40962,17.92588 -7.81045,25.38636 1.46284,4.20083 7.83543,10.82374 12.23517,12.71735 4.20329,1.809 13.83584,2.0594 18.11237,0.47147 z m -11.26337,-12.11897 c -1.42236,-0.69683 -3.40211,-2.24936 -4.39801,-3.44874 -1.51885,-1.82972 -2.44411,-2.14403 -5.72904,-1.94456 -3.38401,0.20551 -3.91729,0.007 -3.91729,-1.45411 0,-1.12166 0.91321,-1.97564 2.71118,-2.53431 1.49127,-0.4637 2.84987,-0.92479 3.01787,-1.02496 0.16885,-0.0993 0.69265,-1.81071 1.16476,-3.80191 1.11651,-4.7077 3.61747,-7.95265 7.46067,-9.68048 12.22137,-5.4952 24.93552,6.83358 18.86016,18.28853 -3.26081,6.15058 -12.52463,8.85673 -19.1703,5.60054 z m 10.51041,-1.38502 c 4.42557,-1.21406 7.53218,-5.28537 7.53218,-9.87304 0,-2.1069 -0.61771,-4.96071 -1.37153,-6.34228 -3.71225,-6.8025 -15.97496,-6.68507 -20.00252,0.19084 -2.05642,3.51177 -1.52315,9.64335 1.09497,12.59128 1.88154,2.11898 7.3797,4.61962 9.43267,4.29063 0.24812,-0.0397 1.74025,-0.42569 3.31423,-0.85743 z m 297.44302,11.50502 c 0.82963,-0.31689 1.12943,-3.68101 1.12943,-12.67244 0,-10.12433 -0.24725,-12.43586 -1.43096,-13.3667 -1.0364,-0.81426 -1.84794,-0.87816 -2.93776,-0.22969 -1.15441,0.68647 -1.61705,2.67421 -1.98146,8.51393 -0.37389,5.99429 -0.56687,6.79646 -0.90373,3.76392 -0.37647,-3.38485 -0.67628,-3.82869 -2.46219,-3.64907 -1.94701,0.19515 -2.03402,-0.0691 -2.03402,-6.20844 0,-4.97106 -0.28861,-6.41307 -1.28451,-6.41307 -0.958,0 -1.40599,1.68637 -1.76524,6.63671 -0.67112,9.2548 -0.7676,9.63387 -2.44841,9.63387 -1.84449,0 -2.61209,-3.81831 -2.62674,-13.0593 -0.008,-5.97701 -0.18264,-6.63671 -1.74973,-6.63671 -1.60241,0 -1.72733,0.61307 -1.56536,7.70743 0.0965,4.23883 -0.13698,7.70744 -0.51949,7.70744 -0.38164,0 -0.69437,1.51799 -0.69437,3.37448 0,3.71815 -1.64118,5.54873 -2.42601,2.70616 -0.2731,-0.98955 -0.85117,-1.7995 -1.28365,-1.7995 -0.43335,0 -0.69094,-0.82463 -0.57291,-1.83231 0.30239,-2.57663 -2.02283,-3.08867 -2.78181,-0.61221 -0.43679,1.42388 -0.75124,0.40584 -1.07,-3.4617 -0.49967,-6.053 -2.23733,-8.23243 -4.89596,-6.14194 -1.18371,0.93084 -1.43096,3.24411 -1.43096,13.38051 0,11.59742 0.0991,12.28388 1.85052,12.8106 2.44841,0.73656 4.4764,-0.96536 4.4764,-3.757 v -2.25023 h 13.10529 13.10614 v 2.18374 c 0,3.36154 2.10897,4.85191 5.19749,3.67152 z m -72.79325,-6.92598 c 8.82703,-8.88609 19.38569,-26.71956 24.11538,-40.73041 3.08161,-9.12873 5.82208,-23.50656 5.35773,-28.10633 l -0.2912,-2.8823 h -8.55823 -8.55737 l -0.61168,3.42543 c -0.33685,1.88412 -1.07688,6.12295 -1.64461,9.41972 -1.2492,7.24807 -3.43915,13.88997 -4.85203,14.71718 -0.57117,0.33417 -3.22118,0.88852 -5.89013,1.23219 -2.66896,0.34281 -5.07861,0.83757 -5.35429,1.09922 -0.27654,0.26163 0.67715,2.04385 2.11759,3.96077 1.44131,1.91694 3.02649,4.04714 3.52357,4.73447 1.21215,1.67517 -2.52249,8.38096 -9.03379,16.21705 -2.73959,3.29764 -5.2483,6.53051 -5.57482,7.18416 -0.59186,1.18384 10.30624,12.08357 12.08094,12.08357 0.45833,0 1.88671,-1.05949 3.17294,-2.35472 z m -172.12526,-3.02046 c 3.09281,-2.95569 5.62306,-5.72574 5.62306,-6.15489 0,-0.42916 -1.8419,-3.00147 -4.09389,-5.71711 -5.01657,-6.04955 -12.17572,-16.9372 -12.17572,-18.5165 0,-0.63898 1.42409,-2.92806 3.16347,-5.08676 1.74025,-2.15871 3.16347,-4.22934 3.16347,-4.60063 0,-0.82463 -1.84364,-1.33408 -7.43742,-2.05336 -4.23001,-0.544 -4.28773,-0.59581 -5.69199,-4.9961 -0.78053,-2.44539 -1.84707,-7.5287 -2.37001,-11.29693 -1.67047,-12.0378 -0.43506,-10.8013 -10.51127,-10.52066 l -8.7874,0.24436 -0.29206,3.40039 c -0.7633,8.87572 4.90371,29.85401 11.57267,42.84249 5.99093,11.66737 18.26572,27.83088 21.1354,27.83088 0.59358,0 3.60886,-2.41862 6.70169,-5.37518 z m 81.28513,-17.74541 c 0.39457,-1.43251 1.23368,-1.71314 5.1122,-1.714 5.48436,-10e-4 10.48456,-2.13021 12.0706,-5.13685 1.30347,-2.47215 1.52919,-15.24304 0.30153,-17.08053 -0.55481,-0.83066 -3.15485,-1.39452 -7.89487,-1.71315 -5.51796,-0.37043 -7.04801,-0.75641 -6.97478,-1.75891 0.0517,-0.70633 1.62826,-7.40263 3.50376,-14.88037 3.47447,-13.85111 4.97781,-16.80422 8.55135,-16.80422 0.96488,0 2.0073,-0.38856 2.31746,-0.86262 1.04328,-1.60088 -2.11501,-1.85389 -5.29399,-0.42482 -2.59745,1.16742 -3.52443,1.23218 -5.23883,0.36265 -4.09475,-2.0758 -8.12317,-2.44019 -11.75616,-1.06294 -3.07989,1.16743 -3.86128,1.17347 -6.86451,0.0579 -5.73334,-2.13021 -8.11542,0.0743 -2.48803,2.30204 1.73938,0.68819 3.56923,2.13798 4.06631,3.22252 0.87961,1.91606 7.2341,27.39135 7.2341,28.99916 0,0.4421 -2.818,0.80303 -6.26231,0.80303 -8.81411,0 -9.35169,0.65539 -8.95969,10.91873 0.29808,7.78946 0.40317,8.14349 3.02044,10.12778 1.49128,1.13029 3.84665,3.0239 5.23367,4.20601 3.297,2.81149 9.59291,3.07831 10.32175,0.43778 z m -4.01291,-42.70951 c -1.70407,-7.19366 -2.88433,-13.60933 -2.62243,-14.25607 0.26276,-0.64676 2.20459,-1.61731 4.31615,-2.15613 3.16863,-0.80821 4.36269,-0.74345 6.82575,0.36958 1.64203,0.74173 2.98943,1.83662 2.99374,2.43329 0.0206,3.0265 -6.70341,27.22902 -7.49599,26.97861 -0.50571,-0.15974 -2.31315,-6.17562 -4.01722,-13.36928 z m -166.91487,41.51015 c 2.27438,-2.15525 3.07215,-3.65685 3.06956,-5.78016 -0.009,-4.11707 -2.86538,-8.06836 -6.71115,-9.27119 -7.04198,-2.20188 -14.56899,4.93048 -12.2455,11.60173 1.269,3.64303 5.44043,6.3535 9.78589,6.35781 2.24078,0.002 3.82595,-0.75295 6.1012,-2.90819 z m -11.77684,-4.18012 c -1.87636,-5.0505 3.4159,-9.15032 8.07752,-6.25593 3.27201,2.03091 3.1807,6.83791 -0.16197,8.49753 -3.27718,1.6268 -6.85416,0.61393 -7.91555,-2.2416 z m 5.81089,-1.89966 c 0,-0.70633 -0.40664,-1.28486 -0.90372,-1.28486 -0.4971,0 -0.90372,0.57853 -0.90372,1.28486 0,0.70633 0.40662,1.284 0.90372,1.284 0.49708,0 0.90372,-0.57767 0.90372,-1.284 z m 18.63703,-8.91458 c 10.08225,-5.82418 1.213,-20.40925 -9.18455,-15.10402 -5.78848,2.95311 -6.64137,9.29797 -1.85999,13.82779 3.56492,3.37708 6.76714,3.74751 11.04454,1.27623 z m -7.27028,-5.14376 c -2.2494,-2.35471 -0.46952,-5.41922 2.93,-5.04705 2.90845,0.31862 3.72516,3.19315 1.5042,5.29659 -1.88585,1.78741 -2.52251,1.75114 -4.4342,-0.24954 z M 782.32698,363.6543 c 0.68145,-1.6812 -0.23777,-9.97926 -2.08226,-18.80144 -1.97459,-9.44563 -5.96596,-19.86959 -11.39606,-29.75904 -4.56169,-8.31014 -15.06779,-22.3279 -18.05723,-24.09545 -1.31122,-0.7754 -2.53542,-0.0198 -7.45723,4.6015 -3.23841,3.04118 -5.88841,5.90189 -5.88841,6.35696 0,0.45591 1.84276,3.04981 4.09389,5.76545 2.25199,2.71565 5.89617,7.70658 8.09904,11.09142 4.423,6.79647 4.41611,6.96139 -0.55136,12.71217 -3.17121,3.67153 -2.38638,4.7742 3.90264,5.47966 2.57591,0.28927 5.16217,1.01718 5.74799,1.61731 1.35773,1.39279 3.81046,10.89885 4.50139,17.44836 1.01658,9.64336 0.19211,8.90508 9.95474,8.90508 6.91878,0 8.70211,-0.25818 9.13286,-1.32198 z m -223.56428,0.68041 c 0.21279,-0.35315 0.66595,-3.14738 1.00625,-6.20842 0.70127,-6.2991 3.78634,-19.5095 4.98124,-21.32713 0.43507,-0.66142 3.10488,-1.49987 5.93236,-1.86339 2.82833,-0.36439 5.356,-0.86435 5.6179,-1.11216 0.26189,-0.24869 -1.03122,-2.39617 -2.87314,-4.7742 l -3.34868,-4.32258 3.27631,-5.55046 c 1.80142,-3.05327 5.29399,-7.9328 7.75962,-10.84446 2.46651,-2.9108 4.48416,-5.69985 4.48416,-6.19808 0,-1.25636 -10.09086,-10.80301 -11.41931,-10.80301 -1.56622,0 -8.02926,7.13235 -13.19315,14.55829 -9.45852,13.60243 -15.85264,29.78407 -18.40012,46.56583 -1.90652,12.55674 -1.92978,12.52134 8.27135,12.52134 4.13525,0 7.69329,-0.2884 7.90521,-0.64157 z m 258.89995,-9.34458 c 0.62201,-0.23833 1.1303,-0.94639 1.1303,-1.57413 0,-0.62776 -0.50829,-1.3384 -1.1303,-1.57845 -0.75985,-0.29359 -0.40577,-0.98955 1.08205,-2.12848 1.84449,-1.41179 2.27353,-2.62412 2.58885,-7.31973 0.37044,-5.50729 -0.32738,-10.62342 -1.32071,-9.68308 -0.27482,0.26076 -0.76329,2.52222 -1.08549,5.02546 -0.56688,4.39858 -0.70041,4.57818 -3.97587,5.34495 -2.87399,0.67266 -3.38918,1.14584 -3.38918,3.1068 0,1.42821 0.77795,2.8305 2.03317,3.66462 1.65323,1.09921 1.79796,1.50246 0.7719,2.15956 -2.64741,1.69502 0.11718,4.19739 3.29528,2.98248 z m 20.38159,-0.88766 c 1.34913,-0.33158 1.58001,-1.15534 1.35601,-4.82514 l -0.27051,-4.42447 h -3.61576 -3.61574 l -0.2688,4.38475 c -0.24295,3.95475 -0.0647,4.43743 1.80744,4.91234 1.14237,0.29014 2.28043,0.48787 2.5294,0.43952 0.24811,-0.0484 1.18371,-0.26769 2.07796,-0.487 z m -129.24968,-3.65426 c 4.11199,-0.75469 5.59809,-1.97219 4.80379,-3.93402 -0.48934,-1.20801 -1.34223,-1.35567 -5.10187,-0.88248 -6.02194,0.75641 -7.20479,1.26155 -7.20479,3.074 0,1.37552 1.89445,2.72687 3.46326,2.47128 0.33254,-0.0544 2.15033,-0.38253 4.03961,-0.72878 z m -86.99866,-0.50687 c 1.87895,-2.14489 -0.73745,-3.79758 -6.38206,-4.03072 -3.96639,-0.1632 -4.95282,0.0717 -5.20697,1.2391 -0.60995,2.80544 9.45335,5.23009 11.58903,2.79162 z m -92.9138,-3.87271 c 1.27245,-0.70201 1.58433,-2.07926 1.59553,-7.0391 0.008,-3.39088 0.3179,-6.61858 0.6892,-7.17293 0.37217,-0.5535 2.29765,-1.13116 4.27998,-1.28401 1.98147,-0.15283 3.50204,-0.66315 3.37798,-1.13461 -0.14043,-0.53449 -8.63147,-0.93947 -22.59567,-1.07762 -19.74321,-0.19515 -22.50435,-0.3903 -23.50112,-1.66221 -0.6556,-0.83585 -1.15441,-4.15852 -1.18716,-7.9138 -0.0457,-5.0954 -0.24466,-6.02883 -0.93818,-4.38477 -0.48417,1.14843 -0.7633,5.19471 -0.62028,8.99145 l 0.25931,6.90352 6.77835,0.2556 c 3.72775,0.14075 7.09281,0.55435 7.47704,0.9196 0.3851,0.36439 0.081,2.06717 -0.67628,3.78378 -2.28558,5.18348 -1.82898,7.90949 1.66788,9.95767 2.58194,1.51195 4.46865,1.77791 12.42728,1.75631 5.16129,-0.0147 10.09602,-0.41878 10.96614,-0.89888 z m -15.92585,-4.42707 c -0.29981,-1.06035 -0.5505,-2.97296 -0.5574,-4.25178 -0.008,-1.45065 -0.70127,-2.6742 -1.84535,-3.25446 -3.18672,-1.61558 -0.99591,-2.55591 5.95389,-2.55591 h 6.72495 v 5.99429 5.99429 h -4.86581 c -4.28171,0 -4.93042,-0.23142 -5.41028,-1.92643 z m 323.91376,-0.27717 c 0,-0.79786 -0.61512,-1.23478 -1.50679,-1.07073 -2.26749,0.41707 -2.57936,2.41776 -0.37647,2.41776 1.11048,0 1.88326,-0.55263 1.88326,-1.34703 z m 2.59486,-7.51143 c 0.73401,-0.83757 1.00021,-4.23969 0.82618,-10.53274 l -0.25759,-9.29625 h -4.51948 -4.51947 v 10.2763 10.27629 l 3.69416,0.25645 c 2.39498,0.1658 4.07407,-0.17787 4.7762,-0.98005 z m -135.39655,-2.08704 c 8.566,-5.66961 6.28903,-9.57082 -2.39757,-4.10671 -5.35773,3.37017 -6.81195,5.35704 -4.80379,6.56245 1.82555,1.0949 1.8488,1.08713 7.20136,-2.45574 z m -77.49535,2.6673 c 1.66443,-1.57672 0.22572,-3.90553 -4.13007,-6.68507 -5.10014,-3.25359 -7.43138,-3.75182 -8.23776,-1.75978 -0.61683,1.52232 1.24489,3.38572 6.59486,6.60132 4.27136,2.56712 4.82359,2.74328 5.77297,1.84353 z m -101.5039,-9.75475 c 0.54706,-0.96969 0.73314,-2.89698 0.41181,-4.282 l -0.58411,-2.51878 h 7.1221 c 4.33425,0 7.54596,-0.40238 8.20588,-1.02754 1.22334,-1.15879 1.48524,-12.46262 0.32995,-14.18786 -0.56257,-0.8393 -5.74626,-1.03445 -22.80846,-0.85657 l -22.08135,0.22967 v 6.42258 c 0.009,9.44045 -0.0129,9.41972 8.49879,9.41972 h 7.20222 l -0.51259,2.99024 c -0.76588,4.47456 0.70815,5.5729 7.48392,5.5729 4.86236,0 5.88412,-0.26767 6.72839,-1.76236 z m 276.77627,-1.67688 c 1.38789,-0.8134 1.58173,-2.43674 1.58173,-13.2104 0,-13.99444 0.41094,-13.32266 -8.13438,-13.32266 -8.5453,0 -8.13437,-0.67092 -8.13437,13.31489 0,6.75155 0.33772,12.47298 0.75124,12.71476 1.70751,0.99992 12.42814,1.38675 13.93578,0.50341 z m -114.70309,-3.57482 c 5.48953,-8.97071 6.37431,-13.18794 2.62847,-12.52997 -1.90997,0.33503 -8.43332,11.5482 -8.12748,13.9694 0.4006,3.16725 3.11435,2.45747 5.49901,-1.43943 z m -44.99061,2.46007 c 0.27913,-0.68993 -1.15011,-4.37958 -3.17638,-8.19875 -2.75425,-5.18866 -4.13869,-6.94326 -5.48264,-6.94326 -2.72151,0 -2.23131,2.979 1.6205,9.84714 3.27373,5.83886 5.99007,7.88272 7.03852,5.29487 z m 21.47916,-3.7242 c 0.33168,-0.31344 0.60305,-4.11967 0.60305,-8.4578 0,-8.19876 -0.9442,-10.51893 -3.63729,-8.94134 -1.6989,0.99472 -2.4286,13.51951 -0.94077,16.15313 1.014,1.79519 2.80422,2.35645 3.97501,1.24601 z M 491.53396,307.7646 c 0.0405,-2.82617 -0.27827,-4.3459 -0.83998,-4.01692 -1.08292,0.6338 -1.08292,4.4642 0,6.85086 0.56946,1.25464 0.79346,0.4965 0.83998,-2.83394 z m 327.25899,-3.48328 c 0,-0.88508 -0.60995,-2.08791 -1.35602,-2.67421 -1.6963,-1.33408 -4.06718,0.22451 -4.06718,2.67421 0,1.21491 0.66164,1.60779 2.71117,1.60779 2.05039,0 2.71203,-0.39288 2.71203,-1.60779 z m -279.11527,-4.95984 4.24294,-0.37302 1.38616,-4.51774 c 0.76245,-2.48424 1.8669,-6.49252 2.4553,-8.90682 1.78678,-7.33269 3.00064,-7.03824 -28.98634,-7.03824 -22.17611,0 -28.07831,0.23746 -29.44467,1.18383 -1.67132,1.15793 -1.66615,1.37207 0.24122,9.95423 1.07259,4.82513 2.17274,8.98279 2.44583,9.24097 0.60995,0.57853 41.79785,0.97315 47.65956,0.45679 z m -43.24173,-2.42466 c -1.36981,-0.40497 -3.49688,-12.3167 -2.38811,-13.36756 0.48072,-0.45505 10.97304,-0.69424 24.72618,-0.56212 l 23.89138,0.22881 -0.18608,2.46525 c -0.10252,1.35653 -0.63494,4.51428 -1.18286,7.01665 -0.97092,4.42708 -1.08722,4.55745 -4.33339,4.81391 -4.199,0.33157 -39.12804,-0.18133 -40.52712,-0.59494 z m 102.26891,-4.83463 c 4.82446,-3.80191 13.78846,-9.15464 17.6799,-10.5578 0.84428,-0.30481 3.1178,0.72533 5.65754,2.56368 2.33555,1.68984 4.60218,2.86418 5.03638,2.60945 0.4342,-0.25386 1.0743,-2.61981 1.42235,-5.25688 0.58497,-4.43484 0.86495,-4.88644 3.73982,-6.02451 1.71008,-0.67697 7.26855,-1.84354 12.35404,-2.59304 5.08462,-0.74951 10.15978,-1.51886 11.27802,-1.70969 1.94012,-0.33158 2.03402,-0.72014 2.03402,-8.46644 v -8.11932 h -4.93903 c -11.47617,0 -30.80672,4.95466 -44.32122,11.3591 -12.80633,6.06941 -28.47116,16.66346 -28.47116,19.25478 0,1.73387 9.95129,11.35996 11.66139,11.28053 0.79432,-0.0362 3.88454,-1.98947 6.86795,-4.33986 z m 138.77194,-2.04818 4.94076,-4.74224 -3.61576,-2.94103 c -9.68767,-7.88099 -24.5513,-15.95454 -36.88811,-20.03794 -9.61445,-3.18194 -24.06627,-6.072 -30.36476,-6.072 h -4.6039 v 6.79819 6.79818 l 4.29376,0.48356 c 5.66012,0.63724 19.92241,3.51609 22.98593,4.63948 2.01765,0.74 2.52077,1.57672 3.00495,5.00042 0.93818,6.62982 0.98297,6.66694 4.74088,3.89862 1.86345,-1.3738 3.89661,-2.77695 4.51776,-3.11976 1.52573,-0.8393 10.16064,3.62318 18.10117,9.35497 3.56752,2.5749 6.81454,4.68179 7.21686,4.68179 0.40147,0 2.95326,-2.13366 5.67046,-4.74224 z m 86.28706,-4.86053 c 4.03876,-1.34532 4.97091,-2.32364 4.97091,-5.21372 0,-1.43942 0.479,-3.87185 1.06396,-5.40453 0.85893,-2.24936 0.82016,-3.06622 -0.19986,-4.23105 -1.10705,-1.26414 -2.50011,-1.36862 -11.23237,-0.84621 -13.29051,0.79439 -15.14447,0.79698 -23.15134,0.0345 -8.64352,-0.82291 -13.48004,0.41274 -13.48004,3.4427 0,1.11303 0.40664,2.26232 0.90372,2.5533 0.4971,0.291 0.90976,1.95148 0.91752,3.68967 0.008,1.73904 0.31272,3.57999 0.678,4.09116 1.02261,1.43253 6.39757,2.92377 10.53971,2.92377 4.53584,0 7.51925,-1.83922 9.21298,-5.67827 1.61792,-3.66893 2.59487,-3.63611 4.49105,0.14939 2.50096,4.99352 8.49362,6.75329 15.28576,4.48925 z m -33.00357,-3.24239 c -0.92354,0 -1.95218,-0.83412 -2.29678,-1.86166 -0.9847,-2.93929 1.81261,-4.34331 7.28062,-3.6534 2.48631,0.31432 4.65474,0.68647 4.81842,0.82894 0.16541,0.14162 -0.16627,1.08281 -0.7366,2.09222 -1.14494,2.02659 -4.32046,3.54977 -6.18908,2.96865 -0.66164,-0.20637 -1.95648,-0.37475 -2.87658,-0.37475 z m 21.39128,-2.78559 c -2.52853,-3.22079 -1.24832,-4.14211 4.3601,-3.13702 5.55243,0.99386 7.6459,2.64052 5.89704,4.63776 -1.972,2.25108 -8.00429,1.36861 -10.25714,-1.50074 z m -57.87448,-22.42374 c 5.40339,-2.2252 7.21514,-7.3301 4.41955,-12.45141 -1.34568,-2.4661 -4.22571,-3.98756 -5.8014,-3.06449 -0.46005,0.26854 -1.89016,0.10963 -3.17897,-0.35489 -3.29355,-1.18642 -7.61145,2.55245 -7.88454,6.82582 -0.42644,6.68075 0.0637,9.31782 1.71527,9.21593 0.87012,-0.0536 3.00494,0.1468 4.74519,0.44642 1.91859,0.32985 4.27394,0.0872 5.9849,-0.61738 z m -7.26424,-4.68266 c -4.15334,-4.3485 1.21731,-11.41868 6.2847,-8.27303 2.94207,1.82626 3.71656,5.07556 1.85225,7.77047 -1.80744,2.61463 -5.8798,2.8659 -8.13695,0.50256 z m -24.93209,-0.11998 c -7.70534,-0.32467 -19.79662,-0.64071 -26.86875,-0.70288 -16.80804,-0.14851 -15.79836,1.18125 -15.53559,-20.44638 0.13008,-10.72011 -0.1456,-16.73685 -0.81672,-17.83347 -0.77018,-1.25723 -1.02003,2.99801 -1.0407,17.75836 -0.0155,10.67608 0.21968,20.02068 0.52121,20.76586 0.48589,1.20024 3.80701,1.33753 29.14917,1.20111 24.93208,-0.13298 26.80329,-0.22883 14.59138,-0.7426 z M 596.2642,251.76788 c 1.97545,-1.87204 1.13634,-2.3979 -3.8225,-2.3979 -6.0995,0 -7.89144,-1.42819 -7.60283,-6.06164 0.11371,-1.82107 -0.0758,-3.57913 -0.42041,-3.90553 -1.1639,-1.10265 -1.88326,0.57422 -1.67564,3.90553 0.2886,4.63345 -1.50248,6.06164 -7.60282,6.06164 -4.95886,0 -5.79796,0.52586 -3.82252,2.3979 1.50333,1.42386 23.44425,1.42386 24.94672,0 z m 128.70951,-3.89431 13.28706,-0.26163 -0.18264,-4.04542 -0.1835,-4.04454 -26.88771,-0.2271 c -17.7066,-0.14939 -26.91441,0.07 -26.96352,0.64243 -0.30583,3.52473 -0.12406,6.72135 0.42989,7.57101 0.65562,1.00423 5.69975,1.04999 40.50042,0.36525 z m -91.9377,-6.15317 c 0.82706,-3.19747 1.37239,-7.12027 1.21128,-8.71598 -0.2774,-2.75105 -0.49277,-2.91598 -4.13351,-3.16552 -3.89748,-0.26768 -4.75727,-1.11303 -2.71204,-2.67075 8.75897,-6.66953 10.48974,-9.75648 8.77275,-15.64801 -0.91492,-3.13876 -6.20717,-8.39304 -8.45399,-8.39304 -0.65991,0 -2.73529,-1.15621 -4.61166,-2.56886 -6.30797,-4.74915 -14.37428,-2.88403 -16.7262,3.86667 -1.24661,3.57827 -0.0439,7.91122 2.87744,10.37386 2.67843,2.25629 5.21815,7.88273 5.24228,11.60952 0.0181,2.94015 -0.18177,3.17587 -2.91794,3.42542 l -2.93774,0.26855 0.0629,5.13772 c 0.0345,2.82616 0.55051,6.74896 1.14668,8.71684 l 1.08463,3.57826 h 10.29591 10.29503 z m -14.88515,-13.11715 c 0.009,-0.58889 0.35579,-1.58016 0.77276,-2.2036 0.61254,-0.91615 1.04502,-0.86348 2.24597,0.27458 2.10552,1.99464 1.84621,2.99974 -0.77278,2.99974 -1.2423,0 -2.25285,-0.48183 -2.24595,-1.07072 z m -32.58832,8.39046 c 1.73681,-1.98256 0.77191,-4.3226 -1.78419,-4.3226 -1.6808,0 -2.32349,0.5155 -2.55179,2.04387 -0.45229,3.03081 2.37519,4.51686 4.33598,2.27873 z m 151.28105,-1.89621 c 0.33082,-0.31431 0.6022,-4.36058 0.6022,-8.99143 V 217.6854 H 720.3698 c -14.73783,0 -17.15178,0.18564 -17.62562,1.35394 -0.30152,0.74517 -0.54877,4.18183 -0.54877,7.63749 0,3.45565 0.24725,6.89231 0.54877,7.63663 0.47297,1.16656 2.83438,1.3548 17.02257,1.3548 9.06049,0 16.74516,-0.25646 17.07684,-0.57076 z m -161.28145,-0.21242 c 1.24746,-0.74863 0.80809,-3.51092 -0.55567,-3.48501 -1.6989,0.031 -3.18329,1.63976 -2.67413,2.89698 0.62631,1.5465 1.39823,1.68724 3.2298,0.58803 z m 178.26438,-4.78282 c 0.0362,-4.7621 0.0379,-15.80344 0,-22.06109 -0.0163,-2.89439 -0.43247,-4.22674 -1.43614,-4.592 -2.4415,-0.88765 -4.07062,1.31423 -4.10508,5.55133 -0.22313,27.41467 -0.44455,25.38377 2.75769,25.38377 2.69049,0 2.74821,-0.0898 2.78009,-4.28201 z m -58.86176,-0.75123 c 0,-1.11994 -0.60995,-2.51619 -1.35602,-3.10249 -0.74521,-0.5863 -1.35515,-1.54304 -1.35515,-2.12589 0,-0.58372 -1.01745,-2.47992 -2.25974,-4.21552 -1.24316,-1.73474 -2.25975,-3.32958 -2.25975,-3.54459 0,-0.21414 11.94915,-0.39029 26.55259,-0.39029 22.5121,0 26.72488,-0.19515 27.67943,-1.28572 1.49731,-1.70883 0.74435,-10.58716 -0.98642,-11.62505 -0.70041,-0.42053 -14.32776,-0.77023 -30.28292,-0.77714 -27.87069,-0.0129 -29.07422,0.0536 -30.64561,1.69933 -0.89941,0.94206 -1.26814,1.71833 -0.81757,1.7261 0.4497,0.007 0.26707,0.34281 -0.40492,0.74691 -0.99849,0.59925 -0.87184,1.42216 0.69265,4.48234 2.14259,4.1922 6.96531,10.94376 10.01161,14.01602 1.1036,1.11303 1.75661,2.40567 1.45078,2.87367 -0.59358,0.91011 1.74542,3.55755 3.14193,3.55755 0.46176,0 0.83911,-0.91616 0.83911,-2.03523 z m 2.71203,-21.94193 c 0,-0.54227 6.62759,-0.85657 18.07705,-0.85657 11.4486,0 18.07705,0.3143 18.07705,0.85657 0,0.54227 -6.62845,0.85657 -18.07705,0.85657 -11.44946,0 -18.07705,-0.3143 -18.07705,-0.85657 z m -119.4276,21.97216 c 1.27245,-1.45325 -0.32307,-2.27614 -4.41007,-2.27614 -1.99009,0 -5.41459,1.79949 -5.41373,2.8443 0,0.0838 1.97027,0.26509 4.37819,0.40151 2.95154,0.16838 4.72538,-0.14764 5.44561,-0.96967 z"
     id="path839" />
  <path
     inkscape:connector-curvature="0"
     style="fill:#ffff00;fill-opacity:1;stroke-width:0.8797794"
     d="m 696.39314,508.41437 c 0,-9.41973 -0.13181,-13.39002 -0.29378,-8.82307 -0.16196,4.56697 -0.16282,12.27439 0,17.12717 0.1611,4.85276 0.29378,1.11561 0.29465,-8.3041 z m -76.02304,12.76484 c 0.9356,-1.35307 1.325,-3.01787 0.9959,-4.2587 -0.40232,-1.51885 -0.21881,-1.92124 0.7185,-1.58016 1.47319,0.53536 5.09153,-3.47466 5.09153,-5.64285 0,-1.5914 -6.29161,-5.99256 -8.56771,-5.99256 -1.82555,0 -1.84019,4.56263 -0.019,5.99428 1.92978,1.51713 1.67735,3.42543 -0.45143,3.42543 -1.97027,0 -2.21494,1.40575 -1.22765,7.06501 0.66077,3.78981 1.381,3.99532 3.45981,0.98955 z m 116.58376,-1.9981 c 0.33772,-0.51895 0.14733,-3.07658 -0.42386,-5.68343 -0.79948,-3.64907 -0.78829,-5.02547 0.0492,-5.9822 0.64356,-0.73483 0.71334,-1.24169 0.16973,-1.24169 -1.25092,0 -2.07797,-2.27268 -1.41891,-3.90034 0.30411,-0.75037 1.37755,-1.22874 2.45788,-1.09662 1.0545,0.12865 2.46479,-0.0881 3.13417,-0.48269 0.75124,-0.44297 1.72819,-0.23315 2.55438,0.55003 1.11048,1.05259 1.17252,2.11467 0.36528,6.25334 -0.53499,2.74155 -0.93646,5.78186 -0.89166,6.75502 0.14387,3.14738 2.44927,-6.27061 2.77061,-11.31939 0.25673,-4.02554 0.0715,-4.83204 -1.04415,-4.54363 -4.28687,1.11043 -7.43483,1.00336 -9.57309,-0.32381 -2.12448,-1.31854 -2.46822,-1.32717 -3.90609,-0.0941 -0.86753,0.74346 -2.05297,1.35136 -2.63535,1.35136 -1.92633,0 -1.09757,1.5888 0.97522,1.8677 1.59294,0.21414 2.03317,0.82981 2.03317,2.84258 0,1.41265 0.52121,2.95743 1.15873,3.4332 0.63666,0.47578 1.33276,3.13876 1.54641,5.9183 0.39199,5.09455 1.51367,7.48121 2.67757,5.69639 z M 630.70133,504.90258 c 2.69824,-3.24928 2.36397,-5.04963 -1.31726,-7.10731 -4.16626,-2.32881 -5.66442,-2.26837 -6.33295,0.25646 -0.95111,3.58949 -0.05,5.9347 2.90501,7.56581 l 2.84815,1.57068 z m 5.48177,-9.48966 c 2.61039,-3.14393 2.09004,-4.4262 -2.85331,-7.0296 -4.72366,-2.48769 -5.76694,-2.14143 -6.68703,2.21915 -0.51605,2.44451 -0.23348,2.88662 3.12813,4.89767 2.03317,1.21577 3.87766,2.2105 4.10079,2.2105 0.22226,0 1.26211,-1.03444 2.31142,-2.29772 z m 45.8056,-15.30003 c 19.90518,-3.21992 42.93936,-13.41935 57.71682,-25.55646 l 3.61576,-2.9695 -5.39477,-5.19816 c -2.96791,-2.85813 -5.72129,-5.19729 -6.12103,-5.19729 -0.39888,0 -3.25909,1.86166 -6.35535,4.13606 -7.60886,5.59104 -16.27735,10.42223 -18.70164,10.42223 -1.09413,0 -3.75015,-1.36775 -5.90221,-3.03859 -2.2942,-1.7805 -4.14989,-2.67507 -4.48587,-2.1613 -0.31445,0.48269 -0.81759,2.84172 -1.11738,5.2422 -0.39199,3.13702 -1.08033,4.68697 -2.44583,5.50815 -2.07107,1.24514 -12.29202,3.44788 -20.8804,4.49959 l -5.4232,0.66403 v 7.27396 7.27397 l 4.06717,0.14593 c 2.23735,0.0803 7.3797,-0.38943 11.42793,-1.04482 z m -24.9855,-6.2965 v -6.76624 l -5.64891,-0.58285 c -7.06782,-0.72965 -16.24635,-2.61117 -21.14575,-4.33468 -3.9302,-1.38243 -4.8055,-2.80286 -4.8279,-7.8309 -0.0172,-3.8071 -1.02606,-4.02988 -5.08204,-1.12168 -1.93495,1.38675 -4.2774,2.5326 -5.20611,2.54554 -2.13051,0.0302 -11.19703,-5.15756 -17.45675,-9.98875 -2.62934,-2.02918 -5.10532,-3.68878 -5.50247,-3.68878 -0.39629,0 -2.90501,2.0948 -5.57397,4.65502 l -4.85202,4.65503 2.98599,2.40998 c 11.61746,9.37568 25.0863,16.52875 39.81552,21.14493 9.3112,2.91857 23.62432,5.67048 29.49033,5.67048 h 3.00408 z m 157.72257,-10.36005 c 0.30669,-0.4706 -0.1,-0.85657 -0.90459,-0.85657 -0.80379,0 -1.21042,0.38597 -0.90373,0.85657 0.30757,0.47146 0.7142,0.85657 0.90373,0.85657 0.1904,0 0.59702,-0.38511 0.90459,-0.85657 z m 9.94181,-14.67573 c 0.88305,-2.18116 0.069,-22.15261 -0.90372,-22.15261 -1.22076,0 -1.70493,21.42556 -0.50915,22.55845 0.60047,0.56903 1.07258,0.43347 1.41287,-0.40584 z m -32.53921,0 c 0.88391,-2.18116 0.069,-22.15261 -0.90286,-22.15261 -1.22162,0 -1.70578,21.42556 -0.51001,22.55845 0.60047,0.56903 1.07343,0.43347 1.41287,-0.40584 z m -7.44602,-1.24687 c 0.367,-0.34884 0.66767,-4.78196 0.66767,-9.85232 0,-8.4673 -0.14732,-9.26429 -1.80744,-9.76339 -2.44928,-0.73654 -2.43636,-6.47955 0.0292,-12.72167 2.0814,-5.26983 8.42986,-11.52315 14.11324,-13.90032 4.64526,-1.94284 14.97476,-1.94284 19.62002,0 5.68338,2.37717 12.03184,8.63049 14.11324,13.90032 2.46478,6.24212 2.4777,11.98513 0.0292,12.72167 -1.66185,0.49997 -1.80745,1.29609 -1.80745,9.90586 0,7.68585 0.23864,9.36187 1.33534,9.36187 3.15744,0 6.22527,-7.78774 4.88304,-12.39441 -0.57549,-1.97392 -0.55912,-4.70339 0.0482,-7.93799 3.2746,-17.45527 -11.68724,-33.01607 -30.48882,-31.70703 -17.27326,1.20283 -29.40591,15.74644 -26.36994,31.61118 0.63579,3.32009 0.66594,6.04006 0.0905,8.01657 -0.55998,1.92297 -0.55998,4.06268 0,5.98824 0.98988,3.39607 4.53499,7.72643 5.54382,6.77142 z m -30.36131,-6.72048 c 9.62478,-10.27283 19.09277,-27.54851 23.34087,-42.58948 2.46392,-8.7203 4.62114,-22.95221 3.79063,-25.00211 -0.46004,-1.13634 -1.98233,-1.39452 -8.22224,-1.39452 -4.21191,0 -7.85094,0.2953 -8.08612,0.65625 -0.2352,0.36006 -0.87789,3.73196 -1.42752,7.49243 -1.55675,10.64758 -3.64074,17.81189 -5.66184,19.46891 -1.00539,0.82375 -3.10488,1.50332 -4.66594,1.51022 -3.52013,0.0147 -6.90414,0.83671 -6.90414,1.67775 0,0.34798 1.46112,2.44625 3.24703,4.6628 2.40878,2.9885 3.10833,4.55572 2.70773,6.06682 -0.65217,2.46437 -10.43633,16.47955 -13.09495,18.75914 -1.04414,0.89542 -1.89876,1.98254 -1.89876,2.41515 0,1.23306 10.08224,10.93686 11.36331,10.93686 0.63062,0 3.1109,-2.0974 5.51194,-4.66022 z m -173.89482,-1.14152 5.21127,-4.99006 -4.83048,-5.95111 c -6.37087,-7.84818 -11.4779,-15.99771 -11.4779,-18.3153 0,-1.02582 1.30777,-3.40644 2.90588,-5.29055 3.21429,-3.78982 2.66379,-4.99956 -2.28731,-5.02461 -3.54598,-0.0181 -5.96854,-1.43337 -7.04456,-4.11276 -1.19492,-2.97814 -3.16175,-12.1604 -3.93624,-18.37919 l -0.61426,-4.92444 h -7.75272 -7.75273 l 0.56171,7.50365 c 1.07086,14.29149 7.23409,32.16296 15.81387,45.85691 4.69781,7.49847 13.22502,18.01999 14.89636,18.38093 0.60219,0.13039 3.44,-2.00932 6.30711,-4.75347 z m 239.09385,-2.54813 c -0.2464,-3.64217 -0.48762,-4.04627 -2.30885,-3.86321 -1.94701,0.19515 -2.03402,-0.0691 -2.03402,-6.20844 0,-5.12908 -0.27138,-6.41307 -1.35602,-6.41307 -2.05212,0 -1.9496,11.58879 0.11371,12.68282 0.83307,0.44209 1.46284,1.8487 1.45509,3.25359 -0.0155,2.80631 1.20439,4.61618 3.11091,4.61618 0.9804,0 1.22765,-0.98697 1.01917,-4.06787 z m -8.02324,2.85726 c 1.50075,-1.71315 0.479,-3.0714 -2.31057,-3.0714 -1.83329,0 -2.21407,0.3687 -1.98061,1.91865 0.34632,2.29945 2.72668,2.93929 4.29118,1.15275 z m -283.14196,-0.58544 c 4.42557,-1.21406 7.53218,-5.28537 7.53218,-9.87304 0,-2.1069 -0.61771,-4.96071 -1.37153,-6.34228 -3.71225,-6.8025 -15.97496,-6.68507 -20.00252,0.19084 -2.05642,3.51177 -1.52315,9.64335 1.09497,12.59128 1.88154,2.11898 7.3797,4.61962 9.43267,4.29063 0.24812,-0.0397 1.74025,-0.42569 3.31423,-0.85743 z m 270.03409,-3.9133 c 0.6806,-1.6812 -0.70213,-3.29849 -2.11328,-2.47214 -1.42494,0.83412 -1.20784,3.89948 0.27568,3.89948 0.69266,0 1.5197,-0.64244 1.8376,-1.42734 z m 8.05081,-2.56885 c 0.33168,-0.31345 0.60305,-3.97461 0.60305,-8.13486 0,-6.869 -0.15851,-7.56496 -1.72302,-7.56496 -1.58086,0 -1.70234,0.6148 -1.48007,7.49329 0.13354,4.1214 0.29894,7.78169 0.367,8.13572 0.15421,0.79527 1.4258,0.83672 2.23304,0.0708 z M 488.7866,422.86926 c 4.82187,-2.53173 5.93408,-8.32483 2.36916,-12.33915 -2.69912,-3.03859 -6.21925,-3.84076 -10.10552,-2.30291 -5.75918,2.28047 -6.92136,9.44217 -2.1822,13.45305 3.07732,2.60598 6.45098,3.01009 9.91856,1.18901 z m -9.32671,-5.04014 c -1.87636,-5.0505 3.4159,-9.15032 8.07752,-6.25593 3.27201,2.03091 3.1807,6.83791 -0.16197,8.49753 -3.27718,1.6268 -6.85416,0.61393 -7.91555,-2.2416 z m 5.81089,-1.89966 c 0,-0.70633 -0.40664,-1.28486 -0.90372,-1.28486 -0.4971,0 -0.90372,0.57853 -0.90372,1.28486 0,0.70633 0.40662,1.284 0.90372,1.284 0.49708,0 0.90372,-0.57767 0.90372,-1.284 z m 182.77612,3.96855 c 10.45355,-0.721 10.90757,-1.18037 11.38485,-11.5102 0.46521,-10.06906 -0.15594,-10.87037 -8.42988,-10.87037 -3.1669,0 -5.947,-0.29099 -6.1796,-0.64587 -0.51691,-0.79268 6.33036,-28.02947 7.6209,-30.31511 0.51002,-0.90234 2.13397,-1.8703 3.60887,-2.14921 1.47491,-0.27977 2.90156,-0.84622 3.17122,-1.25982 0.98298,-1.50591 -2.28903,-1.69761 -5.36549,-0.3143 -2.59745,1.16742 -3.52443,1.23218 -5.23883,0.36265 -4.09475,-2.0758 -8.12317,-2.44019 -11.75616,-1.06294 -3.07989,1.16743 -3.86128,1.17347 -6.86451,0.0579 -5.73334,-2.13021 -8.11542,0.0743 -2.48803,2.30204 1.73938,0.68819 3.56923,2.13798 4.06631,3.22252 0.87961,1.91606 7.2341,27.39135 7.2341,28.99916 0,0.4421 -2.85677,0.80303 -6.34932,0.80303 -5.98405,0 -6.40015,0.12693 -7.23066,2.1967 -0.99934,2.49115 -1.16906,10.78401 -0.3041,14.88124 1.09584,5.19125 6.56126,6.44503 23.12033,5.30263 z m -9.8953,-39.39892 c -1.70407,-7.19366 -2.88433,-13.60933 -2.62243,-14.25607 0.26276,-0.64676 2.20459,-1.61731 4.31615,-2.15613 3.16863,-0.80821 4.36269,-0.74345 6.82575,0.36958 1.64203,0.74173 2.98943,1.83662 2.99374,2.43329 0.0206,3.0265 -6.70341,27.22902 -7.49599,26.97861 -0.50571,-0.15974 -2.31315,-6.17562 -4.01722,-13.36928 z m -154.24379,26.51579 c 10.08225,-5.82418 1.213,-20.40925 -9.18455,-15.10402 -5.78848,2.95311 -6.64137,9.29797 -1.85999,13.82779 3.56492,3.37708 6.76714,3.74751 11.04454,1.27623 z m -7.27028,-5.14376 c -2.2494,-2.35471 -0.46952,-5.41922 2.93,-5.04705 2.90845,0.31862 3.72516,3.19315 1.5042,5.29659 -1.88585,1.78741 -2.52251,1.75114 -4.4342,-0.24954 z M 780.22662,363.498 c 0.76761,-1.17778 -1.13547,-14.8467 -3.13331,-22.49886 -3.832,-14.67832 -10.64912,-28.16504 -20.45309,-40.46275 -3.28494,-4.12139 -6.62415,-7.49243 -7.42019,-7.49243 -1.42235,0 -9.96594,7.57706 -9.96594,8.83774 0,0.35403 1.96252,3.07054 4.36183,6.03573 5.87032,7.2567 11.0032,15.37947 11.0032,17.41296 0,0.91357 -1.2087,3.17589 -2.68619,5.02547 -1.4775,1.85044 -2.69826,3.62922 -2.71204,3.95388 -0.0137,0.32468 1.90739,0.85571 4.26878,1.17952 2.3614,0.32467 4.95799,0.91702 5.77212,1.31507 1.67132,0.81946 4.09647,9.3092 5.69544,19.93693 l 1.04587,6.95103 6.88605,0.24868 c 3.78719,0.13643 7.08936,-0.0622 7.33747,-0.44297 z m 57.81762,-9.39553 c 1.34913,-0.33158 1.58001,-1.15534 1.35601,-4.82514 l -0.27051,-4.42447 h -3.61576 -3.61574 l -0.2688,4.38475 c -0.24295,3.95475 -0.0647,4.43743 1.80744,4.91234 1.14237,0.29014 2.28043,0.48787 2.5294,0.43952 0.24811,-0.0484 1.18371,-0.26769 2.07796,-0.487 z m -20.33851,-4.32605 c 0.55395,-1.76582 1.17423,-5.71624 1.37928,-8.77728 0.20503,-3.06191 0.199,-4.10327 -0.0137,-2.31413 -0.29464,2.47991 -0.90975,3.4401 -2.59228,4.04626 -1.72302,0.62085 -2.20287,1.40835 -2.1934,3.599 0.0155,3.41852 0.87099,6.65744 1.75834,6.65744 0.36011,0 1.10791,-1.44461 1.66185,-3.21129 z m -109.47631,0.0354 c 3.45551,-0.41965 5.77125,-2.52396 3.63298,-3.30109 -2.30023,-0.83585 -9.2147,0.82289 -9.2147,2.21051 0,1.3712 1.25522,1.61644 5.58172,1.09058 z m -86.89701,-0.29791 c 1.03209,-1.58189 -0.75297,-2.48423 -5.38961,-2.72256 -4.38335,-0.22623 -6.85243,1.32114 -3.50462,2.19584 4.55567,1.18902 8.31701,1.41266 8.89423,0.52672 z m 218.13246,-15.66096 c 0.73401,-0.83757 1.00021,-4.23969 0.82618,-10.53274 l -0.25759,-9.29625 h -4.51948 -4.51947 v 10.2763 10.27629 l 3.69416,0.25645 c 2.39498,0.1658 4.07407,-0.17787 4.7762,-0.98005 z m -135.67911,-2.72256 c 4.43159,-2.8279 6.19424,-5.54527 3.59507,-5.54527 -1.88326,0 -10.74474,6.03401 -10.38119,7.06845 0.63752,1.81246 2.05815,1.49383 6.78612,-1.52318 z m -77.52982,1.51887 c -0.0206,-1.87979 -8.69178,-7.36809 -10.56556,-6.68681 -1.85569,0.67525 -0.46866,2.19584 5.08118,5.56946 4.99245,3.036 5.50592,3.14049 5.48438,1.11735 z m -102.4464,-9.20557 c 1.16563,-2.87627 -0.34891,-3.85372 -5.97198,-3.85372 h -5.45077 v 2.56971 2.56887 h 5.45077 c 4.01205,0 5.58947,-0.33935 5.97198,-1.28486 z m 278.51393,-13.02304 -0.25241,-11.81069 -6.55264,-0.25214 -6.55265,-0.25127 -0.16196,9.88514 c -0.0878,5.43733 -0.19039,10.75293 -0.22571,11.81242 -0.0603,1.81763 0.3334,1.94111 6.96616,2.1777 l 7.03078,0.2504 z m -114.24993,5.83283 c 3.4874,-6.28702 4.04307,-8.65209 2.0323,-8.65209 -1.34051,0 -7.79494,10.91699 -7.79494,13.1845 0,3.12063 2.69395,1.00251 5.76264,-4.53241 z m -46.43621,5.06345 c 0,-1.87289 -6.80421,-13.71554 -7.88109,-13.71554 -0.63666,0 -1.15701,0.58803 -1.15701,1.30558 0,2.37716 6.314,13.25271 7.69414,13.25271 0.73917,0 1.34396,-0.37906 1.34396,-0.84275 z m 21.09749,-4.01778 c 0.32739,-0.30999 0.59531,-3.9677 0.59531,-8.12795 0,-5.89499 -0.27827,-7.5641 -1.25953,-7.5641 -1.81692,0 -2.35622,1.9506 -2.35622,8.5286 0,3.8235 0.41611,6.14627 1.213,6.77315 0.66767,0.525 1.48094,0.70029 1.80744,0.3903 z m -128.8818,-0.89111 5.64891,-0.32467 v -6.38199 -6.38199 h -21.2405 -21.24052 v 4.68006 c 0,3.67412 0.35925,4.86141 1.6696,5.52628 1.12427,0.5699 1.9832,0.54832 2.63277,-0.0665 1.14237,-1.08194 2.92827,-0.24004 2.92827,1.37985 0,0.6286 0.5195,1.33148 1.15443,1.56203 1.32845,0.48269 20.08264,0.48701 28.44704,0.007 z m 284.0362,-10.84274 c 0,-0.17788 -0.56255,-0.76591 -1.2509,-1.30645 -0.96404,-0.75813 -1.37066,-0.68388 -1.77902,0.32381 -0.36356,0.89801 0.0267,1.30644 1.25004,1.30644 0.97868,0 1.77988,-0.14592 1.77988,-0.3238 z m -80.41242,-15.5513 4.94076,-4.74224 -3.61576,-2.94103 c -9.68767,-7.88099 -24.5513,-15.95454 -36.88811,-20.03794 -9.61445,-3.18194 -24.06627,-6.072 -30.36476,-6.072 h -4.6039 v 6.79819 6.79818 l 4.29376,0.48356 c 5.66012,0.63724 19.92241,3.51609 22.98593,4.63948 2.01765,0.74 2.52077,1.57672 3.00495,5.00042 0.93818,6.62982 0.98297,6.66694 4.74088,3.89862 1.86345,-1.3738 3.89661,-2.77695 4.51776,-3.11976 1.52573,-0.8393 10.16064,3.62318 18.10117,9.35497 3.56752,2.5749 6.81454,4.6818 7.21686,4.6818 0.40147,0 2.95326,-2.13367 5.67046,-4.74225 z m -191.24906,-6.23175 c 1.43786,-4.29237 0.52897,-4.44003 -27.23231,-4.44003 -25.71176,0 -29.20517,0.36181 -29.20517,3.02737 0,1.42906 1.42321,1.68033 2.25974,0.39807 0.35063,-0.53881 10.11153,-0.85658 26.29413,-0.85658 H 544.08 l 0.74607,1.91262 0.74692,1.91261 z m 280.20938,-2.08531 c 0.19557,-0.58889 0.56516,-2.22691 0.82016,-3.63957 0.25587,-1.41266 0.73315,-3.59295 1.06052,-4.84499 0.63494,-2.42381 -0.94508,-3.35982 -4.36441,-2.58355 -1.51454,0.34367 -1.52142,0.46801 -0.10858,1.94715 1.13977,1.19333 1.40253,2.63621 1.07344,5.88549 -0.24036,2.36853 -0.0767,4.30619 0.36269,4.30619 0.43937,0 0.95972,-0.48183 1.15615,-1.07072 z m -39.321,-0.71583 c -0.55482,-0.98178 -1.22938,-1.57672 -1.49903,-1.32112 -0.74521,0.70546 0.44884,3.10767 1.54382,3.10767 0.66854,0 0.65474,-0.54831 -0.0448,-1.78655 z m 23.51058,-6.91994 1.8936,-2.42638 h -6.35449 c -3.49429,0 -6.34071,0.28927 -6.32348,0.64244 0.0163,0.35315 0.73831,1.4446 1.60412,2.42637 2.37519,2.69148 6.82144,2.37976 9.18025,-0.64243 z m -24.37296,1.53959 c 0,-0.76072 0.81412,-1.86339 1.80831,-2.45229 2.67413,-1.58189 2.19771,-2.51445 -1.1303,-2.21051 -3.33921,0.30567 -4.49105,3.04636 -2.0771,4.9443 1.16475,0.91616 1.39909,0.86866 1.39909,-0.2815 z m -42.02873,-19.37997 c 0.30669,-0.47146 2.39155,-0.85657 4.63233,-0.85657 4.98641,0 7.37969,-1.12858 8.54359,-4.02901 1.39995,-3.48933 -0.45316,-7.53042 -4.2326,-9.22976 -3.11177,-1.39883 -3.23411,-1.38243 -6.28471,0.82203 -2.874,2.07669 -3.11091,2.60254 -3.11091,6.9139 0,2.56713 -0.40663,4.66625 -0.90372,4.66625 -0.4971,0 -0.90373,0.57854 -0.90373,1.28487 0,1.4541 1.41546,1.72264 2.25975,0.42829 z m 2.78784,-4.2017 c -4.15334,-4.3485 1.21731,-11.41868 6.2847,-8.27303 2.94207,1.82627 3.71656,5.07556 1.85225,7.77047 -1.80744,2.61463 -5.8798,2.8659 -8.13695,0.50256 z M 596.2642,251.76778 c 1.97545,-1.87204 1.13634,-2.3979 -3.8225,-2.3979 -6.0995,0 -7.89144,-1.42819 -7.60283,-6.06164 0.11371,-1.82107 -0.0758,-3.57913 -0.42041,-3.90553 -1.1639,-1.10265 -1.88326,0.57422 -1.67564,3.90553 0.2886,4.63345 -1.50248,6.06164 -7.60282,6.06164 -4.95886,0 -5.79796,0.52586 -3.82252,2.3979 1.50333,1.42387 23.44425,1.42387 24.94672,0 z m 34.90492,-9.46291 c 0.83653,-2.9436 1.94701,-6.16871 2.46822,-7.16603 1.71527,-3.28382 0.65907,-5.00905 -3.25305,-5.31213 -1.96424,-0.15284 -4.08528,-0.91961 -4.7383,-1.71315 -1.1036,-1.34185 -1.26298,-1.33753 -2.41137,0.0614 -1.40684,1.71487 -4.24465,1.96442 -5.78245,0.50772 -0.74693,-0.70805 -1.37928,-0.72964 -2.21408,-0.076 -0.64268,0.5034 -2.3881,1.04567 -3.87938,1.20541 -2.32176,0.24782 -2.75252,0.68992 -2.9946,3.07313 -0.15594,1.53095 0.0982,2.783 0.56429,2.783 0.46693,0 1.10789,1.23132 1.42579,2.73637 0.3179,1.50505 0.99419,4.20256 1.5042,5.9943 l 0.92526,3.25791 h 8.43332 8.43245 z m 105.67447,-7.20747 c 0.33082,-0.31431 0.6022,-4.36058 0.6022,-8.99143 V 217.6853 H 720.3698 c -14.73783,0 -17.15178,0.18564 -17.62562,1.35394 -0.30152,0.74517 -0.54877,4.18183 -0.54877,7.63749 0,3.45565 0.24725,6.89231 0.54877,7.63663 0.47297,1.16656 2.83438,1.3548 17.02257,1.3548 9.06049,0 16.74516,-0.25645 17.07684,-0.57076 z M 584.695,234.81159 c 0,-0.4706 -0.40664,-0.85572 -0.90372,-0.85572 -0.4971,0 -0.90459,0.38512 -0.90459,0.85572 0,0.47146 0.40749,0.85657 0.90459,0.85657 0.49708,0 0.90372,-0.38511 0.90372,-0.85657 z m -8.4988,-1.31595 c -0.2886,-1.86426 -1.1725,-2.33745 -2.77577,-1.48777 -1.26643,0.67178 -1.16391,0.90924 0.74693,1.73473 1.78935,0.77195 2.17961,0.72446 2.02884,-0.24696 z m 118.76856,-4.14471 c 0,-1.11994 -0.60995,-2.51619 -1.35602,-3.10248 -0.74521,-0.58631 -1.35515,-1.54305 -1.35515,-2.1259 0,-0.58372 -1.01745,-2.47992 -2.25974,-4.21552 -4.2102,-5.87685 -5.18629,-5.64716 23.99734,-5.64716 h 26.25622 l -0.2705,-4.92443 c -0.26966,-4.89163 -0.2912,-4.92531 -3.27375,-5.19644 -2.81368,-0.25645 -2.93774,-0.15802 -1.97113,1.5534 2.20288,3.89948 0.45401,4.28546 -19.43048,4.28546 -19.50199,0 -20.80201,-0.27027 -19.74149,-4.11189 0.44713,-1.62162 0.15335,-1.8824 -2.11673,-1.8824 -1.44992,0 -3.14451,0.48182 -3.76565,1.07073 -1.08379,1.02667 -2.43119,1.25808 -8.98038,1.54131 -4.06891,0.17528 -3.74326,1.2201 3.75619,12.05161 1.42752,2.06112 3.53649,4.71115 4.68747,5.88893 1.15184,1.17693 2.51646,3.20007 3.03251,4.49529 1.15356,2.89352 2.79129,3.08004 2.79129,0.31949 z m -119.09334,0.57336 c -1.12427,-0.20465 -2.7508,-0.19689 -3.6149,0.0172 -0.86409,0.21502 0.056,0.38253 2.0435,0.37303 1.98923,-0.01 2.69567,-0.18564 1.5714,-0.39029 z m 41.25854,-9.91882 c 0.0827,-2.60599 0.81586,-3.88739 3.71914,-6.50374 4.58927,-4.13694 4.88735,-7.58914 0.97351,-11.29693 -5.35945,-5.07813 -13.5326,-1.87548 -13.59893,5.32854 -0.0276,3.07141 1.30691,4.90199 5.73765,7.86891 0.93475,0.62602 2.00646,2.6483 2.38207,4.49356 l 0.68232,3.35549 z m 136.17621,-10.31169 c 0.91665,-3.4617 0.15335,-6.1385 -1.75231,-6.1385 -2.55006,0 -3.81821,2.43761 -2.75596,5.29832 1.16906,3.14999 3.76823,3.63354 4.50827,0.84018 z"
     id="path837" />
  <path
     inkscape:connector-curvature="0"
     style="fill:#ffff00;fill-opacity:1;stroke-width:0.8797794"
     d="m 696.39314,508.41437 c 0,-9.41973 -0.13181,-13.39002 -0.29378,-8.82307 -0.16196,4.56697 -0.16282,12.27439 0,17.12717 0.1611,4.85276 0.29378,1.11561 0.29465,-8.3041 z m -76.02476,11.30987 c 0.38767,-0.84449 0.45057,-1.77531 0.14043,-2.06976 -0.91838,-0.86953 -1.65754,0.35229 -1.23541,2.03954 0.37476,1.49641 0.423,1.49728 1.09498,0.0302 z m 124.14093,-8.93357 c 1.54037,-7.67031 2.07881,-12.82702 1.18715,-11.36773 -0.96402,1.57844 -3.22893,15.31988 -2.61985,15.89668 0.24209,0.22882 0.8865,-1.80899 1.4327,-4.52895 z m -120.26242,0.63293 c 1.44734,-2.1967 1.41288,-2.58095 -0.23432,-2.58095 -0.74608,0 -1.35603,0.35403 -1.35603,0.78663 0,0.43261 -0.24639,1.39539 -0.54877,2.14058 -0.78311,1.93419 0.80551,1.67687 2.13912,-0.34626 z m 190.47888,-47.96726 c 0.30669,-0.4706 -0.1,-0.85657 -0.90459,-0.85657 -0.80379,0 -1.21042,0.38597 -0.90373,0.85657 0.30757,0.47146 0.7142,0.85657 0.90373,0.85657 0.1904,0 0.59702,-0.38511 0.90459,-0.85657 z m 9.94181,-14.67573 c 0.88305,-2.18116 0.069,-22.15261 -0.90372,-22.15261 -1.22076,0 -1.70493,21.42556 -0.50915,22.55845 0.60047,0.56903 1.07258,0.43347 1.41287,-0.40584 z m -32.53921,0 c 0.88391,-2.18116 0.069,-22.15261 -0.90286,-22.15261 -1.22162,0 -1.70578,21.42556 -0.51001,22.55845 0.60047,0.56903 1.07343,0.43347 1.41287,-0.40584 z m -7.44602,-1.24687 c 0.367,-0.34884 0.66767,-4.78196 0.66767,-9.85232 0,-8.4673 -0.14732,-9.26429 -1.80744,-9.76339 -2.44928,-0.73654 -2.43636,-6.47955 0.0292,-12.72167 2.0814,-5.26983 8.42986,-11.52315 14.11324,-13.90032 4.64526,-1.94284 14.97476,-1.94284 19.62002,0 5.68338,2.37717 12.03184,8.63049 14.11324,13.90032 2.46478,6.24212 2.4777,11.98513 0.0292,12.72167 -1.66185,0.49997 -1.80745,1.29609 -1.80745,9.90586 0,7.68585 0.23864,9.36187 1.33534,9.36187 3.15744,0 6.22527,-7.78774 4.88304,-12.39441 -0.57549,-1.97392 -0.55912,-4.70339 0.0482,-7.93799 3.2746,-17.45527 -11.68724,-33.01607 -30.48882,-31.70703 -17.27326,1.20283 -29.40591,15.74644 -26.36994,31.61118 0.63579,3.32009 0.66594,6.04006 0.0905,8.01657 -0.55998,1.92297 -0.55998,4.06268 0,5.98824 0.98988,3.39607 4.53499,7.72643 5.54382,6.77142 z m -33.22239,-4.06786 c 0.4945,-0.63293 3.36592,-4.23106 6.38034,-7.99411 5.59637,-6.98815 12.27565,-18.38698 15.71651,-26.82146 3.00495,-7.3655 6.32349,-21.14666 6.96014,-28.90158 l 0.58066,-7.06501 h -7.77512 -7.77513 l -0.49882,3.21129 c -1.38099,8.8999 -3.33662,18.31617 -4.41695,21.27273 -1.29657,3.54891 -2.95153,4.39426 -8.89681,4.54623 -1.83502,0.0474 -3.55631,0.42396 -3.82596,0.83758 -0.26965,0.41273 0.96402,2.55676 2.74218,4.7621 2.39586,2.97296 3.09282,4.53846 2.69308,6.04868 -0.65303,2.46437 -10.43719,16.47955 -13.09494,18.75914 -1.04501,0.89542 -1.89963,1.97737 -1.89963,2.40307 0,1.39797 9.26639,10.09236 10.75595,10.09236 0.80034,0 1.85999,-0.51809 2.3545,-1.15102 z m -171.03374,-3.79414 5.21127,-4.99006 -4.83048,-5.95111 c -6.37087,-7.84818 -11.4779,-15.99771 -11.4779,-18.3153 0,-1.02582 1.30777,-3.40644 2.90588,-5.29055 3.21429,-3.78982 2.66379,-4.99956 -2.28731,-5.02461 -3.54598,-0.0181 -5.96854,-1.43337 -7.04456,-4.11276 -1.19492,-2.97814 -3.16175,-12.1604 -3.93624,-18.37919 l -0.61426,-4.92444 h -7.75272 -7.75273 l 0.56171,7.50365 c 1.07086,14.29149 7.23409,32.16296 15.81387,45.85691 4.69781,7.49847 13.22502,18.01999 14.89636,18.38093 0.60219,0.13039 3.44,-2.00932 6.30711,-4.75347 z m -52.02742,-1.6501 c 3.50031,-0.64158 6.58366,-5.03497 6.58366,-9.37914 0,-7.89136 -8.90629,-11.6501 -16.36093,-6.9044 -2.65775,1.69156 -3.10833,2.49373 -3.34524,5.95543 -0.29463,4.29668 1.67823,8.36022 4.05771,8.36022 0.72367,0 1.92634,0.57767 2.67241,1.28401 1.34223,1.27191 2.50785,1.39625 6.39239,0.68388 z m -38.11318,-17.07967 c 6.04091,-6.17562 -1.48264,-15.80775 -9.34048,-11.95836 -1.45767,0.71411 -3.13762,2.41343 -3.73378,3.77601 -3.31165,7.57619 7.21945,14.16714 13.07426,8.18235 z m -10.66376,-1.32803 c -2.2158,-2.42897 -1.96855,-5.53664 0.63666,-8.00534 2.46995,-2.34004 3.86732,-2.55936 7.18413,-1.1277 4.75381,2.05162 4.52723,8.42498 -0.38166,10.76502 -2.69566,1.28485 -5.29828,0.71323 -7.43913,-1.63198 z m 188.42504,0.28407 c 10.15805,-0.70027 10.81022,-1.2909 11.35986,-10.29097 0.23002,-3.76218 0.15593,-7.82831 -0.16369,-9.03633 -0.55568,-2.09652 -0.87013,-2.1967 -6.92394,-2.1967 -4.34201,0 -7.0506,-0.44037 -8.59185,-1.39711 -2.08226,-1.29263 -2.37431,-1.29263 -3.88109,0 -1.18285,1.01459 -3.37798,1.39711 -8.00601,1.39711 -5.84878,0 -6.42169,0.15975 -6.92137,1.9273 -0.72108,2.54986 -0.71678,10.86259 0.008,14.29407 1.09584,5.19125 6.56212,6.44503 23.1212,5.30263 z m -12.75379,-54.30606 c 1.42924,-1.86857 1.39823,-1.89966 -1.90565,-1.89966 -3.30304,0 -3.33491,0.031 -1.90567,1.89966 0.79948,1.04481 1.65755,1.89966 1.90567,1.89966 0.24896,0 1.10617,-0.85485 1.90565,-1.89966 z m 16.62369,0.24091 c 0.30669,-0.4706 -0.0749,-0.85658 -0.85032,-0.85658 -0.77535,0 -1.40943,0.38598 -1.40943,0.85658 0,0.47146 0.38251,0.85657 0.85031,0.85657 0.46781,0 1.10187,-0.38511 1.40944,-0.85657 z M 780.22662,363.498 c 0.76761,-1.17778 -1.13547,-14.8467 -3.13331,-22.49886 -3.832,-14.67832 -10.64912,-28.16504 -20.45309,-40.46275 -3.28494,-4.12139 -6.62415,-7.49243 -7.42019,-7.49243 -1.42235,0 -9.96594,7.57706 -9.96594,8.83774 0,0.35403 1.96252,3.07054 4.36183,6.03573 5.87032,7.2567 11.0032,15.37947 11.0032,17.41296 0,0.91357 -1.2087,3.17589 -2.68619,5.02547 -1.4775,1.85044 -2.69826,3.62922 -2.71204,3.95388 -0.0137,0.32468 1.90739,0.85571 4.26878,1.17952 2.3614,0.32467 4.95799,0.91702 5.77212,1.31507 1.67132,0.81946 4.09647,9.3092 5.69544,19.93693 l 1.04587,6.95103 6.88605,0.24868 c 3.78719,0.13643 7.08936,-0.0622 7.33747,-0.44297 z m -71.9972,-13.68617 c 3.45551,-0.41965 5.77125,-2.52396 3.63298,-3.30109 -2.30023,-0.83585 -9.2147,0.82289 -9.2147,2.2105 0,1.37121 1.25522,1.61645 5.58172,1.09059 z m -86.89701,-0.29791 c 1.03209,-1.58189 -0.75297,-2.48424 -5.38961,-2.72256 -4.38335,-0.22623 -6.85243,1.32113 -3.50462,2.19584 4.55567,1.18902 8.31701,1.41266 8.89423,0.52672 z m 196.91176,-1.30644 c 1.21214,-2.99197 0.60478,-4.63949 -1.71096,-4.63949 -1.97974,0 -2.25973,0.3713 -2.25973,2.99714 0,2.37026 0.35838,2.99715 1.71096,2.99715 0.94076,0 1.9582,-0.60962 2.25973,-1.3548 z M 703.78576,331.1304 c 4.43159,-2.8279 6.19424,-5.54527 3.59507,-5.54527 -1.88326,0 -10.74474,6.03401 -10.38119,7.06845 0.63752,1.81246 2.05815,1.49383 6.78612,-1.52318 z m -77.52982,1.51887 c -0.0206,-1.87979 -8.69178,-7.36809 -10.56556,-6.68681 -1.85569,0.67438 -0.46866,2.19584 5.08118,5.56946 4.99245,3.036 5.50592,3.14049 5.48438,1.11735 z m -102.4464,-9.20557 c 1.16563,-2.87627 -0.34891,-3.85372 -5.97198,-3.85372 h -5.45077 v 2.56971 2.56887 h 5.45077 c 4.01205,0 5.58947,-0.33935 5.97198,-1.28486 z m 278.51393,-13.02304 -0.25241,-11.81069 -6.55264,-0.25214 -6.55265,-0.25127 -0.16196,9.88514 c -0.0878,5.43733 -0.19039,10.75293 -0.22571,11.81242 -0.0603,1.81763 0.3334,1.94111 6.96616,2.1777 l 7.03078,0.2504 z m -114.24993,5.83283 c 3.4874,-6.28702 4.04307,-8.65209 2.0323,-8.65209 -1.34051,0 -7.79494,10.91699 -7.79494,13.1845 0,3.12063 2.69395,1.0025 5.76264,-4.53241 z m -46.43621,5.06345 c 0,-1.87289 -6.80421,-13.71554 -7.88109,-13.71554 -0.63666,0 -1.15701,0.58803 -1.15701,1.30558 0,2.37716 6.314,13.25271 7.69414,13.25271 0.73917,0 1.34396,-0.37906 1.34396,-0.84275 z m 21.09749,-4.01778 c 0.32739,-0.31 0.59531,-3.9677 0.59531,-8.12795 0,-5.89499 -0.27827,-7.5641 -1.25953,-7.5641 -1.81692,0 -2.35622,1.9506 -2.35622,8.5286 0,3.8235 0.41611,6.14627 1.213,6.77315 0.66767,0.525 1.48094,0.70029 1.80744,0.3903 z m -128.8818,-0.89111 5.64891,-0.32467 v -6.38199 -6.38199 h -21.2405 -21.24052 v 4.68006 c 0,3.67412 0.35925,4.86141 1.6696,5.52628 1.12427,0.5699 1.9832,0.54832 2.63277,-0.0665 1.14237,-1.08194 2.92827,-0.24005 2.92827,1.37985 0,0.6286 0.5195,1.33148 1.15443,1.56203 1.32845,0.48269 20.08264,0.487 28.44704,0.007 z m 282.68019,-12.23208 c -0.30755,-0.4706 -0.73832,-0.85657 -0.95714,-0.85657 -0.21968,0 -0.39887,0.38597 -0.39887,0.85657 0,0.47146 0.43075,0.85657 0.95713,0.85657 0.52639,0 0.70644,-0.38511 0.39888,-0.85657 z M 546.22774,283.78226 c 1.43786,-4.29237 0.52897,-4.44003 -27.23231,-4.44003 -25.71176,0 -29.20517,0.3618 -29.20517,3.02737 0,1.42906 1.42321,1.68033 2.25974,0.39806 0.35063,-0.5388 10.11153,-0.85657 26.29413,-0.85657 H 544.08 l 0.74607,1.91262 0.74692,1.91261 z m 280.20938,-2.08531 c 0.19557,-0.58889 0.56516,-2.22692 0.82016,-3.63957 0.25587,-1.41266 0.73315,-3.59296 1.06052,-4.845 0.63494,-2.4238 -0.94508,-3.35981 -4.36441,-2.58354 -1.51454,0.34367 -1.52142,0.46801 -0.10858,1.94715 1.13977,1.19333 1.40253,2.63621 1.07344,5.88549 -0.24036,2.36853 -0.0767,4.30618 0.36269,4.30618 0.43937,0 0.95972,-0.48182 1.15615,-1.07071 z m -39.321,-0.71583 c -0.55482,-0.98178 -1.22938,-1.57672 -1.49903,-1.32112 -0.74521,0.70546 0.44884,3.10766 1.54382,3.10766 0.66854,0 0.65474,-0.5483 -0.0448,-1.78654 z m 23.51058,-6.91994 1.8936,-2.42639 h -6.35449 c -3.49429,0 -6.34071,0.28928 -6.32348,0.64245 0.0163,0.35315 0.73831,1.4446 1.60412,2.42637 2.37519,2.69148 6.82144,2.37976 9.18025,-0.64243 z m -24.37296,1.53959 c 0,-0.76072 0.81412,-1.86339 1.80831,-2.45229 2.67413,-1.58189 2.19771,-2.51445 -1.1303,-2.21051 -3.33921,0.30567 -4.49105,3.04636 -2.0771,4.9443 1.16475,0.91615 1.39909,0.86866 1.39909,-0.2815 z M 755.3221,254.03101 c 1.10446,-0.73311 2.00905,-1.69675 2.00905,-2.14058 0,-0.44469 -0.81413,-0.0371 -1.80831,0.90493 -2.63277,2.4946 -7.52873,2.28392 -9.77469,-0.42137 l -1.77212,-2.13453 -0.39716,2.56281 -0.39629,2.56196 h 5.06481 c 3.12211,0 5.83672,-0.51119 7.07471,-1.33322 z m 2.84126,-5.16103 c -0.0431,-0.99732 -0.25759,-1.20024 -0.54619,-0.51723 -0.26104,0.61825 -0.22916,1.35739 0.0715,1.64148 0.30066,0.28494 0.51432,-0.22106 0.47468,-1.12425 z m -0.84686,-2.56887 c -0.019,-1.08193 -1.01572,-2.27095 -3.14967,-3.75614 -1.34568,-0.93687 -1.23024,-0.60961 0.45229,1.28487 1.24315,1.39884 2.36139,2.70355 2.48545,2.89956 0.12406,0.19602 0.21968,0.004 0.21193,-0.42829 z m -11.37967,-1.93938 1.71181,-2.27095 -2.11328,1.90311 c -1.16304,1.04655 -1.93322,2.06891 -1.71182,2.27096 0.22054,0.20292 1.17166,-0.65365 2.11329,-1.90312 z m -114.73842,-1.96787 c 2.49062,-7.94575 2.96532,-7.58222 -9.89788,-7.58222 -12.77963,0 -12.19638,-0.41966 -10.09344,7.27914 l 1.16907,4.282 8.71158,0.24438 8.71073,0.24435 z M 584.695,234.81164 c 0,-0.4706 -0.40664,-0.85572 -0.90372,-0.85572 -0.4971,0 -0.90459,0.38512 -0.90459,0.85572 0,0.47146 0.40749,0.85657 0.90459,0.85657 0.49708,0 0.90372,-0.38511 0.90372,-0.85657 z m 109.80885,-5.1239 c 0.66681,-1.0215 -0.1792,-2.58267 -1.39996,-2.58267 -1.10015,0 -1.10703,2.31758 -0.008,2.96 0.46262,0.27114 1.0967,0.10188 1.40943,-0.37733 z m -77.37389,-9.68222 c 0.0827,-2.60599 0.81586,-3.88739 3.71914,-6.50374 4.58927,-4.13694 4.88735,-7.58914 0.97351,-11.29693 -5.35945,-5.07813 -13.5326,-1.87548 -13.59893,5.32854 -0.0276,3.07141 1.30691,4.90199 5.73765,7.86891 0.93475,0.62602 2.00646,2.6483 2.38207,4.49356 l 0.68232,3.35549 z m 96.63465,-5.53146 26.48194,-0.24005 -0.27051,-4.91148 c -0.26879,-4.87695 -0.29119,-4.91235 -3.27288,-5.18348 -2.81368,-0.25645 -2.93774,-0.15802 -1.97113,1.5534 2.20288,3.89948 0.45401,4.28546 -19.43048,4.28546 -19.50199,0 -20.80201,-0.27027 -19.74149,-4.11189 0.37131,-1.34445 0.11717,-1.8824 -0.88822,-1.8824 -0.77449,0 -1.67649,0.41189 -2.00473,0.91443 -0.32824,0.50341 -1.12599,0.72273 -1.77299,0.48701 -0.64613,-0.23488 -1.44647,-0.17011 -1.77815,0.14333 -0.33168,0.31431 -1.78247,0.62775 -3.22463,0.69597 -3.36678,0.1606 -5.38788,0.90493 -5.38788,1.98428 0,1.09834 5.42406,6.97174 6.19426,6.70665 0.32133,-0.11049 12.50136,-0.30911 27.06689,-0.44123 z"
     id="path835" />
</svg>
