<?xml version="1.0" encoding="UTF-8" standalone="no"?>
<svg
   xmlns:dc="http://purl.org/dc/elements/1.1/"
   xmlns:cc="http://creativecommons.org/ns#"
   xmlns:rdf="http://www.w3.org/1999/02/22-rdf-syntax-ns#"
   xmlns:svg="http://www.w3.org/2000/svg"
   xmlns="http://www.w3.org/2000/svg"
   xmlns:sodipodi="http://sodipodi.sourceforge.net/DTD/sodipodi-0.dtd"
   xmlns:inkscape="http://www.inkscape.org/namespaces/inkscape"
   id="fb414a8b-d0ff-4841-818a-532ec941ba8d"
   data-name="Layer 1"
   width="583.9043"
   height="652"
   viewBox="0 0 583.9043 652"
   version="1.1"
   sodipodi:docname="undraw_modern_professional_yt9h.svg"
   inkscape:version="0.92.3 (2405546, 2018-03-11)">
  <metadata
     id="metadata121">
    <rdf:RDF>
      <cc:Work
         rdf:about="">
        <dc:format>image/svg+xml</dc:format>
        <dc:type
           rdf:resource="http://purl.org/dc/dcmitype/StillImage" />
      </cc:Work>
    </rdf:RDF>
  </metadata>
  <defs
     id="defs119" />
  <sodipodi:namedview
     pagecolor="#ffffff"
     bordercolor="#666666"
     borderopacity="1"
     objecttolerance="10"
     gridtolerance="10"
     guidetolerance="10"
     inkscape:pageopacity="0"
     inkscape:pageshadow="2"
     inkscape:window-width="1299"
     inkscape:window-height="713"
     id="namedview117"
     showgrid="false"
     inkscape:zoom="0.36196319"
     inkscape:cx="291.95215"
     inkscape:cy="326"
     inkscape:window-x="67"
     inkscape:window-y="27"
     inkscape:window-maximized="1"
     inkscape:current-layer="fb414a8b-d0ff-4841-818a-532ec941ba8d" />
  <title
     id="title2">modern professional</title>
  <circle
     cx="137.03198"
     cy="553.16387"
     r="14.92017"
     fill="#2e86f8"
     opacity="0.4"
     id="circle4" />
  <circle
     cx="109.41853"
     cy="560.28992"
     r="10.46639"
     fill="#2e86f8"
     opacity="0.4"
     id="circle6" />
  <path
     d="M839.05005,473.26123A255.4403,255.4403,0,0,0,821.148,248.49384L413.04785,305l391.09027-81.50568A254.56224,254.56224,0,0,0,602.04785,124c-140.83264,0-255,114.16736-255,255a257.18949,257.18949,0,0,0,2.37335,34.7973Z"
     transform="translate(-308.04785 -124)"
     fill="#f2f2f2"
     id="path8" />
  <path
     d="M364.09235,470.8103C400.95038,566.27441,493.58374,634,602.04785,634c101.778,0,189.61694-59.63409,230.51453-145.86108Z"
     transform="translate(-308.04785 -124)"
     fill="#f2f2f2"
     id="path10" />
  <circle
     cx="106"
     cy="112"
     r="12"
     fill="#3f3d56"
     id="circle12" />
  <circle
     cx="538"
     cy="252"
     r="12"
     fill="#2e86f8"
     id="circle14" />
  <rect
     x="105"
     y="339"
     width="20"
     height="20"
     fill="#2e86f8"
     id="rect16" />
  <ellipse
     cx="294.5"
     cy="398"
     rx="56"
     ry="13"
     fill="#3f3d56"
     id="ellipse22" />
  <rect
     x="593.47388"
     y="683.50021"
     width="54.14795"
     height="1.99959"
     transform="translate(-356.83712 -76.37339) rotate(-4.22916)"
     fill="#2f2e41"
     id="rect24" />
  <rect
     x="566.54805"
     y="669.58729"
     width="1.99959"
     height="22.82542"
     transform="translate(-610.71498 726.10779) rotate(-61.18921)"
     fill="#2f2e41"
     id="rect26" />
  <rect
     x="288.5"
     y="543.5"
     width="18"
     height="2"
     fill="#2f2e41"
     id="rect28" />
  <polygon
     points="241.498 650.568 239.502 650.432 254.502 418.432 256.498 418.568 241.498 650.568"
     fill="#2f2e41"
     id="polygon30" />
  <polygon
     points="315.501 650.549 305.501 422.549 307.499 422.451 317.499 650.451 315.501 650.549"
     fill="#2f2e41"
     id="polygon32" />
  <rect
     x="651.04766"
     y="544.10828"
     width="2.00039"
     height="230.78345"
     transform="translate(-360.12854 -68.08069) rotate(-4.72229)"
     fill="#2f2e41"
     id="rect34" />
  <polygon
     points="272.5 650.524 270.5 650.476 276.5 420.476 278.5 420.524 272.5 650.524"
     fill="#2f2e41"
     id="polygon56" />
  <ellipse
     cx="323"
     cy="152"
     rx="2"
     ry="4"
     fill="#ffb8b8"
     id="ellipse58" />
  <ellipse
     cx="264"
     cy="152"
     rx="2"
     ry="4"
     fill="#ffb8b8"
     id="ellipse60" />
  <rect
     x="10"
     y="650"
     width="546"
     height="2"
     fill="#2f2e41"
     id="rect74" />
  <path
     d="M772.63086,774.01953l-2-.03906a463.83471,463.83471,0,0,1,7.09961-66.28711c8.64844-46.88086,23.0293-77.66992,42.74316-91.51172l1.14844,1.63672C775.57031,650.15234,772.6543,772.78418,772.63086,774.01953Z"
     transform="translate(-308.04785 -124)"
     fill="#2f2e41"
     id="path76" />
  <path
     d="M797.63086,773.541l-2-.03907c.043-2.21484,1.293-54.41406,21.84277-68.84179l1.14844,1.63672C798.90137,720.14258,797.64063,773.00879,797.63086,773.541Z"
     transform="translate(-308.04785 -124)"
     fill="#2f2e41"
     id="path78" />
  <circle
     cx="525"
     cy="483"
     r="10"
     fill="#2e86f8"
     id="circle80" />
  <circle
     cx="520"
     cy="570"
     r="10"
     fill="#2e86f8"
     id="circle82" />
  <path
     d="M792.96963,623.99461c1.87935,12.004-3.01891,22.74063-3.01891,22.74063s-7.94529-8.72581-9.82464-20.72985,3.0189-22.74063,3.0189-22.74063S791.09027,611.99057,792.96963,623.99461Z"
     transform="translate(-308.04785 -124)"
     fill="#2f2e41"
     id="path84" />
  <path
     d="M825.6568,653.14836c-11.49295,3.9422-22.91878.98962-22.91878.98962s7.20793-9.34414,18.70088-13.28634,22.91879-.98962,22.91879-.98962S837.14975,649.20616,825.6568,653.14836Z"
     transform="translate(-308.04785 -124)"
     fill="#2f2e41"
     id="path86" />
  <path
     d="M826.02605,729.3095a31.134,31.134,0,0,1-16.06421.69365,28.37377,28.37377,0,0,1,29.172-10.0063A31.134,31.134,0,0,1,826.02605,729.3095Z"
     transform="translate(-308.04785 -124)"
     fill="#2f2e41"
     id="path88" />
  <polygon
     points="2 192 0 192 0 62 128 62 128 64 2 64 2 192"
     fill="#2f2e41"
     id="polygon90" />
  <polygon
     points="583.904 192 581.904 192 581.904 64 455.904 64 455.904 62 583.904 62 583.904 192"
     fill="#2f2e41"
     id="polygon92" />
  <polygon
     points="2 302 0 302 0 432 128 432 128 430 2 430 2 302"
     fill="#2f2e41"
     id="polygon94" />
  <polygon
     points="583.904 302 581.904 302 581.904 430 455.904 430 455.904 432 583.904 432 583.904 302"
     fill="#2f2e41"
     id="polygon96" />
  <rect
     x="36"
     y="123"
     width="140"
     height="2"
     fill="#3f3d56"
     id="rect98" />
  <rect
     x="74"
     y="105"
     width="2"
     height="18.5"
     fill="#3f3d56"
     id="rect100" />
  <rect
     x="135"
     y="105"
     width="2"
     height="18.5"
     fill="#3f3d56"
     id="rect102" />
  <rect
     x="414"
     y="264"
     width="140"
     height="2"
     fill="#3f3d56"
     id="rect104" />
  <rect
     x="452"
     y="246"
     width="2"
     height="18.5"
     fill="#3f3d56"
     id="rect106" />
  <rect
     x="513"
     y="246"
     width="2"
     height="18.5"
     fill="#3f3d56"
     id="rect108" />
  <rect
     x="45"
     y="358"
     width="140"
     height="2"
     fill="#3f3d56"
     id="rect110" />
  <rect
     x="83"
     y="340"
     width="2"
     height="18.5"
     fill="#3f3d56"
     id="rect112" />
  <rect
     x="144"
     y="340"
     width="2"
     height="18.5"
     fill="#3f3d56"
     id="rect114" />
</svg>
